<svg xmlns="http://www.w3.org/2000/svg" viewBox="0 0 500 500"><g id="freepik--background-complete--inject-127"><ellipse cx="245.43" cy="348.52" rx="165.94" ry="86.7" style="fill:#ebebeb"></ellipse><path d="M160.62,56.24s0,.18,0,.54-.07.9-.11,1.58-.1,1.55-.21,2.56-.26,2.18-.42,3.49a107.83,107.83,0,0,1-5.4,21.68,130.26,130.26,0,0,1-15.18,29.45,152.35,152.35,0,0,1-27.09,30.17,120.92,120.92,0,0,1-34.85,20.64c-1.47.54-2.89,1.14-4.34,1.61l-4.28,1.42c-2.84.83-5.59,1.66-8.31,2.27s-5.34,1.15-7.87,1.66-5,.84-7.34,1.07a126.79,126.79,0,0,1-22.34.7c-2.64-.11-4.68-.36-6.06-.5l-1.57-.18-.53-.07a4.38,4.38,0,0,1,.54,0l1.57.12c1.39.11,3.42.33,6.06.41A130.45,130.45,0,0,0,45.17,174c2.34-.23,4.77-.7,7.31-1.09s5.16-1,7.84-1.69,5.44-1.45,8.28-2.28l4.25-1.43c1.45-.48,2.86-1.08,4.32-1.62a121.13,121.13,0,0,0,34.69-20.59,153,153,0,0,0,27-30A131.26,131.26,0,0,0,154.12,86a110.67,110.67,0,0,0,5.55-21.59c.18-1.31.33-2.47.47-3.48s.18-1.86.25-2.55.12-1.2.16-1.58S160.62,56.24,160.62,56.24Z" style="fill:#e0e0e0"></path><path d="M273.55,55.74s0,.29-.09.85l-.3,2.47c-.29,2.17-.65,5.38-1.42,9.47-.18,1-.36,2.11-.56,3.24s-.49,2.32-.75,3.56c-.54,2.47-1.1,5.16-1.9,8-.39,1.43-.76,2.91-1.19,4.43s-1,3.06-1.47,4.66-1.07,3.22-1.68,4.88-1.18,3.39-1.93,5.1A126,126,0,0,1,251.16,124,95.73,95.73,0,0,1,233,145.17a119.85,119.85,0,0,1-26.14,16.33,238,238,0,0,1-31,11.68c-10.84,3.37-21.52,6.33-31.73,9.49a277.61,277.61,0,0,0-29,10.51,224.15,224.15,0,0,0-24.86,12.59A196.16,196.16,0,0,0,70.2,219.4a166,166,0,0,0-25.46,24.19l-3.51,4.26-2.44,3.23-1.5,2c-.34.44-.53.66-.53.66s.16-.24.49-.69l1.46-2,2.39-3.27q1.53-1.86,3.49-4.29A162.52,162.52,0,0,1,70,219.11a194.79,194.79,0,0,1,20.1-13.71A223.84,223.84,0,0,1,115,192.74a276.92,276.92,0,0,1,29-10.56c10.22-3.16,20.9-6.13,31.72-9.5A238.06,238.06,0,0,0,206.62,161a119.85,119.85,0,0,0,26-16.24,95.36,95.36,0,0,0,18.13-21,126.66,126.66,0,0,0,11.13-21.54c.75-1.7,1.32-3.42,1.94-5.08s1.22-3.26,1.7-4.87L267,87.68c.43-1.51.81-3,1.21-4.42.81-2.83,1.38-5.52,1.94-8,.26-1.23.57-2.4.77-3.54s.4-2.21.58-3.24c.81-4.08,1.2-7.28,1.51-9.45q.24-1.6.36-2.46C273.49,56,273.55,55.74,273.55,55.74Z" style="fill:#e0e0e0"></path><path d="M486.48,394.43a1.86,1.86,0,0,1-.39.11l-1.15.27-4.43,1c-3.85.86-9.43,2.08-16.28,3.71s-15,3.72-23.87,6.55a183.94,183.94,0,0,0-28,11.37,135,135,0,0,0-13.45,8,117.72,117.72,0,0,0-11.52,9l-2.54,2.32c-.84.77-1.6,1.59-2.39,2.36-1.59,1.52-3,3.16-4.37,4.68s-2.61,3.12-3.78,4.64l-1.67,2.27-.81,1.1-.73,1.12c-.94,1.49-1.91,2.86-2.66,4.26s-1.57,2.64-2.15,3.92-1.22,2.41-1.72,3.5l-1.26,3c-.19.45-.38.88-.54,1.29s-.27.79-.4,1.15c-.25.71-.46,1.31-.63,1.81l-.4,1.11a3.09,3.09,0,0,1-.16.38,3.61,3.61,0,0,1,.11-.39c.08-.28.2-.65.35-1.13l.59-1.83c.11-.36.24-.75.38-1.17s.33-.84.51-1.29l1.23-3.05c.48-1.1,1.07-2.27,1.68-3.53s1.37-2.56,2.13-4,1.7-2.8,2.64-4.29l.72-1.13.8-1.11,1.67-2.3c1.16-1.53,2.44-3.08,3.77-4.67s2.79-3.19,4.38-4.72c.79-.78,1.55-1.61,2.39-2.38l2.55-2.34a115.69,115.69,0,0,1,11.54-9,134.13,134.13,0,0,1,13.5-8.07,181.55,181.55,0,0,1,28.12-11.37c8.91-2.81,17.06-4.85,23.93-6.45s12.46-2.75,16.32-3.55l4.46-.89,1.16-.22A1.9,1.9,0,0,1,486.48,394.43Z" style="fill:#e0e0e0"></path><path d="M488.13,327.44l-.7.4L485.37,329c-1.83,1-4.49,2.46-8,4.21-7,3.6-17.19,8.54-30,14.23S419.12,359.48,402,366.46,365.89,381.11,346.42,390c-9.72,4.46-19.1,9.07-28,13.77s-17.33,9.61-25.2,14.48l-5.79,3.69c-1.89,1.23-3.71,2.51-5.54,3.73-3.66,2.42-7.05,5-10.4,7.41-1.66,1.22-3.23,2.49-4.8,3.71s-3.14,2.38-4.58,3.63L257.79,444c-.7.59-1.39,1.18-2.08,1.75s-1.32,1.2-2,1.79c-2.58,2.36-5.11,4.55-7.31,6.81s-4.43,4.24-6.28,6.32-3.69,3.91-5.27,5.69l-4.23,5c-.63.75-1.25,1.44-1.79,2.11l-1.49,1.93-2.34,3-1.45,1.85c-.33.42-.51.62-.51.62s.15-.23.46-.65l1.41-1.88,2.31-3.05,1.47-1.94c.54-.68,1.15-1.38,1.77-2.13l4.2-5c1.58-1.79,3.37-3.67,5.25-5.73s4-4.12,6.26-6.36,4.72-4.47,7.3-6.84c.64-.6,1.3-1.19,2-1.8l2.08-1.76,4.3-3.63c1.44-1.26,3-2.41,4.58-3.65s3.15-2.5,4.8-3.73c3.35-2.41,6.74-5,10.41-7.43,1.82-1.23,3.64-2.52,5.54-3.75l5.78-3.7c7.88-4.89,16.28-9.84,25.22-14.53s18.31-9.33,28-13.79c19.48-8.87,38.39-16.51,55.57-23.48s32.62-13.29,45.45-19,23.07-10.53,30.06-14.08c3.52-1.72,6.19-3.19,8-4.12l2.09-1.07C487.88,327.55,488.13,327.44,488.13,327.44Z" style="fill:#e0e0e0"></path><path d="M458.82,55.74s.12.52.34,1.53.55,2.53,1,4.49c1,3.93,2.59,9.68,5,17S470.58,95,474,105.35c1.68,5.19,3.44,10.77,5.12,16.73s3.29,12.32,4.53,19.1c.57,3.39,1.12,6.87,1.39,10.47.19,1.79.21,3.62.29,5.46s0,3.71-.19,5.58a40.52,40.52,0,0,1-2.37,11.25l-1.2,2.71c-.5.86-1,1.72-1.51,2.58-1.15,1.63-2.31,3.26-3.49,4.91A103.51,103.51,0,0,1,459,202a141.18,141.18,0,0,1-22.26,14.51,197.48,197.48,0,0,1-25.55,11.27c-8.95,3.27-18.27,6.06-27.8,8.71-19.06,5.28-39.06,9.87-58.85,16.82a208.79,208.79,0,0,0-54,28.3,258.24,258.24,0,0,0-22.46,18.47c-7,6.42-13.44,13.18-19.5,19.94a345.92,345.92,0,0,0-31.11,41.09c-8.76,13.58-16.21,26.68-22.62,38.84S163,423.32,158.4,433.21s-8.48,18.47-11.62,25.49-5.53,12.48-7.18,16.19c-.81,1.84-1.44,3.25-1.86,4.2s-.66,1.43-.66,1.43.2-.49.61-1.45l1.82-4.23,7.08-16.22c3.11-7,6.93-15.64,11.54-25.54s10-21.11,16.39-33.29,13.84-25.3,22.59-38.9a344.46,344.46,0,0,1,31.11-41.18c6.07-6.77,12.49-13.55,19.52-20a257.5,257.5,0,0,1,22.5-18.52,209.2,209.2,0,0,1,54.12-28.38c19.83-7,39.83-11.55,58.88-16.82,9.53-2.64,18.84-5.43,27.77-8.68a200,200,0,0,0,25.5-11.23,140.94,140.94,0,0,0,22.19-14.45,103,103,0,0,0,17.5-17.77l3.48-4.88,1.48-2.54,1.19-2.67a39.9,39.9,0,0,0,2.36-11.13c.19-1.86.16-3.71.2-5.54s-.1-3.65-.28-5.44c-.26-3.58-.81-7.06-1.38-10.44-1.22-6.76-2.81-13.11-4.47-19.07s-3.42-11.53-5.09-16.73c-3.36-10.39-6.42-19.29-8.73-26.63s-3.93-13.09-4.87-17c-.47-2-.8-3.48-1-4.51S458.82,55.74,458.82,55.74Z" style="fill:#e0e0e0"></path><path d="M76.11,482.59s-.12-.17-.32-.52-.51-.88-.86-1.58a32.36,32.36,0,0,1-2.35-6.5,40.17,40.17,0,0,1-1.07-10.88,57.55,57.55,0,0,1,2.35-14.29,129.57,129.57,0,0,1,6.3-16.39c2.56-5.76,5.5-11.84,7.89-18.5a126.15,126.15,0,0,0,7.5-45.18c0-4.08-.38-8.11-.78-12.07-.27-2-.48-3.93-.83-5.86s-.65-3.85-1.08-5.72c-1.67-7.47-4.41-14.63-9.17-19.87a25.21,25.21,0,0,0-8.21-6,30,30,0,0,0-9.33-2.54,46.11,46.11,0,0,0-17.28,1.6,95.92,95.92,0,0,0-13.51,5.1c-3.88,1.75-7.19,3.35-9.92,4.6s-4.86,2.17-6.33,2.76l-1.67.66-.58.2.56-.25,1.65-.7c1.45-.63,3.58-1.58,6.29-2.86s6-2.9,9.88-4.68a94.47,94.47,0,0,1,13.53-5.18,46.15,46.15,0,0,1,17.43-1.68,30.14,30.14,0,0,1,9.47,2.55A25.48,25.48,0,0,1,84,324.91a28.49,28.49,0,0,1,3.27,4.32,36.81,36.81,0,0,1,2.58,4.9A58.82,58.82,0,0,1,93.36,345c.44,1.88.77,3.81,1.09,5.75s.56,3.91.83,5.88c.41,4,.76,8,.79,12.12a126.1,126.1,0,0,1-7.57,45.35c-2.41,6.69-5.37,12.77-7.94,18.52a129.5,129.5,0,0,0-6.35,16.32,57.43,57.43,0,0,0-2.41,14.19,40.14,40.14,0,0,0,1,10.82,33.88,33.88,0,0,0,2.25,6.5c.33.71.63,1.24.81,1.6Z" style="fill:#e0e0e0"></path><ellipse cx="378.48" cy="189.27" rx="61.04" ry="21.41" style="fill:#f5f5f5"></ellipse><path d="M419.85,359.45l-44.5,92.88c-2.22,4.64,1.06,10.31,7,12.05h0c5.24,1.55,10.57-.62,12.06-4.93L428,362.12Z" style="fill:#ebebeb"></path><path d="M474.57,266.75l-2.22-.66-15.92,41.76a2.41,2.41,0,0,1-3,1.19,2.34,2.34,0,0,1-1.8-3l16.29-41.3-2.51-.75L448.47,305.5a2.41,2.41,0,0,1-3,1.19,2.34,2.34,0,0,1-1.8-3L460,262.44l-2.67-.79-16.8,41.5a2.41,2.41,0,0,1-3,1.19,2.34,2.34,0,0,1-1.81-3l15.84-41.44-2.1-.62s-24.07,51-28.52,65.66c-3.25,10.72,9.18,11.57-1,34.47l8.15,2.67a33.56,33.56,0,0,1,7.13-14.82c3.12-3.56,10.82-5,15.45-9.13,4.17-3.73,6.71-12.21,9.18-20.58S474.57,266.75,474.57,266.75Z" style="fill:#ebebeb"></path><ellipse cx="132.82" cy="172.01" rx="65.06" ry="28.55" style="fill:#ebebeb"></ellipse><path d="M197.87,172s0-.26-.07-.78a12.92,12.92,0,0,0-.36-2.28,17.63,17.63,0,0,0-4.39-7.58c-5.23-5.72-15.53-11-28.93-14.2a130.36,130.36,0,0,0-22.3-3.21,145.63,145.63,0,0,0-25.85.72,106.17,106.17,0,0,0-27.67,6.8,50.35,50.35,0,0,0-13,7.53,24.52,24.52,0,0,0-5.08,5.71A14.21,14.21,0,0,0,68,172a14.06,14.06,0,0,0,2.2,7.29A24.45,24.45,0,0,0,75.29,185a50.51,50.51,0,0,0,13,7.53A106.37,106.37,0,0,0,116,199.35a146.67,146.67,0,0,0,25.86.72,130.62,130.62,0,0,0,22.3-3.22c13.39-3.19,23.69-8.48,28.92-14.2a17.58,17.58,0,0,0,4.39-7.58,12.84,12.84,0,0,0,.36-2.27c0-.52.07-.79.07-.79s0,.27,0,.79a11.3,11.3,0,0,1-.31,2.3,17.33,17.33,0,0,1-4.34,7.69c-5.23,5.81-15.56,11.17-29,14.42a129.82,129.82,0,0,1-22.36,3.29,146.32,146.32,0,0,1-25.93-.67A106.27,106.27,0,0,1,88.1,193,50.49,50.49,0,0,1,75,185.4a24.75,24.75,0,0,1-5.19-5.83,13.72,13.72,0,0,1,0-15.13A24.68,24.68,0,0,1,75,158.62,50.43,50.43,0,0,1,88.1,151a106.73,106.73,0,0,1,27.82-6.81,146.32,146.32,0,0,1,25.93-.67,128.85,128.85,0,0,1,22.36,3.29c13.43,3.25,23.76,8.6,29,14.41a17.4,17.4,0,0,1,4.34,7.7,11.31,11.31,0,0,1,.31,2.29C197.87,171.75,197.87,172,197.87,172Z" style="fill:#e0e0e0"></path><ellipse cx="132.82" cy="169.08" rx="65.21" ry="28.55" style="fill:#f5f5f5"></ellipse><path d="M198,169.08s0-.26-.08-.78a12.79,12.79,0,0,0-.36-2.28,17.58,17.58,0,0,0-4.41-7.59c-5.25-5.72-15.58-11-29-14.19A130,130,0,0,0,141.84,141a147.12,147.12,0,0,0-25.9.72,106.29,106.29,0,0,0-27.73,6.8,50.2,50.2,0,0,0-13,7.52,24.16,24.16,0,0,0-5.1,5.71,13.19,13.19,0,0,0,0,14.6,24.38,24.38,0,0,0,5.1,5.71,50.68,50.68,0,0,0,13,7.53,106.76,106.76,0,0,0,27.74,6.8,147.12,147.12,0,0,0,25.9.72,130.1,130.1,0,0,0,22.35-3.22c13.42-3.19,23.74-8.46,29-14.18a17.63,17.63,0,0,0,4.41-7.59,12.92,12.92,0,0,0,.36-2.28c0-.52.08-.79.08-.79s0,.27,0,.79a13,13,0,0,1-.31,2.3,17.42,17.42,0,0,1-4.37,7.7c-5.25,5.81-15.6,11.17-29.06,14.41a130.31,130.31,0,0,1-22.4,3.29,147,147,0,0,1-26-.67A107.18,107.18,0,0,1,88,190.09a50.65,50.65,0,0,1-13.17-7.61,24.62,24.62,0,0,1-5.21-5.83,13.7,13.7,0,0,1,0-15.15,25,25,0,0,1,5.2-5.82A50.82,50.82,0,0,1,88,148.07a106.84,106.84,0,0,1,27.87-6.8,147,147,0,0,1,26-.67,129.52,129.52,0,0,1,22.4,3.28c13.45,3.25,23.81,8.6,29.06,14.41a17.52,17.52,0,0,1,4.37,7.7,13.06,13.06,0,0,1,.31,2.3C198,168.82,198,169.08,198,169.08Z" style="fill:#ebebeb"></path><ellipse cx="131.31" cy="169.49" rx="43.53" ry="19.06" style="fill:#e0e0e0"></ellipse><path d="M156.71,176.65c17.3-5.21,19.53-26.81,19.53-26.81L183,95.41H82.67l6.73,54.43s3.45,22.58,19.52,26.81C108.92,176.65,132.82,183.67,156.71,176.65Z" style="fill:#e0e0e0"></path><ellipse cx="132.82" cy="95.41" rx="50.14" ry="15.45" style="fill:#e0e0e0"></ellipse><ellipse cx="132.82" cy="95.57" rx="46.44" ry="14.31" style="fill:#ebebeb"></ellipse><path d="M89.51,100.74c6.73,5.34,23.58,9.13,43.31,9.13s36.57-3.79,43.3-9.13c-8.7-4.58-24.83-7.66-43.3-7.66S98.21,96.16,89.51,100.74Z" style="fill:#ae7461"></path><path d="M89.25,157.6a28.47,28.47,0,0,1-15.56-4.67A23.2,23.2,0,0,1,63,136.35a24.94,24.94,0,0,1,21.71-27.8l1.6,13A11.85,11.85,0,0,0,76,134.75,10.55,10.55,0,0,0,80.91,142a15.13,15.13,0,0,0,10,2.4l1.6,13A25.1,25.1,0,0,1,89.25,157.6Z" style="fill:#e0e0e0"></path><path d="M86.39,121.83a4.08,4.08,0,0,0,2.25-1.38,5,5,0,0,0,1-2.66,16,16,0,0,0-.11-3.62,10.28,10.28,0,0,0-.9-3.47,4.33,4.33,0,0,0-2-2,3.45,3.45,0,0,0-1.89-.37,6.94,6.94,0,0,1-.72.13s.2-.2.69-.33a3.31,3.31,0,0,1,2.07.23,4.64,4.64,0,0,1,2.26,2.13,10,10,0,0,1,1,3.63,14.84,14.84,0,0,1,.08,3.75,5.29,5.29,0,0,1-1.25,2.83,3.51,3.51,0,0,1-1.77,1.11C86.67,121.91,86.39,121.86,86.39,121.83Z" style="fill:#263238"></path><path d="M93,157.92c-.08,0,.5-.86,1.1-2.31a10.31,10.31,0,0,0,.68-6,7.54,7.54,0,0,0-3.36-4.81,11.33,11.33,0,0,0-2.34-.95,1.52,1.52,0,0,1,.7,0,5.29,5.29,0,0,1,1.83.62,7.54,7.54,0,0,1,3.68,5,9.8,9.8,0,0,1-.86,6.2A6.36,6.36,0,0,1,93,157.92Z" style="fill:#263238"></path><path d="M156.71,176.65c17.3-5.21,19.53-26.81,19.53-26.81L183,95.41H82.67l6.73,54.43s3.45,22.58,19.52,26.81C108.92,176.65,132.82,183.67,156.71,176.65Z" style="fill:#ebebeb"></path><ellipse cx="132.82" cy="95.57" rx="50.14" ry="18" style="fill:#ebebeb"></ellipse><ellipse cx="132.82" cy="97.01" rx="46.44" ry="16.67" style="fill:#f5f5f5"></ellipse><path d="M89.51,103c6.73,6.23,23.58,10.65,43.31,10.65s36.57-4.42,43.3-10.65c-8.7-5.34-24.83-8.92-43.3-8.92S98.21,97.69,89.51,103Z" style="fill:#e0e0e0"></path><path d="M89.25,157.6a28.47,28.47,0,0,1-15.56-4.67A23.2,23.2,0,0,1,63,136.35a24.94,24.94,0,0,1,21.71-27.8l1.6,13A11.85,11.85,0,0,0,76,134.75,10.55,10.55,0,0,0,80.91,142a15.13,15.13,0,0,0,10,2.4l1.6,13A25.1,25.1,0,0,1,89.25,157.6Z" style="fill:#ebebeb"></path><path d="M86.39,121.83a4.08,4.08,0,0,0,2.25-1.38,5,5,0,0,0,1-2.66,16,16,0,0,0-.11-3.62,10.28,10.28,0,0,0-.9-3.47,4.33,4.33,0,0,0-2-2,3.45,3.45,0,0,0-1.89-.37,6.94,6.94,0,0,1-.72.13s.2-.2.69-.33a3.31,3.31,0,0,1,2.07.23,4.64,4.64,0,0,1,2.26,2.13,10,10,0,0,1,1,3.63,14.84,14.84,0,0,1,.08,3.75,5.29,5.29,0,0,1-1.25,2.83,3.51,3.51,0,0,1-1.77,1.11C86.67,121.91,86.39,121.86,86.39,121.83Z" style="fill:#e0e0e0"></path><path d="M93,157.92c-.08,0,.5-.86,1.1-2.31a10.31,10.31,0,0,0,.68-6,7.54,7.54,0,0,0-3.36-4.81,11.33,11.33,0,0,0-2.34-.95,1.52,1.52,0,0,1,.7,0,5.29,5.29,0,0,1,1.83.62,7.54,7.54,0,0,1,3.68,5,9.8,9.8,0,0,1-.86,6.2A6.36,6.36,0,0,1,93,157.92Z" style="fill:#e0e0e0"></path><path d="M183,95.41a2.66,2.66,0,0,1,0,.42c0,.3-.08.7-.13,1.22-.12,1.1-.3,2.68-.53,4.7-.49,4.1-1.19,10-2.05,17.27s-1.94,16-3.11,25.6c-.14,1.2-.29,2.42-.44,3.65s-.29,2.5-.54,3.75a43.47,43.47,0,0,1-2.17,7.51,31,31,0,0,1-9.38,13.31,23.38,23.38,0,0,1-7.37,3.91,73.49,73.49,0,0,1-7.87,1.87A86.78,86.78,0,0,1,134.16,180a97.22,97.22,0,0,1-25.57-3.25,19.23,19.23,0,0,1-4.83-2.1A20.89,20.89,0,0,1,100,171.8,28.12,28.12,0,0,1,95.34,166a36.11,36.11,0,0,1-2.21-4.18c-.23-.49-.38-.88-.48-1.13a1.9,1.9,0,0,1-.15-.4,2,2,0,0,1,.2.37c.12.28.3.64.52,1.11a44.15,44.15,0,0,0,2.29,4.12,28.54,28.54,0,0,0,4.72,5.74,20.79,20.79,0,0,0,3.7,2.78,19.29,19.29,0,0,0,4.76,2,98.13,98.13,0,0,0,25.47,3.12,86.74,86.74,0,0,0,15.1-1.39,77.3,77.3,0,0,0,7.8-1.86,22.9,22.9,0,0,0,7.21-3.83,30.61,30.61,0,0,0,9.23-13.09,43,43,0,0,0,2.15-7.41c.25-1.24.38-2.47.54-3.71s.31-2.45.46-3.66c1.21-9.62,2.3-18.3,3.21-25.59s1.69-13.15,2.22-17.25c.27-2,.48-3.58.63-4.68.07-.52.13-.92.17-1.22A3.56,3.56,0,0,1,183,95.41Z" style="fill:#e0e0e0"></path><path d="M183,96.68a4.86,4.86,0,0,1-.07,1.19,11.43,11.43,0,0,1-1.11,3.24,22.4,22.4,0,0,1-8.82,8.8,44.35,44.35,0,0,1-8,3.32c-3,.93-6.18,1.84-9.62,2.57a91.2,91.2,0,0,1-10.87,1.71,99.2,99.2,0,0,1-11.81.48A107.54,107.54,0,0,1,110,115.21c-1.7-.42-3.37-.8-5-1.29s-3.14-.93-4.62-1.42a48.24,48.24,0,0,1-8-3.3,22,22,0,0,1-5.72-4.31,16.34,16.34,0,0,1-3-4.52,12.69,12.69,0,0,1-.92-3.29,6.26,6.26,0,0,1-.08-1.19,15.15,15.15,0,0,0,1.18,4.4,16.44,16.44,0,0,0,3,4.4,22,22,0,0,0,5.69,4.18,47.81,47.81,0,0,0,8,3.22c1.48.48,3,1,4.61,1.39s3.25.85,5,1.27a109.45,109.45,0,0,0,22.53,2.72,100.44,100.44,0,0,0,11.75-.47,92.53,92.53,0,0,0,10.82-1.67c3.42-.71,6.62-1.61,9.59-2.52a44.33,44.33,0,0,0,8-3.22A22.57,22.57,0,0,0,181.6,101a11.84,11.84,0,0,0,1.19-3.16C182.94,97.09,182.93,96.68,183,96.68Z" style="fill:#e0e0e0"></path><path d="M24.1,240.85l48,215.2a8.59,8.59,0,0,0,10.58,6.43h0a8.59,8.59,0,0,0,6-10.93L60.6,355.2s9.25-7.29,8.43-17c-.33-4-26-81.91-31.42-92.66a18.57,18.57,0,0,0-8.42-8.72A3.6,3.6,0,0,0,24.1,240.85Z" style="fill:#ebebeb"></path></g><g id="freepik--Table--inject-127"><path d="M485.3,52.61c0,.15-105.36.26-235.29.26S14.7,52.76,14.7,52.61,120,52.35,250,52.35,485.3,52.47,485.3,52.61Z" style="fill:#263238"></path></g><g id="freepik--Coffee--inject-127"><ellipse cx="395.25" cy="178.3" rx="65.06" ry="28.55" style="fill:#ebebeb"></ellipse><path d="M460.31,178.3s0-.27-.08-.79a12.84,12.84,0,0,0-.36-2.27,17.47,17.47,0,0,0-4.39-7.58c-5.23-5.72-15.53-11-28.92-14.2a130.62,130.62,0,0,0-22.3-3.22,147.5,147.5,0,0,0-25.85.72,106.27,106.27,0,0,0-27.68,6.81,49.94,49.94,0,0,0-13,7.53,24.41,24.41,0,0,0-5.07,5.7,13.22,13.22,0,0,0,0,14.59,24.22,24.22,0,0,0,5.08,5.7,50,50,0,0,0,13,7.54,106.31,106.31,0,0,0,27.69,6.8,145.58,145.58,0,0,0,25.85.72,129.53,129.53,0,0,0,22.3-3.21c13.39-3.2,23.7-8.48,28.92-14.2a17.47,17.47,0,0,0,4.39-7.58,12.92,12.92,0,0,0,.36-2.28c0-.51.08-.78.08-.78s0,.27,0,.79a13,13,0,0,1-.31,2.29,17.55,17.55,0,0,1-4.35,7.7c-5.22,5.81-15.56,11.16-29,14.41a128.16,128.16,0,0,1-22.37,3.29,146.35,146.35,0,0,1-25.93-.67,106.33,106.33,0,0,1-27.82-6.81,50.94,50.94,0,0,1-13.14-7.61,24.91,24.91,0,0,1-5.18-5.83,14.6,14.6,0,0,1-2.28-7.57,14.75,14.75,0,0,1,2.28-7.56,24.75,24.75,0,0,1,5.19-5.83,50.56,50.56,0,0,1,13.13-7.6,106,106,0,0,1,27.82-6.81,145.44,145.44,0,0,1,25.93-.68,129.82,129.82,0,0,1,22.36,3.29c13.43,3.25,23.76,8.61,29,14.42a17.52,17.52,0,0,1,4.35,7.69,13.06,13.06,0,0,1,.31,2.3C460.31,178,460.31,178.3,460.31,178.3Z" style="fill:#263238"></path><ellipse cx="395.25" cy="175.37" rx="65.21" ry="28.55" style="fill:#ebebeb"></ellipse><path d="M460.46,175.37s0-.27-.07-.79a12.92,12.92,0,0,0-.36-2.28,17.6,17.6,0,0,0-4.42-7.58c-5.25-5.73-15.57-11-29-14.19a131.09,131.09,0,0,0-22.35-3.22,148.11,148.11,0,0,0-25.9.72,107.09,107.09,0,0,0-27.73,6.8,50.4,50.4,0,0,0-13,7.53,24.33,24.33,0,0,0-5.1,5.7,13.18,13.18,0,0,0,0,14.61,24.29,24.29,0,0,0,5.09,5.7,50.17,50.17,0,0,0,13,7.53,106.71,106.71,0,0,0,27.73,6.81,147.22,147.22,0,0,0,25.91.71,130,130,0,0,0,22.34-3.21c13.42-3.19,23.75-8.47,29-14.19a17.51,17.51,0,0,0,4.42-7.59,12.84,12.84,0,0,0,.36-2.27c0-.52.07-.79.07-.79s0,.27,0,.79a12.17,12.17,0,0,1-.31,2.3,17.52,17.52,0,0,1-4.37,7.7c-5.24,5.81-15.6,11.16-29.05,14.41a129.49,129.49,0,0,1-22.41,3.28,146.9,146.9,0,0,1-26-.67,106.82,106.82,0,0,1-27.88-6.8,50.82,50.82,0,0,1-13.17-7.61,24.84,24.84,0,0,1-5.21-5.83,13.7,13.7,0,0,1,0-15.15,24.62,24.62,0,0,1,5.21-5.83,50.9,50.9,0,0,1,13.17-7.6,106.65,106.65,0,0,1,27.87-6.8,146,146,0,0,1,26-.68,130.31,130.31,0,0,1,22.4,3.29c13.45,3.25,23.81,8.6,29.06,14.41a17.42,17.42,0,0,1,4.37,7.7,12.07,12.07,0,0,1,.31,2.3C460.46,175.1,460.46,175.37,460.46,175.37Z" style="fill:#263238"></path><g style="opacity:0.1"><ellipse cx="393.75" cy="175.78" rx="43.53" ry="19.06"></ellipse></g><path d="M419.14,182.93c17.3-5.21,19.53-26.8,19.53-26.8l6.72-54.44H345.11l6.72,54.44s3.45,22.58,19.53,26.8C371.36,182.93,395.25,190,419.14,182.93Z" style="fill:#e0e0e0"></path><ellipse cx="395.25" cy="101.69" rx="50.14" ry="15.45" style="fill:#e0e0e0"></ellipse><ellipse cx="395.25" cy="101.85" rx="46.44" ry="14.31" style="fill:#ebebeb"></ellipse><path d="M352,107c6.73,5.35,23.57,9.14,43.3,9.14s36.57-3.79,43.3-9.14c-8.7-4.58-24.83-7.66-43.3-7.66S360.65,102.44,352,107Z" style="fill:#ae7461"></path><path d="M351.68,163.89a28.47,28.47,0,0,1-15.56-4.67,23.26,23.26,0,0,1-10.65-16.58,24.94,24.94,0,0,1,21.72-27.8l1.59,13A11.85,11.85,0,0,0,338.46,141a10.56,10.56,0,0,0,4.89,7.27,15,15,0,0,0,10,2.39l1.6,13A27.3,27.3,0,0,1,351.68,163.89Z" style="fill:#e0e0e0"></path><path d="M348.83,128.12a4.09,4.09,0,0,0,2.24-1.39,5,5,0,0,0,1.05-2.65,16.08,16.08,0,0,0-.11-3.63,9.83,9.83,0,0,0-.9-3.46,4.35,4.35,0,0,0-2-2,3.41,3.41,0,0,0-1.88-.36c-.46,0-.71.17-.73.12a1.32,1.32,0,0,1,.69-.32,3.35,3.35,0,0,1,2.08.23,4.65,4.65,0,0,1,2.25,2.12,10,10,0,0,1,1,3.64,15.22,15.22,0,0,1,.07,3.74,5.18,5.18,0,0,1-1.25,2.83,3.53,3.53,0,0,1-1.76,1.11C349.1,128.2,348.83,128.15,348.83,128.12Z" style="fill:#263238"></path><path d="M355.45,164.21c-.07-.05.5-.86,1.1-2.32a10.38,10.38,0,0,0,.69-5.95,7.64,7.64,0,0,0-3.36-4.81,11.06,11.06,0,0,0-2.35-.94,1.52,1.52,0,0,1,.7,0,5.38,5.38,0,0,1,1.83.61,7.6,7.6,0,0,1,3.69,5,10,10,0,0,1-.86,6.2A6.75,6.75,0,0,1,355.45,164.21Z" style="fill:#263238"></path><path d="M419.14,182.93c17.3-5.21,19.53-26.8,19.53-26.8l6.72-54.44H345.11l6.72,54.44s3.45,22.58,19.53,26.8C371.36,182.93,395.25,190,419.14,182.93Z" style="fill:#e0e0e0"></path><ellipse cx="395.25" cy="101.85" rx="50.14" ry="18" style="fill:#e0e0e0"></ellipse><ellipse cx="395.25" cy="103.3" rx="46.44" ry="16.67" style="fill:#ebebeb"></ellipse><path d="M352,109.32c6.73,6.23,23.57,10.65,43.3,10.65s36.57-4.42,43.3-10.65c-8.7-5.34-24.83-8.93-43.3-8.93S360.65,104,352,109.32Z" style="fill:#ae7461"></path><path d="M351.68,163.89a28.47,28.47,0,0,1-15.56-4.67,23.26,23.26,0,0,1-10.65-16.58,24.94,24.94,0,0,1,21.72-27.8l1.59,13A11.85,11.85,0,0,0,338.46,141a10.56,10.56,0,0,0,4.89,7.27,15,15,0,0,0,10,2.39l1.6,13A27.3,27.3,0,0,1,351.68,163.89Z" style="fill:#e0e0e0"></path><path d="M348.83,128.12a4.09,4.09,0,0,0,2.24-1.39,5,5,0,0,0,1.05-2.65,16.08,16.08,0,0,0-.11-3.63,9.83,9.83,0,0,0-.9-3.46,4.35,4.35,0,0,0-2-2,3.41,3.41,0,0,0-1.88-.36c-.46,0-.71.17-.73.12a1.32,1.32,0,0,1,.69-.32,3.35,3.35,0,0,1,2.08.23,4.65,4.65,0,0,1,2.25,2.12,10,10,0,0,1,1,3.64,15.22,15.22,0,0,1,.07,3.74,5.18,5.18,0,0,1-1.25,2.83,3.53,3.53,0,0,1-1.76,1.11C349.1,128.2,348.83,128.15,348.83,128.12Z" style="fill:#263238"></path><path d="M355.45,164.21c-.07-.05.5-.86,1.1-2.32a10.38,10.38,0,0,0,.69-5.95,7.64,7.64,0,0,0-3.36-4.81,11.06,11.06,0,0,0-2.35-.94,1.52,1.52,0,0,1,.7,0,5.38,5.38,0,0,1,1.83.61,7.6,7.6,0,0,1,3.69,5,10,10,0,0,1-.86,6.2A6.75,6.75,0,0,1,355.45,164.21Z" style="fill:#263238"></path><path d="M445.39,101.69a2.64,2.64,0,0,1,0,.42c0,.3-.07.71-.13,1.23-.12,1.1-.3,2.67-.53,4.69-.48,4.11-1.18,10-2,17.27s-1.94,16-3.1,25.6q-.22,1.82-.45,3.66c-.15,1.23-.28,2.5-.54,3.75a43.08,43.08,0,0,1-2.16,7.5A31,31,0,0,1,427,179.13a23.59,23.59,0,0,1-7.37,3.91,76,76,0,0,1-7.87,1.87,87.67,87.67,0,0,1-15.19,1.37A96.83,96.83,0,0,1,371,183a19.14,19.14,0,0,1-4.82-2.09,20.66,20.66,0,0,1-3.74-2.85,28.27,28.27,0,0,1-4.68-5.84,35.72,35.72,0,0,1-2.22-4.19c-.23-.49-.37-.87-.48-1.13a2.7,2.7,0,0,1-.14-.39,3.52,3.52,0,0,1,.19.37c.13.27.3.64.53,1.11a39.88,39.88,0,0,0,2.29,4.12,28.39,28.39,0,0,0,4.71,5.74,20.37,20.37,0,0,0,3.71,2.77,19,19,0,0,0,4.76,2,97.65,97.65,0,0,0,25.46,3.13,87.72,87.72,0,0,0,15.1-1.39,73.56,73.56,0,0,0,7.8-1.87,23,23,0,0,0,7.21-3.82,30.59,30.59,0,0,0,9.23-13.09,43.35,43.35,0,0,0,2.15-7.42c.26-1.23.39-2.47.54-3.71s.31-2.45.46-3.65c1.21-9.63,2.3-18.3,3.22-25.59S444,112.11,444.51,108c.27-2,.48-3.59.63-4.69.07-.51.13-.92.18-1.21A2.78,2.78,0,0,1,445.39,101.69Z" style="fill:#263238"></path><path d="M445.39,103a4.46,4.46,0,0,1-.06,1.19,11.61,11.61,0,0,1-1.11,3.23,22.55,22.55,0,0,1-8.82,8.81,44.35,44.35,0,0,1-8,3.31c-3,.93-6.19,1.85-9.63,2.58a93,93,0,0,1-10.87,1.7,99.16,99.16,0,0,1-11.81.49,107.54,107.54,0,0,1-22.63-2.78c-1.7-.42-3.37-.81-5-1.29s-3.14-.93-4.62-1.43a47.77,47.77,0,0,1-8-3.3,22.08,22.08,0,0,1-5.73-4.31,16.17,16.17,0,0,1-3-4.51,12.74,12.74,0,0,1-.92-3.3,6.63,6.63,0,0,1-.07-1.19,14.22,14.22,0,0,0,1.18,4.4,16.46,16.46,0,0,0,3,4.4,21.77,21.77,0,0,0,5.69,4.19,48.17,48.17,0,0,0,8,3.21c1.48.49,3,1,4.61,1.4s3.25.85,5,1.26a108.74,108.74,0,0,0,22.53,2.73,98.18,98.18,0,0,0,11.75-.48,92.56,92.56,0,0,0,10.82-1.66c3.42-.71,6.62-1.61,9.6-2.52a45,45,0,0,0,8-3.22A22.74,22.74,0,0,0,444,107.3a11.74,11.74,0,0,0,1.18-3.16C445.37,103.38,445.37,103,445.39,103Z" style="fill:#263238"></path></g><g id="freepik--Plate--inject-127"><ellipse cx="245.31" cy="320.97" rx="166.03" ry="100.7" style="fill:#e0e0e0"></ellipse><path d="M245.31,422.17c-91.83,0-166.53-45.4-166.53-101.2s74.7-101.2,166.53-101.2S411.85,265.17,411.85,321,337.14,422.17,245.31,422.17Zm0-201.4c-91.27,0-165.53,45-165.53,100.2S154,421.17,245.31,421.17,410.85,376.22,410.85,321,336.59,220.77,245.31,220.77Z" style="fill:#263238"></path><ellipse cx="244.99" cy="319.86" rx="157.27" ry="93.49" style="fill:#e0e0e0"></ellipse><path d="M245,413.85c-87,0-157.77-42.17-157.77-94s70.77-94,157.77-94,157.77,42.16,157.77,94S332,413.85,245,413.85Zm0-187c-86.45,0-156.77,41.71-156.77,93s70.32,93,156.77,93,156.77-41.72,156.77-93S331.43,226.87,245,226.87Z" style="fill:#263238"></path><g style="opacity:0.30000000000000004"><path d="M245.31,220.11c-91.7,0-166,45.08-166,100.69s74.33,100.7,166,100.7,166-45.08,166-100.7S337,220.11,245.31,220.11ZM245,413.18c-86.86,0-157.27-41.86-157.27-93.49S158.13,226.2,245,226.2s157.27,41.86,157.27,93.49S331.84,413.18,245,413.18Z"></path></g></g><g id="freepik--Bread--inject-127"><path d="M371.08,249.54l-3.22-.76-142.68,11.4a2.06,2.06,0,0,0-1.64,2l-.27,15.12a2.09,2.09,0,0,0,1.38,2c8.71,3.11,55,19.6,58.61,20.74,4,1.25,17.68,6.25,21.49,6.08s13.43-7.37,21.66-15.78c7.32-7.48,36.76-19.86,43.14-22.48a2.09,2.09,0,0,0,1.29-1.83C371,262.37,371.42,252.26,371.08,249.54Z" style="fill:#ffbf9d"></path><path d="M371.08,249.54s-22.69,10.32-32.79,14.67-17.35,11.67-21.63,16.12-6.44,7.45-13.56,7.65-28.64-8.42-39.77-12.92c-10.72-4.33-33.42-12.16-38.67-14a.84.84,0,0,0-1.12.78l0,2.88-.24,14s56,20,60,21.24,17.68,6.25,21.49,6.08,13.43-7.37,21.66-15.78,44.36-23,44.36-23S371.5,252.87,371.08,249.54Z" style="fill:#ff9a6c"></path><path d="M266.17,263.63c-1.15.17-2,.94-1.75,1.67s1.42,1.29,2.6,1.21,2.14-.78,2.07-1.51-1.15-1.39-2.34-1.4" style="fill:#ff9a6c"></path><path d="M333.14,258.06c-1.15.16-2,.93-1.75,1.66s1.42,1.29,2.6,1.21,2.14-.77,2.07-1.51-1.15-1.39-2.34-1.4" style="fill:#ff9a6c"></path><path d="M333.54,254.84c-.67.09-1.14.54-1,1s.83.74,1.51.7,1.23-.45,1.19-.87-.66-.81-1.35-.82" style="fill:#ff9a6c"></path><path d="M319,267.33c-.67.1-1.14.54-1,1a1.52,1.52,0,0,0,1.51.71c.68-.05,1.23-.45,1.19-.88s-.66-.8-1.35-.81" style="fill:#ff9a6c"></path><path d="M260,265.64c-.67.1-1.14.54-1,1a1.53,1.53,0,0,0,1.51.71c.68-.05,1.23-.45,1.19-.88s-.66-.8-1.35-.81" style="fill:#ff9a6c"></path><path d="M224.66,261.1l.4.11,1.17.38,4.49,1.51c3.88,1.33,9.5,3.26,16.42,5.73,3.46,1.24,7.24,2.6,11.28,4.13s8.31,3.3,12.83,5.06,9.28,3.59,14.27,5.32c2.49.87,5,1.69,7.65,2.48a55,55,0,0,0,8.05,1.83,7,7,0,0,0,1,.08c.34,0,.68,0,1,0l1-.06,1-.11a13.66,13.66,0,0,0,3.89-1.1c2.45-1.14,4.29-3.16,6.11-5.06A94.42,94.42,0,0,1,326.49,271,55.37,55.37,0,0,1,338.35,264l11-4.88,15.9-7,4.33-1.9,1.13-.48.39-.15-.37.19-1.11.52-4.3,2-15.85,7.17-11,4.93a55.32,55.32,0,0,0-11.76,7,94.52,94.52,0,0,0-11.1,10.37c-1.81,1.89-3.69,4-6.23,5.15a14,14,0,0,1-4,1.14l-1.05.11-1,.06c-.35,0-.71,0-1.06,0a7.45,7.45,0,0,1-1.06-.08,53.84,53.84,0,0,1-8.12-1.85q-3.93-1.17-7.67-2.49c-5-1.74-9.75-3.57-14.27-5.35s-8.78-3.57-12.81-5.09-7.81-2.92-11.26-4.18l-16.38-5.85-4.46-1.59-1.15-.42Z" style="fill:#263238"></path><path d="M299,283.52a4.35,4.35,0,0,1,.22-1.07c.2-.78.46-1.73.75-2.85.69-2.53,1.58-5.78,2.56-9.39s1.82-6.87,2.49-9.4q.45-1.68.78-2.85a4.94,4.94,0,0,1,.34-1A4.1,4.1,0,0,1,306,258c-.13.68-.34,1.67-.61,2.89-.55,2.43-1.36,5.77-2.35,9.45s-2,7-2.7,9.35c-.38,1.19-.69,2.15-.92,2.81A4.05,4.05,0,0,1,299,283.52Z" style="fill:#ff9a6c"></path><path d="M286.21,255.44c.14.05-1.33,4.6-3.26,10.16s-3.62,10-3.76,10,1.33-4.59,3.27-10.15S286.07,255.4,286.21,255.44Z" style="fill:#ff9a6c"></path><path d="M264.05,258a39.55,39.55,0,0,1-2.37,5.87,38.91,38.91,0,0,1-2.84,5.65,39.07,39.07,0,0,1,2.37-5.87A38.91,38.91,0,0,1,264.05,258Z" style="fill:#ff9a6c"></path><path d="M326.77,254.11a2.7,2.7,0,0,1-.1.66c-.13.55-.26,1.15-.41,1.82-.36,1.53-.88,3.64-1.48,6s-1.18,4.42-1.61,5.94a13.07,13.07,0,0,1-.81,2.42,12.67,12.67,0,0,1,.45-2.52c.35-1.53.86-3.64,1.46-6C325.47,257.78,326.58,254,326.77,254.11Z" style="fill:#ff9a6c"></path><path d="M347,250.9a13.85,13.85,0,0,1-.54,1.47c-.36.91-.88,2.17-1.48,3.56a30.38,30.38,0,0,1-2.39,4.91,27.72,27.72,0,0,1,1.91-5.12C345.7,253,346.82,250.72,347,250.9Z" style="fill:#ff9a6c"></path><path d="M334.28,244.35l-8.25-1.9-68.94-16.39a2.09,2.09,0,0,0-1.11.06c-3.56,1.21-20.17,9.3-27.86,13.47-5.85,3.18-18.16,7.83-25.35,11.27s-16.27,5.75-16.34,6.22v16.64a2.08,2.08,0,0,0,1.38,2l146.14-12.23C334,259.66,334.38,247.11,334.28,244.35Z" style="fill:#ffbf9d"></path><g style="opacity:0.30000000000000004"><path d="M275.44,233.21c-6-1.28-12.15-2.57-18.23-1.73s-11.45,3.63-16.76,6.49q-8.73,4.68-17.29,9.67a2,2,0,0,0-.59,2.9h0c3.4,3,7.68,2.39,11.85.65,4.43-1.84,7.86-5.42,11.61-8.42s8.4-5.54,13.13-4.74c2.44.42,4.64,1.7,7,2.44a32.89,32.89,0,0,0,8,1.11l14.27.81a2.35,2.35,0,0,0,1.32-4.37C285.53,235.49,280.33,234.26,275.44,233.21Z" style="fill:#fff"></path></g><polygon points="191.1 257.08 259.05 252.64 334.25 245.67 333.94 263.49 186.41 275.75 186.43 257.08 191.1 257.08" style="fill:#ff9a6c"></polygon><path d="M226.63,245.72c-1.15.16-2,.94-1.75,1.66s1.42,1.29,2.6,1.22,2.14-.78,2.07-1.51-1.15-1.39-2.34-1.41" style="fill:#ff9a6c"></path><path d="M296.3,254.19c-1.15.16-2,.94-1.75,1.66s1.42,1.29,2.6,1.22,2.14-.78,2.07-1.51-1.15-1.39-2.34-1.41" style="fill:#ff9a6c"></path><path d="M296.69,251c-.66.09-1.13.54-1,1s.82.75,1.5.7,1.24-.45,1.2-.87-.67-.8-1.35-.81" style="fill:#ff9a6c"></path><path d="M282.16,263.46c-.66.1-1.13.55-1,1s.82.74,1.5.7,1.24-.45,1.2-.88-.67-.8-1.35-.81" style="fill:#ff9a6c"></path><path d="M220.49,247.73c-.67.09-1.14.54-1,1s.83.74,1.51.7,1.23-.45,1.2-.87-.67-.81-1.36-.81" style="fill:#ff9a6c"></path><path d="M253,251.79c-.15,0,.52-5.69,1.49-12.67s1.86-12.62,2-12.6-.52,5.69-1.49,12.67S253.16,251.81,253,251.79Z" style="fill:#ff9a6c"></path><path d="M234.94,260.47c-.14,0,.53-5.38,1.49-12s1.86-11.9,2-11.88-.53,5.37-1.49,12S235.08,260.49,234.94,260.47Z" style="fill:#ff9a6c"></path><path d="M211.37,271c-.15,0,.52-5.37,1.49-12s1.86-11.91,2-11.89-.52,5.38-1.49,12S211.51,271,211.37,271Z" style="fill:#ff9a6c"></path><path d="M271.11,255.44c-.14,0,.53-5.38,1.49-12s1.87-11.9,2-11.88-.53,5.37-1.49,12S271.25,255.46,271.11,255.44Z" style="fill:#ff9a6c"></path><path d="M293,260.89c-.14,0,.53-5.37,1.49-11.95s1.86-11.91,2-11.89-.53,5.38-1.49,12S293.11,260.91,293,260.89Z" style="fill:#ff9a6c"></path><path d="M311.11,264.52c-.14,0,.53-5.37,1.5-11.95s1.86-11.91,2-11.89-.52,5.38-1.49,12S311.26,264.54,311.11,264.52Z" style="fill:#ff9a6c"></path><path d="M327.57,246.57a1.71,1.71,0,0,1-.36.06l-1.07.13-4.09.44L307,248.7c-12.72,1.22-30.32,2.78-49.77,4.27s-37.08,2.63-49.85,3.37l-15.12.81-4.11.18-1.07,0h-.37l.37,0,1.06-.09,4.11-.28,15.11-1c12.76-.83,30.38-2,49.83-3.52s37.05-3,49.78-4.11L322,247l4.1-.35,1.07-.07A1.49,1.49,0,0,1,327.57,246.57Z" style="fill:#263238"></path><g style="opacity:0.30000000000000004"><polygon points="223.3 275.75 329.3 265.62 329.3 263.44 223.25 272.69 223.3 275.75"></polygon></g></g><g id="freepik--Beans--inject-127"><path d="M135.26,277.85c-2.25.81-4.7,2.35-4.82,4.73s2,4.06,4,5.28c12.28,7.71,26.59,11.52,40.83,14.27l.28-29.44C163.1,278.27,148.08,273.24,135.26,277.85Z" style="fill:#ae7461"></path><path d="M292.05,303.28c-.77-2.6-23.76-9.42-25.58-11.44L252,275.72c-9.5-10.55-20.12-21.74-34.14-24.05-11.57-1.9-23.43,2.84-32.61,10.14s-22.15,20.7-29,30.24l6.18,4.05c6.22,6.68,14.6,10.95,23.1,14.27,15.72,6.15,33.37,16.61,50.25,17,10.65.24,23,1.11,31.24-5.7C271.09,318.27,293.56,308.37,292.05,303.28Z" style="fill:#ae7461"></path><path d="M217.51,305.53a13.67,13.67,0,0,1-2.08-4.8c-.58-2-.82-4.75-3.73-6.23-1.86-.95-6.74-1.34-8.67,5.33-1,3.07.71,9.58,2.28,12.1a15.6,15.6,0,0,0,5.68,5.7,8.75,8.75,0,0,0,7.84.41,6.14,6.14,0,0,0,3.38-6.73C221.64,309.1,218.76,307.43,217.51,305.53Z" style="fill:#d88873"></path><path d="M202.08,291.25a13.42,13.42,0,0,1,4.49-2.67c1.93-.83,4.61-1.42,5.71-4.49.7-2,.47-6.85-6.39-7.93-3.17-.61-9.41,1.93-11.71,3.8a15.55,15.55,0,0,0-4.94,6.37,8.75,8.75,0,0,0,.6,7.82,6.14,6.14,0,0,0,7.1,2.5C199.05,295.8,200.35,292.74,202.08,291.25Z" style="fill:#d88873"></path><path d="M177.38,297.83a13.62,13.62,0,0,1,3.07-4.24c1.43-1.52,3.66-3.13,3.45-6.38-.13-2.09-2.29-6.48-9-4.74-3.16.69-7.88,5.5-9.24,8.13a15.58,15.58,0,0,0-2,7.8,8.72,8.72,0,0,0,3.65,7,6.16,6.16,0,0,0,7.51-.53C176.41,303.2,176.38,299.88,177.38,297.83Z" style="fill:#d88873"></path><path d="M271.35,312.2a13.82,13.82,0,0,1,4.75,2.21c1.76,1.12,3.76,3,6.92,2.18,2-.52,5.93-3.48,3-9.75-1.28-3-6.9-6.68-9.74-7.53a15.61,15.61,0,0,0-8-.48,8.74,8.74,0,0,0-6.13,4.9A6.14,6.14,0,0,0,264,311C265.89,312.27,269.15,311.61,271.35,312.2Z" style="fill:#d88873"></path><path d="M230.45,284.86a13.51,13.51,0,0,1-2.83-4.41c-.89-1.89-1.57-4.55-4.68-5.54-2-.64-6.87-.23-7.7,6.66-.51,3.19,2.24,9.34,4.2,11.57a15.64,15.64,0,0,0,6.53,4.71,8.76,8.76,0,0,0,7.8-.86A6.16,6.16,0,0,0,236,289.8C235.1,287.72,232,286.53,230.45,284.86Z" style="fill:#d88873"></path><path d="M243.74,312.4a13.56,13.56,0,0,1,4.74,2.2c1.77,1.13,3.77,3,6.92,2.19,2-.53,5.93-3.48,3-9.75-1.28-3-6.89-6.69-9.74-7.53a15.6,15.6,0,0,0-8-.49,8.79,8.79,0,0,0-6.13,4.9,6.16,6.16,0,0,0,1.94,7.28C238.28,312.47,241.53,311.81,243.74,312.4Z" style="fill:#d88873"></path><path d="M252,281a13.68,13.68,0,0,1-3.1-4.22c-1-1.84-1.85-4.45-5-5.25-2-.52-6.87.19-7.28,7.12-.31,3.21,2.82,9.18,4.9,11.29a15.59,15.59,0,0,0,6.81,4.3,8.73,8.73,0,0,0,7.73-1.34,6.14,6.14,0,0,0,1.81-7.3C256.8,283.54,253.63,282.55,252,281Z" style="fill:#d88873"></path><path d="M219.54,269.17a13.36,13.36,0,0,1,5,1.4c1.93.82,4.21,2.35,7.19,1,1.91-.85,5.28-4.4,1.32-10.1-1.75-2.72-7.89-5.48-10.83-5.85a15.71,15.71,0,0,0-8,.83,8.8,8.8,0,0,0-5.25,5.83,6.17,6.17,0,0,0,3.1,6.87C214.17,270.12,217.27,268.94,219.54,269.17Z" style="fill:#d88873"></path><g style="opacity:0.30000000000000004"><path d="M204.14,278.57c0,.75-3.33,1.44-6.59,3.84s-5,5.31-5.73,5c-.31-.13-.29-1.12.34-2.54a11.84,11.84,0,0,1,3.87-4.6,11.72,11.72,0,0,1,5.59-2.21C203.17,277.94,204.12,278.24,204.14,278.57Z" style="fill:#fff"></path></g><g style="opacity:0.30000000000000004"><path d="M212.1,266.7c-.26.23-.95,0-1.58-.87a5,5,0,0,1,2.13-7.24c1-.4,1.7-.21,1.8.12s-.3.79-.75,1.39a6.39,6.39,0,0,0-1.48,5C212.28,265.88,212.38,266.47,212.1,266.7Z" style="fill:#fff"></path></g><g style="opacity:0.30000000000000004"><path d="M219.06,288.62c-.25.23-1.11-.14-1.94-1.33a7.5,7.5,0,0,1,1.85-10.2c1.21-.82,2.14-.86,2.29-.56s-.36.94-1,1.89a9.18,9.18,0,0,0-1.47,8.08C219.05,287.62,219.34,288.37,219.06,288.62Z" style="fill:#fff"></path></g><g style="opacity:0.30000000000000004"><path d="M205.16,300.69c-.35,0-.72-.4-.82-1.17a4.34,4.34,0,0,1,3.23-4.49c.77-.15,1.28.06,1.38.4s-.15.75-.49,1.21-.81,1.07-1.2,1.57l-1.11,1.64C205.83,300.31,205.52,300.68,205.16,300.69Z" style="fill:#fff"></path></g><g style="opacity:0.30000000000000004"><path d="M172.28,285.49c-.2-.29-.11-.78.35-1.28a4.2,4.2,0,0,1,4.74-.79c.59.33.84.77.74,1.1-.25.69-1.49.87-2.81,1.11S172.74,286.06,172.28,285.49Z" style="fill:#fff"></path></g><g style="opacity:0.30000000000000004"><path d="M238.91,281.7c-.34.1-.8-.28-1.22-1.06a6,6,0,0,1-.6-3.47,4.76,4.76,0,0,1,1.78-3.28c.82-.6,1.51-.56,1.68-.26s-.05.81-.27,1.44a10.49,10.49,0,0,0-.61,2.42C239.45,279.44,239.65,281.5,238.91,281.7Z" style="fill:#fff"></path></g><g style="opacity:0.30000000000000004"><path d="M236.19,308.66c-.32.13-.87-.27-1.24-1.2a5.49,5.49,0,0,1,2.72-6.68c.92-.41,1.59-.31,1.73,0,.27.67-1.2,1.91-1.93,3.8S236.85,308.37,236.19,308.66Z" style="fill:#fff"></path></g><g style="opacity:0.30000000000000004"><path d="M263.76,308.3c-.28.21-.92,0-1.45-.92a4.54,4.54,0,0,1,2.73-6.5c1-.23,1.63.05,1.67.39s-.35.74-.82,1.25a6.54,6.54,0,0,0-1.36,2,6.79,6.79,0,0,0-.46,2.35C264,307.53,264.06,308.09,263.76,308.3Z" style="fill:#fff"></path></g><path d="M211.92,280.89s.08.08.19.25a2.88,2.88,0,0,1,.33.85,4.52,4.52,0,0,1-.62,3.24,8.66,8.66,0,0,1-3.8,3.08,24.84,24.84,0,0,0-5.18,2.73c-1.57,1.31-2.53,3.14-3.88,4.44a6.23,6.23,0,0,1-2.23,1.47,5.08,5.08,0,0,1-2.31.25,5.39,5.39,0,0,1-3-1.31,3.7,3.7,0,0,1-.61-.67q-.17-.25-.15-.27s.29.32.89.79a5.57,5.57,0,0,0,2.93,1.1,5,5,0,0,0,2.13-.3,5.62,5.62,0,0,0,2-1.4c1.27-1.25,2.21-3.09,3.89-4.5a23.66,23.66,0,0,1,5.3-2.76,8.59,8.59,0,0,0,3.7-2.84,4.55,4.55,0,0,0,.73-3A9,9,0,0,0,211.92,280.89Z" style="fill:#263238"></path><path d="M215.62,301.19a6,6,0,0,1-.69-1.53,12.44,12.44,0,0,0-1.94-3.42,5.64,5.64,0,0,0-3.28-1.91,13.24,13.24,0,0,0-1.63,0,2.33,2.33,0,0,1,1.67-.35,5.46,5.46,0,0,1,3.64,1.93,10.06,10.06,0,0,1,1.88,3.64A4.76,4.76,0,0,1,215.62,301.19Z" style="fill:#263238"></path><path d="M235.6,294.94s-.11.23-.4.58a7.81,7.81,0,0,1-1.41,1.27,9.35,9.35,0,0,1-11.72-.66,8,8,0,0,1-1.26-1.43c-.25-.37-.35-.59-.32-.61s.61.78,1.82,1.76a9.56,9.56,0,0,0,11.28.63C234.9,295.65,235.53,294.87,235.6,294.94Z" style="fill:#263238"></path><path d="M258.9,287.65a2.51,2.51,0,0,1,.13,1,6.36,6.36,0,0,1-.61,2.58,7.41,7.41,0,0,1-2.57,3,8.3,8.3,0,0,1-4.62,1.36,10.5,10.5,0,0,1-4.69-1.12,12.86,12.86,0,0,1-3.18-2.3,13.61,13.61,0,0,1-1.71-2,3.4,3.4,0,0,1-.49-.84c.08,0,.83,1.1,2.45,2.58a13.63,13.63,0,0,0,3.14,2.13,10.36,10.36,0,0,0,4.47,1,8.18,8.18,0,0,0,4.37-1.24,7.46,7.46,0,0,0,2.5-2.75A8.14,8.14,0,0,0,258.9,287.65Z" style="fill:#263238"></path><path d="M259,310.25c-.1,0-.41-1.33-1.47-3.24a15.76,15.76,0,0,0-14-8.21c-2.19,0-3.52.4-3.54.3a3.08,3.08,0,0,1,.92-.3,13.35,13.35,0,0,1,2.62-.37,15.29,15.29,0,0,1,14.34,8.4,13.51,13.51,0,0,1,1,2.46A3.24,3.24,0,0,1,259,310.25Z" style="fill:#263238"></path><path d="M233.43,270.75a2.11,2.11,0,0,1-.68.73,5.17,5.17,0,0,1-2.56,1,9.53,9.53,0,0,1-4-.48c-1.45-.47-2.95-1.2-4.58-1.71a10.53,10.53,0,0,0-2.41-.49,19.9,19.9,0,0,0-2.33.05,11.47,11.47,0,0,1-4-.2,4.5,4.5,0,0,1-2.32-1.45,1.8,1.8,0,0,1-.45-.9s.18.32.6.77a4.69,4.69,0,0,0,2.27,1.22,11.63,11.63,0,0,0,3.91.08,16.93,16.93,0,0,1,2.39-.07,9.92,9.92,0,0,1,2.54.49c1.68.53,3.17,1.28,4.57,1.75a9.74,9.74,0,0,0,3.84.58,5.42,5.42,0,0,0,2.48-.76C233.15,271,233.39,270.71,233.43,270.75Z" style="fill:#263238"></path><path d="M191.52,262.81a13.84,13.84,0,0,1-4.85,2c-2,.52-4.76.7-6.31,3.57-1,1.84-1.5,6.71,5.12,8.8,3,1.09,9.59-.48,12.15-2a15.57,15.57,0,0,0,5.84-5.55,8.76,8.76,0,0,0,.59-7.82,6.13,6.13,0,0,0-6.64-3.54C195.2,258.77,193.46,261.6,191.52,262.81Z" style="fill:#d88873"></path><g style="opacity:0.30000000000000004"><path d="M183.19,268.69a1.86,1.86,0,0,1,.07,1.07,5.76,5.76,0,0,1-.26,1.07,5.65,5.65,0,0,1-.45,1,1.84,1.84,0,0,1-.71.8c-.31.15-.76,0-1.1-.47a2.66,2.66,0,0,1,1.3-3.77C182.61,268.2,183,268.38,183.19,268.69Z" style="fill:#fff"></path></g><g style="opacity:0.30000000000000004"><path d="M196.3,260.83c.3.18.38.71.15,1.43a5.56,5.56,0,0,1-1.59,2.36,5.64,5.64,0,0,1-2.49,1.36c-.74.15-1.27,0-1.42-.3-.28-.67.85-1.78,2.16-3S195.65,260.49,196.3,260.83Z" style="fill:#fff"></path></g><path d="M202.34,271.2a2.25,2.25,0,0,1-.43.58,12.16,12.16,0,0,1-1.4,1.39,18.15,18.15,0,0,1-5.63,3.23,17.77,17.77,0,0,1-6.42,1,13.31,13.31,0,0,1-2-.19c-.46-.09-.71-.15-.7-.19s1,0,2.66,0a20.12,20.12,0,0,0,11.82-4.17C201.57,271.88,202.27,271.14,202.34,271.2Z" style="fill:#263238"></path><path d="M152,271.52a13.54,13.54,0,0,1-4.85,2c-2,.53-4.76.71-6.31,3.58-1,1.84-1.5,6.71,5.12,8.8,3,1.08,9.59-.49,12.15-2a15.62,15.62,0,0,0,5.83-5.55,8.75,8.75,0,0,0,.6-7.83,6.17,6.17,0,0,0-6.65-3.54C155.66,267.48,153.92,270.32,152,271.52Z" style="fill:#d88873"></path><g style="opacity:0.30000000000000004"><path d="M143.66,277.41a1.85,1.85,0,0,1,.06,1.07,5.92,5.92,0,0,1-.25,1.07,5.59,5.59,0,0,1-.46,1,1.91,1.91,0,0,1-.7.81c-.32.15-.77,0-1.11-.47a2.67,2.67,0,0,1,1.3-3.78C143.08,276.92,143.51,277.1,143.66,277.41Z" style="fill:#fff"></path></g><g style="opacity:0.30000000000000004"><path d="M156.76,269.55c.31.17.39.71.16,1.43a5.62,5.62,0,0,1-1.59,2.36,5.72,5.72,0,0,1-2.5,1.36c-.74.15-1.26,0-1.41-.3-.28-.67.85-1.78,2.16-3S156.12,269.2,156.76,269.55Z" style="fill:#fff"></path></g><path d="M162.8,279.91s-.12.23-.42.59a12.48,12.48,0,0,1-1.41,1.38,17.92,17.92,0,0,1-12,4.26,11.62,11.62,0,0,1-2-.2,2,2,0,0,1-.7-.18c0-.09,1,.05,2.66,0a20.06,20.06,0,0,0,11.81-4.17C162,280.6,162.74,279.85,162.8,279.91Z" style="fill:#263238"></path><path d="M166.15,261.69a15.27,15.27,0,0,1,5.45.84c2.1.6,4.67,1.86,7.64.24,1.9-1,5-4.88.23-10-2.14-2.48-8.9-4.53-12-4.57a17.37,17.37,0,0,0-8.3,1.67,8.69,8.69,0,0,0-4.84,6.28,6,6,0,0,0,4,6.39C160.63,263.21,163.75,261.72,166.15,261.69Z" style="fill:#d88873"></path><g style="opacity:0.30000000000000004"><path d="M176.88,261a1.72,1.72,0,0,1,.53-.94,7.22,7.22,0,0,1,.87-.78,6.45,6.45,0,0,1,.95-.59,1.93,1.93,0,0,1,1-.3c.35,0,.67.38.67,1a2.6,2.6,0,0,1-1.08,2,2.64,2.64,0,0,1-2.14.52C177.12,261.74,176.85,261.37,176.88,261Z" style="fill:#fff"></path></g><g style="opacity:0.30000000000000004"><path d="M160.77,260.9c-.16-.31.09-.81.69-1.31a6.18,6.18,0,0,1,2.72-1.16c2.34-.42,4.18.44,4.06,1.14s-1.73,1.08-3.6,1.42S161.12,261.54,160.77,260.9Z" style="fill:#fff"></path></g><path d="M161,249.07a2.2,2.2,0,0,1,.71-.27,13.18,13.18,0,0,1,2-.44,20,20,0,0,1,6.79.16,19.59,19.59,0,0,1,6.35,2.42,14.19,14.19,0,0,1,1.69,1.19c.37.31.56.5.54.53s-.9-.58-2.41-1.4a22.26,22.26,0,0,0-6.27-2.23,23.29,23.29,0,0,0-6.64-.31C162.09,248.9,161.06,249.16,161,249.07Z" style="fill:#263238"></path></g><g id="freepik--Tomatoes--inject-127"><path d="M330.1,338.71c-13.73,1.12-39.51,15.53-17.73,36.12s51.26,3.81,54.25-10.36C369,353.3,355.68,336.63,330.1,338.71Z" style="fill:#FF725E"></path><g style="opacity:0.30000000000000004"><path d="M330.1,338.71c-13.73,1.12-39.51,15.53-17.73,36.12s51.26,3.81,54.25-10.36C369,353.3,355.68,336.63,330.1,338.71Z"></path></g><path d="M330.1,336.31c-13.73,1.12-39.51,15.53-17.73,36.12s51.26,3.81,54.25-10.36C369,350.9,355.68,334.24,330.1,336.31Z" style="fill:#FF725E"></path><g style="opacity:0.30000000000000004"><path d="M313.37,352c-1.49-1.56,1.78-8.47,13.32-11.35s20.19,1.19,19.3,2.54-2.44,8.14-13.54,10C322.1,354.94,315.15,353.88,313.37,352Z"></path></g><g style="opacity:0.30000000000000004"><path d="M353.53,349c1.67-.7,11.76,7.29,6.66,15.08s-11.76,12.54-16.42,11-6.21-10-2.66-16S351.54,349.81,353.53,349Z"></path></g><g style="opacity:0.30000000000000004"><path d="M310.05,357.44c1.05-1.49,14.17-1.91,20.41,1.65s8.57,15.23,6.8,17.42-15.46-1.28-20.78-5.35S308.49,359.64,310.05,357.44Z"></path></g><path d="M317.59,346.87c-1.93,1.34,3.77,6.16,4.66,5S319.14,345.79,317.59,346.87Z" style="fill:#FF725E"></path><path d="M323.72,343.54c-1.1.29,1.63,9.35,4.3,8.49S325.64,343,323.72,343.54Z" style="fill:#FF725E"></path><path d="M331.12,342c-1.11.34.23,6,2.44,5.78S332.23,341.68,331.12,342Z" style="fill:#FF725E"></path><path d="M339.16,341.34c-2.66,0-2.24,7.85,0,8S342.82,341.34,339.16,341.34Z" style="fill:#FF725E"></path><path d="M324.1,359.79c-.4-1-10.88,0-10,2.07S325,361.9,324.1,359.79Z" style="fill:#FF725E"></path><path d="M332.26,366.86c1.27.18,1,8.1-2,7.1S331,366.68,332.26,366.86Z" style="fill:#FF725E"></path><path d="M328.78,363.27c1.23.73-5.47,8.69-9,7S327.54,362.54,328.78,363.27Z" style="fill:#FF725E"></path><path d="M347,358.11c.37-1.86,11.76.07,11,1.86S346.55,360.57,347,358.11Z" style="fill:#FF725E"></path><path d="M349,355c.67,1.14,7.95-.1,7.1-1.66S348.3,353.83,349,355Z" style="fill:#FF725E"></path><path d="M344.33,361.15c-.51.61,7.56,5.65,8.17,4.18S345.6,359.64,344.33,361.15Z" style="fill:#FF725E"></path><path d="M341.41,363.35c-1.79.84.68,7.58,2.74,7.12S344,362.15,341.41,363.35Z" style="fill:#FF725E"></path><path d="M328.2,337.47c0,.06-1.31.26-3.34.83a34.55,34.55,0,0,0-3.44,1.21,32,32,0,0,0-3.86,2,28.13,28.13,0,0,0-3.36,2.44,23.64,23.64,0,0,0-2.3,2.3c-1.18,1.38-1.73,2.33-1.8,2.3a2.62,2.62,0,0,1,.34-.67,7.19,7.19,0,0,1,.49-.77,11.18,11.18,0,0,1,.73-1,19.2,19.2,0,0,1,2.26-2.37,26.26,26.26,0,0,1,3.38-2.5,30.15,30.15,0,0,1,3.94-2,28.13,28.13,0,0,1,3.52-1.16c.51-.15,1-.24,1.41-.33a10.88,10.88,0,0,1,1.09-.2A6.25,6.25,0,0,1,328.2,337.47Z" style="fill:#fff"></path><path d="M342,338.19c0,.09-1.4-.23-3.11-.41s-3.14-.16-3.15-.25a9.39,9.39,0,0,1,3.2-.06A9.13,9.13,0,0,1,342,338.19Z" style="fill:#fff"></path><path d="M343.7,351.69a17.39,17.39,0,0,1-4.32,1.7,19.05,19.05,0,0,1-4.72.86c0-.1,2.09-.45,4.58-1.16S343.64,351.61,343.7,351.69Z" style="fill:#fff"></path><path d="M356.08,281.39c-13.73,1.11-39.51,15.53-17.72,36.12s51.25,3.81,54.24-10.37C395,296,381.66,279.31,356.08,281.39Z" style="fill:#FF725E"></path><g style="opacity:0.30000000000000004"><path d="M356.08,281.39c-13.73,1.11-39.51,15.53-17.72,36.12s51.25,3.81,54.24-10.37C395,296,381.66,279.31,356.08,281.39Z"></path></g><path d="M356.08,279c-13.73,1.12-39.51,15.53-17.72,36.12s51.25,3.81,54.24-10.36C395,293.58,381.66,276.91,356.08,279Z" style="fill:#FF725E"></path><g style="opacity:0.30000000000000004"><path d="M339.35,294.69c-1.48-1.56,1.78-8.47,13.32-11.35s20.19,1.18,19.3,2.54-2.44,8.13-13.53,10C348.08,297.62,341.13,296.56,339.35,294.69Z"></path></g><g style="opacity:0.30000000000000004"><path d="M379.51,291.64c1.67-.71,11.76,7.29,6.66,15.08s-11.76,12.54-16.42,11-6.21-10-2.66-16S377.52,292.49,379.51,291.64Z"></path></g><g style="opacity:0.30000000000000004"><path d="M336,300.11c1.05-1.49,14.17-1.9,20.41,1.66s8.58,15.22,6.8,17.42-15.45-1.29-20.78-5.35S334.47,302.32,336,300.11Z"></path></g><path d="M343.57,289.55c-1.93,1.34,3.77,6.16,4.66,5S345.12,288.47,343.57,289.55Z" style="fill:#FF725E"></path><path d="M349.7,286.22c-1.1.29,1.64,9.35,4.3,8.49S351.62,285.71,349.7,286.22Z" style="fill:#FF725E"></path><path d="M357.1,284.69c-1.1.34.23,6,2.44,5.79S358.21,284.36,357.1,284.69Z" style="fill:#FF725E"></path><path d="M365.14,284c-2.65,0-2.24,7.85,0,8S368.8,284,365.14,284Z" style="fill:#FF725E"></path><path d="M350.08,302.46c-.4-1-10.87,0-10,2.08S350.93,304.57,350.08,302.46Z" style="fill:#FF725E"></path><path d="M358.25,309.54c1.26.18,1,8.1-2,7.1S357,309.36,358.25,309.54Z" style="fill:#FF725E"></path><path d="M354.76,306c1.24.73-5.47,8.69-9,7S353.52,305.22,354.76,306Z" style="fill:#FF725E"></path><path d="M373,300.79c.37-1.86,11.76.06,11,1.85S372.53,303.25,373,300.79Z" style="fill:#FF725E"></path><path d="M375,297.65c.67,1.14,7.95-.1,7.1-1.66S374.28,296.51,375,297.65Z" style="fill:#FF725E"></path><path d="M370.31,303.83c-.51.6,7.56,5.64,8.17,4.17S371.58,302.32,370.31,303.83Z" style="fill:#FF725E"></path><path d="M367.39,306c-1.79.85.69,7.58,2.74,7.13S369.94,304.82,367.39,306Z" style="fill:#FF725E"></path><path d="M354.18,280.14c0,.06-1.31.26-3.34.84a32.18,32.18,0,0,0-3.44,1.21,29.35,29.35,0,0,0-3.86,2,28.13,28.13,0,0,0-3.36,2.44,22.57,22.57,0,0,0-2.3,2.3c-1.18,1.38-1.73,2.32-1.8,2.3a2.75,2.75,0,0,1,.34-.68,8.37,8.37,0,0,1,.49-.76,11.18,11.18,0,0,1,.73-1,18.52,18.52,0,0,1,2.26-2.37,24.51,24.51,0,0,1,3.38-2.5,29.53,29.53,0,0,1,3.94-2,28.31,28.31,0,0,1,3.52-1.17c.52-.15,1-.23,1.42-.32a10.26,10.26,0,0,1,1.08-.2A5.7,5.7,0,0,1,354.18,280.14Z" style="fill:#fff"></path><path d="M368,280.87c0,.08-1.39-.23-3.11-.41s-3.14-.16-3.15-.25a9.39,9.39,0,0,1,3.2-.06A8.59,8.59,0,0,1,368,280.87Z" style="fill:#fff"></path><path d="M369.68,294.37a17.62,17.62,0,0,1-4.32,1.69,19,19,0,0,1-4.72.86c0-.09,2.09-.44,4.58-1.15S369.62,294.28,369.68,294.37Z" style="fill:#fff"></path><path d="M291.27,353c-13.74,1.11-39.51,15.53-17.73,36.12s51.25,3.81,54.25-10.37C330.15,367.59,316.84,350.93,291.27,353Z" style="fill:#FF725E"></path><g style="opacity:0.30000000000000004"><path d="M291.27,353c-13.74,1.11-39.51,15.53-17.73,36.12s51.25,3.81,54.25-10.37C330.15,367.59,316.84,350.93,291.27,353Z"></path></g><path d="M291.27,350.61c-13.74,1.12-39.51,15.53-17.73,36.12s51.25,3.81,54.25-10.36C330.15,365.2,316.84,348.53,291.27,350.61Z" style="fill:#FF725E"></path><g style="opacity:0.30000000000000004"><path d="M274.54,366.31c-1.49-1.56,1.77-8.47,13.31-11.35s20.19,1.18,19.31,2.54-2.45,8.13-13.54,10C283.26,369.24,276.31,368.17,274.54,366.31Z"></path></g><g style="opacity:0.30000000000000004"><path d="M314.7,363.26c1.67-.71,11.76,7.29,6.65,15.08s-11.76,12.54-16.41,11-6.22-10-2.67-16S312.7,364.11,314.7,363.26Z"></path></g><g style="opacity:0.30000000000000004"><path d="M271.21,371.73c1.05-1.49,14.17-1.9,20.41,1.66s8.58,15.22,6.81,17.42-15.46-1.29-20.79-5.35S269.66,373.94,271.21,371.73Z"></path></g><path d="M278.75,361.16c-1.93,1.35,3.78,6.17,4.66,5S280.31,360.09,278.75,361.16Z" style="fill:#FF725E"></path><path d="M284.89,357.84c-1.11.29,1.63,9.35,4.29,8.49S286.8,357.33,284.89,357.84Z" style="fill:#FF725E"></path><path d="M292.29,356.31c-1.11.34.22,6,2.44,5.79S293.4,356,292.29,356.31Z" style="fill:#FF725E"></path><path d="M300.33,355.64c-2.66,0-2.25,7.85,0,8S304,355.64,300.33,355.64Z" style="fill:#FF725E"></path><path d="M285.26,374.08c-.39-1-10.87,0-10,2.08S286.11,376.19,285.26,374.08Z" style="fill:#FF725E"></path><path d="M293.43,381.16c1.26.18,1,8.1-2,7.1S292.17,381,293.43,381.16Z" style="fill:#FF725E"></path><path d="M289.94,377.57c1.24.73-5.47,8.69-9,7S288.7,376.84,289.94,377.57Z" style="fill:#FF725E"></path><path d="M308.2,372.41c.37-1.86,11.76.06,11,1.85S307.71,374.87,308.2,372.41Z" style="fill:#FF725E"></path><path d="M310.13,369.27c.67,1.14,7.95-.1,7.11-1.66S309.47,368.13,310.13,369.27Z" style="fill:#FF725E"></path><path d="M305.49,375.45c-.51.6,7.57,5.64,8.17,4.17S306.76,373.94,305.49,375.45Z" style="fill:#FF725E"></path><path d="M302.57,377.64c-1.79.85.69,7.58,2.74,7.13S305.13,376.44,302.57,377.64Z" style="fill:#FF725E"></path><path d="M289.36,351.76c0,.06-1.31.26-3.33.84a32.28,32.28,0,0,0-3.45,1.21,31.1,31.1,0,0,0-3.85,2,27.63,27.63,0,0,0-3.36,2.45,20.69,20.69,0,0,0-2.3,2.3c-1.19,1.38-1.73,2.32-1.81,2.3a3.12,3.12,0,0,1,.35-.68,6.38,6.38,0,0,1,.48-.76c.21-.29.43-.63.73-1a19.24,19.24,0,0,1,2.26-2.37,25.27,25.27,0,0,1,3.39-2.5,28.08,28.08,0,0,1,7.46-3.14c.51-.15,1-.23,1.41-.32a10.75,10.75,0,0,1,1.08-.2A5.81,5.81,0,0,1,289.36,351.76Z" style="fill:#fff"></path><path d="M303.15,352.49c0,.08-1.4-.23-3.12-.41s-3.13-.16-3.14-.25a9.36,9.36,0,0,1,3.2-.06A8.59,8.59,0,0,1,303.15,352.49Z" style="fill:#fff"></path><path d="M304.86,366a17.22,17.22,0,0,1-4.31,1.69,19.12,19.12,0,0,1-4.72.86c0-.09,2.09-.44,4.57-1.15S304.8,365.9,304.86,366Z" style="fill:#fff"></path></g><g id="freepik--Egg--inject-127"><path d="M232.43,320.13c-2.58-5.07-8.48-7.57-14.11-8.38s-11.41-.35-17-1.48c-8.73-1.77-16.15-7.24-23.94-11.56A99,99,0,0,0,111,288.26c-8.33,1.63-16.73,4.52-22.89,10.37s-9.57,15.19-6.53,23.12h0c3.66,9.4,9.25,12.57,15.58,17.11A116.34,116.34,0,0,0,208.76,352.2c8.69-3.53,17.35-8.48,22.13-16.54C233.66,331,234.89,325,232.43,320.13Z" style="fill:#fff"></path><path d="M232.43,320.13s.15.28.42.85a12.24,12.24,0,0,1,.77,2.66A17.47,17.47,0,0,1,231.88,334a31.93,31.93,0,0,1-11.35,12.29c-5.48,3.68-12.46,6.61-20.33,9.14a116.2,116.2,0,0,1-89.81-8.1c-2.64-1.39-5.24-2.91-7.81-4.52s-5.07-3.38-7.56-5.16a53.47,53.47,0,0,1-7.3-5.79,27.09,27.09,0,0,1-5.42-7.73A18.88,18.88,0,0,1,80.17,315a22.37,22.37,0,0,1,2.28-9,25.92,25.92,0,0,1,5.4-7.44,33.41,33.41,0,0,1,7.37-5.24,57.28,57.28,0,0,1,16.67-5.41,98.35,98.35,0,0,1,16.74-1.61,99.55,99.55,0,0,1,30.66,4.55,104.5,104.5,0,0,1,24.49,11.44,90.27,90.27,0,0,0,10.37,5.56,35,35,0,0,0,10.06,2.79c3.25.4,6.31.43,9.12.6a41.33,41.33,0,0,1,7.64,1,18.89,18.89,0,0,1,9.33,4.94,16,16,0,0,1,1,1.22c.25.39.48.7.64,1,.3.55.44.84.44.84a13.36,13.36,0,0,0-2.21-3,19,19,0,0,0-9.29-4.81,41.2,41.2,0,0,0-7.61-.94c-2.81-.16-5.87-.17-9.15-.56A34.91,34.91,0,0,1,194,308.08a90.56,90.56,0,0,1-10.43-5.54,104.27,104.27,0,0,0-24.43-11.35,99.42,99.42,0,0,0-30.53-4.48A98.36,98.36,0,0,0,112,288.33a56.78,56.78,0,0,0-16.52,5.37,32.83,32.83,0,0,0-7.26,5.16,25.41,25.41,0,0,0-5.28,7.3A21.87,21.87,0,0,0,80.69,315a18.23,18.23,0,0,0,2.08,8.94,26.31,26.31,0,0,0,5.32,7.59,52.43,52.43,0,0,0,7.22,5.74c2.51,1.79,5,3.53,7.55,5.15s5.15,3.11,7.77,4.5a116.49,116.49,0,0,0,89.46,8.2c7.85-2.51,14.82-5.4,20.28-9a31.67,31.67,0,0,0,11.32-12.13,17.46,17.46,0,0,0,1.83-10.28,13,13,0,0,0-.72-2.66C232.55,320.43,232.43,320.13,232.43,320.13Z" style="fill:#263238"></path><path d="M184.18,321.14a34.38,34.38,0,0,0-60.6,1.39,5.69,5.69,0,0,0,2.29,7.59c16.53,9.11,38.53,10.32,55.09,1.67,1.89-1,3.86-2.25,4.54-4.27S185.29,323.09,184.18,321.14Z" style="fill:#FF725E"></path><g style="opacity:0.30000000000000004"><path d="M173.32,325.4a10.35,10.35,0,0,0-4,.73,37.4,37.4,0,0,1-25.65-1.62c-2-.87-4.12-2.32-4.1-4.47a7.2,7.2,0,0,1,1-3,4.14,4.14,0,0,0,.51-3c-.34-1-1.71-1.65-2.49-.94a31.38,31.38,0,0,0-7.5,6.59c-1.72,2.08-2.52,5.16-1.22,7.52a8.77,8.77,0,0,0,4.24,3.4c7.91,3.64,16.94,3.61,25.65,3.51,5-.06,10.44-.24,14.53-3.18,1-.75,2-1.84,1.91-3.1A3.05,3.05,0,0,0,173.32,325.4Z" style="fill:#fff"></path></g><g style="opacity:0.8"><path d="M150.5,306a7.06,7.06,0,0,1-1.24.28c-.41.07-.9.17-1.46.32s-1.21.28-1.9.51-1.46.45-2.26.77-1.64.67-2.52,1.06A34.24,34.24,0,0,0,131,316.25c-.65.72-1.28,1.38-1.8,2.06s-1,1.31-1.44,1.91-.76,1.16-1.08,1.64-.56.93-.76,1.29a8.15,8.15,0,0,1-.65,1.09,7.37,7.37,0,0,1,.51-1.17,13.7,13.7,0,0,1,.7-1.32c.3-.51.61-1.1,1-1.7s.86-1.28,1.41-1.95,1.15-1.38,1.79-2.11a36.19,36.19,0,0,1,4.76-4.19,34.89,34.89,0,0,1,5.47-3.2c.89-.39,1.74-.77,2.56-1s1.59-.53,2.3-.73,1.36-.33,1.93-.46a14.28,14.28,0,0,1,1.48-.25A7.93,7.93,0,0,1,150.5,306Z" style="fill:#fff"></path></g><g style="opacity:0.8"><path d="M158.22,306.14a7.47,7.47,0,0,1-2-.06,7.67,7.67,0,0,1-2-.16,3.6,3.6,0,0,1,2-.25A3.78,3.78,0,0,1,158.22,306.14Z" style="fill:#fff"></path></g><path d="M205.3,325.52a9,9,0,0,1-1.37.56c-.89.32-2.18.81-3.76,1.44a106.51,106.51,0,0,0-12,5.66,107.78,107.78,0,0,0-11.2,7.14c-1.37,1-2.48,1.83-3.23,2.41a7.92,7.92,0,0,1-1.2.86,8.33,8.33,0,0,1,1.08-1c.71-.64,1.78-1.51,3.13-2.56A89.69,89.69,0,0,1,200,327.18c1.61-.59,2.92-1,3.84-1.29A6.63,6.63,0,0,1,205.3,325.52Z" style="fill:#263238"></path><path d="M145.72,356.41l-.23,0-.7-.1c-.61-.1-1.51-.22-2.66-.44a93.23,93.23,0,0,1-9.62-2.39,97.55,97.55,0,0,1-29.16-14.57c-5.15-3.76-9.79-7.89-12.9-12.53A27.34,27.34,0,0,1,87,319.27a22.7,22.7,0,0,1-.93-6.81A17.57,17.57,0,0,1,88.89,303a11,11,0,0,1,1-1.25,7.23,7.23,0,0,1,.78-.83l.51-.48c.12-.11.18-.16.19-.15a22.32,22.32,0,0,0-2.26,2.82,17.72,17.72,0,0,0-2.64,9.33,22.63,22.63,0,0,0,1,6.68,27.43,27.43,0,0,0,3.46,6.94c3.08,4.56,7.68,8.64,12.81,12.38a100.17,100.17,0,0,0,29,14.64c4,1.26,7.27,2,9.55,2.54,1.14.26,2,.41,2.64.54l.68.15C145.65,356.38,145.73,356.4,145.72,356.41Z" style="fill:#263238"></path></g><g id="freepik--Bacon--inject-127"><path d="M202.27,327c-.25.65,9.07,35.07,9.07,35.07s23.36,5.79,34.43,2.86,43.6-14.46,51.3-15.72,30.55-.62,41.72.71,23.64,1.19,30.67-1.56l.17-1.89-14.79-29.11a107.61,107.61,0,0,1-25.66-.47c-14.66-1.93-34.34-3.08-50.36,3.65s-24.31,8.26-30.8,9c-6.1.68-41.34-4.06-45.58-4.4Z" style="fill:#FF725E"></path><g style="opacity:0.30000000000000004"><path d="M202.27,327c-.25.65,9.07,35.07,9.07,35.07s23.36,5.79,34.43,2.86,43.6-14.46,51.3-15.72,30.55-.62,41.72.71,23.64,1.19,30.67-1.56l.17-1.89-14.79-29.11a107.61,107.61,0,0,1-25.66-.47c-14.66-1.93-34.34-3.08-50.36,3.65s-24.31,8.26-30.8,9c-6.1.68-41.34-4.06-45.58-4.4Z"></path></g><path d="M202.44,325.11c-.25.65,9.07,35.06,9.07,35.06S234.86,366,245.94,363s43.6-14.46,51.29-15.71,30.56-.62,41.72.71,23.65,1.18,30.68-1.57l-14.62-31a108.25,108.25,0,0,1-25.66-.47c-14.66-1.94-34.34-3.08-50.36,3.65s-24.31,8.25-30.81,9S202.44,325.11,202.44,325.11Z" style="fill:#FF725E"></path><g style="opacity:0.30000000000000004"><path d="M369.63,346.46c-7,2.75-19.83,2.78-31,1.45s-34-2-41.72-.71-40.23,12.78-51.3,15.71-33.73-2.47-33.73-2.47l-.55,1.62L208,349.55l.41-1a130.81,130.81,0,0,1,22.74-.18c11.5,1,21.71,3.48,27.81,1.87s15.7-3.95,20.58-6.8A54.28,54.28,0,0,1,307.34,337c11.63.72,17.6,1.89,27.16,2.56s28.22-3.67,29.93-4.13Z" style="fill:#fff"></path></g><g style="opacity:0.30000000000000004"><path d="M203,330.44l.45-.73a46.86,46.86,0,0,0,20.45,3.61c11.91-.5,38.19-4,39.74-3.08s2.17.75-1.11,2.88-43.72,10.9-55.85,9.05l-.49.65Z" style="fill:#fff"></path></g><g style="opacity:0.30000000000000004"><path d="M357.53,320.8s-12.31,5.71-44.43,2.76c0,0-20.66-.81-31.79,5.48S255.74,340,253.63,341s-7.14,2.35-3.33,3.25,20.67-4.11,26.29-7.42a56.44,56.44,0,0,1,13.55-5.72c4.31-1.36,16.49-1.57,29.7-.06s30.7,2.71,35.14.5,6.22-3,6.22-3Z" style="fill:#fff"></path></g><g style="opacity:0.8"><path d="M283.49,318.14l-.17.11-.52.28c-.45.25-1.13.61-2,1.05-1.77.88-4.36,2.09-7.66,3.34a90.37,90.37,0,0,1-11.86,3.61,98.14,98.14,0,0,1-15,2.19,174.66,174.66,0,0,1-27.54-.71c-3.51-.32-6.34-.63-8.3-.85l-2.26-.27-.58-.08-.2,0h.2l.59,0,2.26.19,8.32.72a186.43,186.43,0,0,0,27.48.59,100.34,100.34,0,0,0,15-2.15A94.74,94.74,0,0,0,273,322.65c3.3-1.22,5.9-2.38,7.69-3.22.89-.41,1.58-.74,2-1l.53-.25C283.42,318.15,283.49,318.13,283.49,318.14Z" style="fill:#fff"></path></g><g style="opacity:0.8"><path d="M297.58,316c0,.12-2.22.25-4.93.63s-4.88.83-4.91.71a19.22,19.22,0,0,1,4.86-1.12A18.7,18.7,0,0,1,297.58,316Z" style="fill:#fff"></path></g><g style="opacity:0.8"><path d="M345.35,318.56c0,.11-8.71-.47-19.43-1.3s-19.41-1.59-19.4-1.7,8.71.46,19.43,1.29S345.36,318.44,345.35,318.56Z" style="fill:#fff"></path></g><g style="opacity:0.8"><path d="M213.51,357a4.91,4.91,0,0,1-.36-.87c-.21-.58-.5-1.41-.84-2.44-.69-2.07-1.59-4.94-2.51-8.13s-1.69-6.11-2.21-8.23c-.26-1.05-.45-1.91-.58-2.51a4.78,4.78,0,0,1-.16-.93,3.7,3.7,0,0,1,.31.89c.2.67.43,1.5.71,2.48.62,2.18,1.43,5,2.32,8.18s1.76,6,2.39,8.16c.29,1,.53,1.81.72,2.48A4,4,0,0,1,213.51,357Z" style="fill:#fff"></path></g><g style="opacity:0.2"><path d="M352,301.82s3.52,0-12.27-.93-36.87-.67-53.45,7.74-25.3,10.66-32.17,11.92-47.8,4.87-47.8,4.87l11.16,32.66s25.36,4.39,37,.42,45.41-18.76,53.52-20.68,32.55-3,44.56-2.43a108.8,108.8,0,0,0,12,.05Z"></path></g><path d="M205.05,319.14c-.21.71,12.36,36.71,12.36,36.71s25.35,4.4,36.94.43,45.41-18.76,53.52-20.69,32.55-3,44.56-2.43,25.32-.54,32.6-4l0-2-18-29.92a115.65,115.65,0,0,1-27.41,1.46c-15.78-1-36.87-.66-53.44,7.74s-25.31,10.66-32.17,11.93c-6.46,1.19-44.41-1.17-49-1.21Z" style="fill:#FF725E"></path><g style="opacity:0.30000000000000004"><path d="M205.05,319.14c-.21.71,12.36,36.71,12.36,36.71s25.35,4.4,36.94.43,45.41-18.76,53.52-20.69,32.55-3,44.56-2.43,25.32-.54,32.6-4l0-2-18-29.92a115.65,115.65,0,0,1-27.41,1.46c-15.78-1-36.87-.66-53.44,7.74s-25.31,10.66-32.17,11.93c-6.46,1.19-44.41-1.17-49-1.21Z"></path></g><path d="M205.09,317.12c-.22.71,12.35,36.71,12.35,36.71s25.36,4.39,36.95.42,45.41-18.76,53.52-20.68,32.55-3,44.56-2.43,25.31-.54,32.6-4l-18-31.94a115.65,115.65,0,0,1-27.41,1.46c-15.79-.95-36.87-.67-53.45,7.74S261,315,254.08,316.31,205.09,317.12,205.09,317.12Z" style="fill:#FF725E"></path><g style="opacity:0.30000000000000004"><path d="M385.07,327.12c-7.29,3.48-20.94,4.48-32.95,3.91s-36.45.51-44.56,2.43S265.63,350.18,254,354.15s-36.17-.06-36.17-.06l-.46,1.76-4.54-13.09.36-1.07a139.84,139.84,0,0,1,24.24-1.93c12.35.24,23.43,2.05,29.82-.13s16.44-5.42,21.43-8.82,16.72-8.88,29.18-9,18.92.67,29.17.66,29.83-6.07,31.61-6.7Z" style="fill:#fff"></path></g><g style="opacity:0.30000000000000004"><path d="M206.1,322.76l.43-.81a50.18,50.18,0,0,0,22.09,2.29c12.67-1.45,40.44-7.15,42.16-6.32s2.37.63-1,3.16S224,336,210.93,335l-.48.73Z" style="fill:#fff"></path></g><g style="opacity:0.30000000000000004"><path d="M370.2,300.68s-12.69,7-47.18,6.33c0,0-22.11.72-33.49,8.28s-26.44,13.59-28.62,14.89-7.44,3.05-3.31,3.72,21.74-6,27.49-9.92a59.85,59.85,0,0,1,14-7.14c4.49-1.78,17.46-2.93,31.67-2.33s33,.55,37.53-2.15,6.4-3.66,6.4-3.66Z" style="fill:#fff"></path></g><g style="opacity:0.8"><path d="M291,303.49l-.17.13-.53.34c-.47.3-1.17.74-2.08,1.27-1.82,1.07-4.49,2.56-7.91,4.15A96.62,96.62,0,0,1,268,314.12a104,104,0,0,1-15.85,3.49A187.51,187.51,0,0,1,222.67,319c-3.77-.07-6.82-.19-8.92-.27l-2.43-.11-.63,0-.21,0h.84l2.43,0,8.93.14A199.05,199.05,0,0,0,252,317.2a107.16,107.16,0,0,0,15.8-3.44,99.35,99.35,0,0,0,12.37-4.65c3.43-1.55,6.11-3,8-4,.92-.51,1.63-.92,2.11-1.2l.55-.31C291,303.51,291,303.48,291,303.49Z" style="fill:#fff"></path></g><g style="opacity:0.8"><path d="M305.88,300.1c0,.12-2.34.43-5.21,1s-5.15,1.27-5.18,1.16a29.93,29.93,0,0,1,10.39-2.19Z" style="fill:#fff"></path></g><g style="opacity:0.8"><path d="M357,299.21c0,.11-9.33.15-20.83.09s-20.82-.21-20.82-.32,9.32-.16,20.82-.09S357,299.1,357,299.21Z" style="fill:#fff"></path></g><g style="opacity:0.8"><path d="M219.34,350.28a4.14,4.14,0,0,1-.45-.91c-.27-.59-.64-1.46-1.08-2.54-.89-2.15-2.07-5.14-3.3-8.48s-2.26-6.38-3-8.6c-.36-1.11-.64-2-.82-2.63a4.61,4.61,0,0,1-.24-1,6.09,6.09,0,0,1,.39.94l.95,2.59,3.09,8.55c1.22,3.28,2.33,6.26,3.18,8.52l1,2.58A5.39,5.39,0,0,1,219.34,350.28Z" style="fill:#fff"></path></g></g><g id="freepik--Sausages--inject-127"><path d="M179.67,363.59a14.62,14.62,0,0,1-5.54-11.36c0-2.89,1-6.74,3-8.79a13.3,13.3,0,0,1,9.28-3.54,28.66,28.66,0,0,1,9.94,2s31.59,14.95,48,16.87,28.6-1.65,33.14-2.47,15.4-1.32,18,5.22c3.57,8.92-2.08,15.59-9.2,19.32-6,3.17-32.64,11.67-67.44,1.77C190.37,374.52,179.67,363.59,179.67,363.59Z" style="fill:#cb675d"></path><g style="opacity:0.30000000000000004"><path d="M206.16,346.38c.58.48-1.69,3.92-2.93,8.68s-1.07,8.84-1.81,9c-.34.06-.87-.95-1.15-2.72a17.69,17.69,0,0,1,3.53-13.15C204.94,346.77,205.89,346.16,206.16,346.38Z"></path></g><g style="opacity:0.30000000000000004"><path d="M216.94,370.84c-.34.05-.88-1-1.21-2.81a20.14,20.14,0,0,1,2.89-13.84c1-1.54,1.94-2.28,2.23-2.09.62.42-1.37,4.23-2.38,9.28S217.68,370.7,216.94,370.84Z"></path></g><g style="opacity:0.30000000000000004"><path d="M233.77,375.32c-.35,0-.78-1-1-2.66a22.44,22.44,0,0,1,2.4-12.87c.83-1.49,1.59-2.27,1.9-2.12.67.34-.64,4.11-1.5,8.85S234.51,375.24,233.77,375.32Z"></path></g><g style="opacity:0.30000000000000004"><path d="M250.45,375.91c-.72,0-1.18-3.69-1-8.19s.85-8.12,1.57-8.1,1.18,3.69,1,8.19S251.17,375.93,250.45,375.91Z"></path></g><g style="opacity:0.30000000000000004"><path d="M269.84,374.56c-.73,0-1.23-3.6-1.62-8s-.5-8,.21-8.15,2,3.38,2.38,7.92S270.55,374.57,269.84,374.56Z"></path></g><g style="opacity:0.30000000000000004"><path d="M286.29,380.86c4-2.11,7.6-5.18,9.27-9.05-15.28,13.2-43.6,14.26-65.84,10.3-21.8-3.88-51.72-15.61-54.95-34.2a16.93,16.93,0,0,0-.64,4.32,14.62,14.62,0,0,0,5.54,11.36s10.7,10.93,39.18,19C253.65,392.53,280.26,384,286.29,380.86Z"></path></g><path d="M199.71,346.82c-.05.08-.92-.6-2.45-1.44a20.73,20.73,0,0,0-13.2-2.27c-1.73.27-2.76.62-2.79.53a2.41,2.41,0,0,1,.7-.32,13,13,0,0,1,2-.58,18.82,18.82,0,0,1,13.44,2.32,13.05,13.05,0,0,1,1.72,1.22C199.54,346.6,199.74,346.79,199.71,346.82Z" style="fill:#fff"></path><path d="M214.91,352.09a12.23,12.23,0,0,1-3.37-1,11.72,11.72,0,0,1-3.17-1.53,12.54,12.54,0,0,1,3.36,1A12,12,0,0,1,214.91,352.09Z" style="fill:#fff"></path><path d="M232.1,358.25a21.66,21.66,0,0,1-8-2.54,23,23,0,0,1,4,1.16A24.28,24.28,0,0,1,232.1,358.25Z" style="fill:#fff"></path><path d="M245.91,360.82a5,5,0,0,1-2.49.1,5.11,5.11,0,0,1-2.42-.63,7.78,7.78,0,0,1,2.47.11A7.86,7.86,0,0,1,245.91,360.82Z" style="fill:#fff"></path><path d="M257.06,361c0,.15-.39.29-.9.31s-.93-.06-.94-.2.4-.29.91-.32S257.06,360.88,257.06,361Z" style="fill:#fff"></path><path d="M157.32,378.56a14.61,14.61,0,0,1-5.53-11.37c0-2.89,1-6.73,3-8.78a13.27,13.27,0,0,1,9.28-3.54,28.44,28.44,0,0,1,9.94,2s31.6,14.95,48,16.87,28.61-1.65,33.14-2.48,15.4-1.32,18,5.23c3.57,8.91-2.08,15.59-9.19,19.32-6,3.16-32.65,11.67-67.44,1.77C168,389.49,157.32,378.56,157.32,378.56Z" style="fill:#cb675d"></path><g style="opacity:0.30000000000000004"><path d="M183.81,361.34c.58.49-1.69,3.93-2.92,8.68s-1.08,8.85-1.82,9c-.34.05-.87-.95-1.15-2.72a17.1,17.1,0,0,1,.45-6.93,17.3,17.3,0,0,1,3.08-6.23C182.59,361.74,183.55,361.13,183.81,361.34Z"></path></g><g style="opacity:0.30000000000000004"><path d="M194.59,385.8c-.34.06-.87-1-1.21-2.8a20.15,20.15,0,0,1,2.89-13.85c1-1.53,1.94-2.27,2.23-2.08.62.42-1.37,4.23-2.38,9.28S195.33,385.67,194.59,385.8Z"></path></g><g style="opacity:0.30000000000000004"><path d="M211.42,390.29c-.35,0-.78-1-1-2.66a21.44,21.44,0,0,1,.23-6.62,21.71,21.71,0,0,1,2.16-6.26c.83-1.49,1.59-2.26,1.9-2.11.67.34-.64,4.11-1.5,8.85S212.16,390.21,211.42,390.29Z"></path></g><g style="opacity:0.30000000000000004"><path d="M228.1,390.88c-.72,0-1.18-3.69-1-8.19s.84-8.13,1.56-8.1,1.18,3.68,1,8.18S228.82,390.9,228.1,390.88Z"></path></g><g style="opacity:0.30000000000000004"><path d="M247.49,389.52c-.72,0-1.23-3.59-1.62-8s-.5-8,.21-8.14,2,3.38,2.38,7.92S248.2,389.54,247.49,389.52Z"></path></g><g style="opacity:0.30000000000000004"><path d="M264,395.83c4-2.12,7.59-5.18,9.27-9.06C257.93,400,229.61,401,207.37,397.07c-21.8-3.88-51.72-15.61-54.94-34.19a16.08,16.08,0,0,0-.64,4.31,14.61,14.61,0,0,0,5.53,11.37s10.7,10.93,39.19,19C231.3,407.5,257.91,399,264,395.83Z"></path></g><path d="M177.37,361.79c-.06.07-.92-.61-2.46-1.44a20.83,20.83,0,0,0-13.2-2.28c-1.72.28-2.76.63-2.79.54a2.41,2.41,0,0,1,.7-.33,14.37,14.37,0,0,1,2-.57A18.82,18.82,0,0,1,175.09,360a13.05,13.05,0,0,1,1.72,1.22C177.19,361.57,177.39,361.76,177.37,361.79Z" style="fill:#fff"></path><path d="M192.56,367.06a12.54,12.54,0,0,1-3.36-1,11.69,11.69,0,0,1-3.18-1.53,12.23,12.23,0,0,1,3.37,1A11.72,11.72,0,0,1,192.56,367.06Z" style="fill:#fff"></path><path d="M209.75,373.22a13.8,13.8,0,0,1-4.12-.89,13.48,13.48,0,0,1-3.87-1.65,23,23,0,0,1,4,1.16A22.82,22.82,0,0,1,209.75,373.22Z" style="fill:#fff"></path><path d="M223.56,375.79a5,5,0,0,1-2.49.09,5.22,5.22,0,0,1-2.42-.62,7.15,7.15,0,0,1,2.47.11A7.86,7.86,0,0,1,223.56,375.79Z" style="fill:#fff"></path><path d="M234.72,376c0,.14-.4.28-.91.31s-.93-.06-.94-.21.4-.28.91-.31S234.71,375.85,234.72,376Z" style="fill:#fff"></path><path d="M157.32,378.56l.55.48c.37.31.92.78,1.67,1.36a66.55,66.55,0,0,0,6.84,4.61,123.93,123.93,0,0,0,27.94,11.73,125,125,0,0,0,20.48,4.37,111.49,111.49,0,0,0,24,.45c2.11-.14,4.23-.46,6.38-.74s4.3-.72,6.46-1.23a52.29,52.29,0,0,0,12.77-4.32,23.34,23.34,0,0,0,5.51-4.14,14.46,14.46,0,0,0,3.56-5.91,12.8,12.8,0,0,0,0-7l-.58-1.69a7.4,7.4,0,0,0-.89-1.51,7.26,7.26,0,0,0-1.21-1.27,9.85,9.85,0,0,0-1.5-1,17.17,17.17,0,0,0-6.81-1.68,32.15,32.15,0,0,0-7,.36c-2.29.42-4.57,1-6.84,1.4s-4.55.8-6.82,1.06a84.26,84.26,0,0,1-13.41.55,60.64,60.64,0,0,1-12.76-1.68A176.89,176.89,0,0,1,193,365.3c-6.95-2.75-13.32-5.55-19.1-8.24h0a29.86,29.86,0,0,0-9.15-2,14.43,14.43,0,0,0-8,2,9,9,0,0,0-2.75,2.52,11.64,11.64,0,0,0-1.46,3.15,15.55,15.55,0,0,0-.64,6.06,14.35,14.35,0,0,0,3.28,7.7,18.64,18.64,0,0,0,1.52,1.61c.37.33.55.52.55.52l-.59-.48a15.89,15.89,0,0,1-1.56-1.59,14.3,14.3,0,0,1-3.4-7.74,15.55,15.55,0,0,1,.6-6.15,11.71,11.71,0,0,1,1.48-3.23,9.3,9.3,0,0,1,2.81-2.62,14.81,14.81,0,0,1,8.16-2.05,30.24,30.24,0,0,1,9.26,2h0c5.77,2.67,12.16,5.44,19.1,8.17a177.75,177.75,0,0,0,22.54,7.46A59.62,59.62,0,0,0,228.41,374a85.66,85.66,0,0,0,13.33-.55c2.25-.27,4.51-.63,6.78-1.06s4.52-1,6.85-1.41a32,32,0,0,1,7.13-.36,17.54,17.54,0,0,1,7,1.73,11.5,11.5,0,0,1,1.58,1,8.17,8.17,0,0,1,2.25,3c.21.57.4,1.16.6,1.74a13.23,13.23,0,0,1,0,7.25,14.91,14.91,0,0,1-3.69,6.13,24,24,0,0,1-5.63,4.23,53.15,53.15,0,0,1-12.91,4.36c-2.17.5-4.35.86-6.49,1.22s-4.3.6-6.42.74a111.55,111.55,0,0,1-24.1-.5,126,126,0,0,1-20.53-4.44,122.12,122.12,0,0,1-27.94-11.92,61.43,61.43,0,0,1-6.81-4.7c-.73-.6-1.28-1.07-1.63-1.4Z" style="fill:#263238"></path></g></svg>
