<?xml version="1.0" encoding="utf-8"?>
<!-- Generator: Adobe Illustrator 27.5.0, SVG Export Plug-In . SVG Version: 6.00 Build 0)  -->
<svg version="1.1" xmlns="http://www.w3.org/2000/svg" xmlns:xlink="http://www.w3.org/1999/xlink" x="0px" y="0px"
	 viewBox="0 0 500 500" style="enable-background:new 0 0 500 500;" xml:space="preserve">
<g id="Background_Complete">
	<g>
		<g>
			<g>
				<g>
					<g>
						<g>
							<g>
								<g>
									<g>
										<g>
											<g>
												<g>
													<polygon style="fill:#E0E0E0;" points="401.629,65.147 406.549,59.88 416.67,68.278 435.323,49.065 440.226,53.998 
														416.277,78.127 													"/>
												</g>
											</g>
										</g>
									</g>
								</g>
							</g>
						</g>
					</g>
				</g>
			</g>
		</g>
	</g>
	<g>
		<g>
			<path style="fill:#E0E0E0;" d="M461.375,63.9c0,0-0.029-0.219-0.059-0.646c-0.029-0.445-0.069-1.074-0.121-1.893
				c-0.025-0.417-0.052-0.882-0.083-1.394c-0.054-0.511-0.163-1.064-0.253-1.666c-0.096-0.602-0.198-1.249-0.308-1.941
				c-0.083-0.698-0.342-1.405-0.521-2.174c-0.702-3.08-2.143-6.72-4.417-10.579c-2.292-3.842-5.598-7.856-10.101-11.263
				c-0.565-0.421-1.138-0.847-1.716-1.278c-0.603-0.395-1.238-0.757-1.866-1.144c-0.641-0.364-1.248-0.808-1.936-1.119
				c-0.68-0.326-1.366-0.655-2.06-0.988c-0.348-0.165-0.697-0.33-1.048-0.497c-0.365-0.133-0.732-0.266-1.101-0.401
				c-0.737-0.268-1.481-0.54-2.233-0.813c-0.758-0.25-1.552-0.412-2.337-0.625c-0.793-0.18-1.573-0.459-2.401-0.543
				c-1.64-0.232-3.297-0.57-5.015-0.58c-0.855-0.029-1.717-0.113-2.585-0.099c-0.868,0.045-1.743,0.09-2.624,0.136
				c-0.44,0.031-0.884,0.028-1.325,0.086l-1.322,0.204c-0.882,0.146-1.78,0.25-2.667,0.433c-1.75,0.476-3.563,0.831-5.286,1.552
				c-1.778,0.569-3.451,1.448-5.17,2.272c-0.837,0.454-1.64,0.983-2.468,1.474c-0.406,0.26-0.839,0.481-1.225,0.774l-1.167,0.874
				c-1.611,1.106-3.02,2.489-4.496,3.821c-1.333,1.475-2.734,2.919-3.883,4.594l-0.911,1.219l-0.798,1.304l-0.797,1.313l-0.4,0.658
				l-0.339,0.693c-0.447,0.928-0.895,1.86-1.345,2.795c-0.357,0.975-0.715,1.953-1.075,2.935c-1.292,3.978-1.988,8.202-2.045,12.501
				c0.057,4.3,0.751,8.527,2.042,12.506c0.36,0.982,0.718,1.961,1.075,2.936c0.45,0.936,0.899,1.867,1.346,2.796l0.338,0.694
				l0.4,0.658l0.797,1.313l0.798,1.305l0.912,1.22c1.15,1.675,2.55,3.12,3.884,4.595c1.476,1.333,2.885,2.716,4.496,3.822
				l1.167,0.874c0.386,0.293,0.819,0.514,1.225,0.774c0.829,0.492,1.632,1.021,2.469,1.475c1.719,0.824,3.392,1.703,5.171,2.273
				c1.724,0.72,3.537,1.075,5.287,1.552c0.887,0.184,1.785,0.287,2.668,0.433l1.322,0.204c0.44,0.058,0.885,0.055,1.325,0.086
				c0.881,0.046,1.756,0.091,2.625,0.136c0.868,0.013,1.73-0.07,2.585-0.1c1.718-0.009,3.375-0.348,5.015-0.58
				c0.827-0.084,1.607-0.364,2.401-0.544c0.785-0.213,1.579-0.375,2.337-0.626c0.751-0.274,1.496-0.545,2.233-0.813
				c0.369-0.134,0.736-0.268,1.101-0.401c0.351-0.166,0.7-0.332,1.048-0.497c0.694-0.333,1.381-0.662,2.06-0.988
				c0.687-0.312,1.295-0.755,1.936-1.119c0.628-0.387,1.263-0.749,1.866-1.144c0.579-0.431,1.151-0.857,1.716-1.278
				c4.503-3.408,7.809-7.422,10.1-11.264c2.273-3.858,3.714-7.498,4.416-10.578c0.179-0.769,0.438-1.476,0.521-2.174
				c0.11-0.691,0.213-1.339,0.308-1.941c0.09-0.602,0.199-1.155,0.253-1.666c0.03-0.511,0.058-0.976,0.083-1.394
				c0.053-0.819,0.093-1.448,0.121-1.893C461.346,64.118,461.375,63.9,461.375,63.9s0.007,0.219-0.006,0.646
				c-0.016,0.446-0.04,1.077-0.07,1.898c-0.017,0.419-0.037,0.886-0.058,1.4c-0.046,0.513-0.147,1.069-0.229,1.674
				c-0.089,0.606-0.184,1.257-0.286,1.953c-0.075,0.702-0.327,1.415-0.5,2.19c-0.676,3.103-2.097,6.777-4.362,10.678
				c-2.284,3.884-5.597,7.95-10.127,11.407c-0.569,0.427-1.145,0.86-1.728,1.297c-0.607,0.402-1.246,0.77-1.879,1.163
				c-0.646,0.37-1.258,0.819-1.951,1.137c-0.685,0.332-1.378,0.667-2.077,1.005c-0.351,0.168-0.703,0.336-1.057,0.505
				c-0.368,0.136-0.738,0.272-1.11,0.409c-0.744,0.274-1.496,0.55-2.254,0.829c-0.766,0.256-1.567,0.422-2.36,0.64
				c-0.801,0.184-1.59,0.468-2.426,0.556c-1.657,0.24-3.332,0.586-5.069,0.6c-0.865,0.032-1.736,0.118-2.614,0.107
				c-0.878-0.043-1.763-0.087-2.655-0.131c-0.445-0.03-0.895-0.027-1.34-0.084l-1.338-0.202c-0.893-0.146-1.802-0.249-2.7-0.433
				c-1.772-0.477-3.608-0.835-5.354-1.56c-1.801-0.574-3.496-1.459-5.238-2.292c-0.848-0.459-1.662-0.992-2.501-1.489
				c-0.411-0.262-0.85-0.486-1.241-0.783l-1.183-0.883c-1.633-1.119-3.062-2.517-4.557-3.866c-1.353-1.492-2.772-2.954-3.938-4.649
				l-0.924-1.235l-0.809-1.32l-0.808-1.329l-0.405-0.667l-0.343-0.702c-0.453-0.94-0.908-1.884-1.365-2.831
				c-0.362-0.987-0.726-1.979-1.091-2.974c-1.311-4.031-2.015-8.313-2.072-12.669c0.057-4.355,0.763-8.636,2.074-12.665
				c0.365-0.995,0.729-1.986,1.091-2.973c0.457-0.947,0.911-1.891,1.364-2.831l0.344-0.702l0.405-0.667l0.808-1.329l0.81-1.32
				l0.924-1.235c1.166-1.694,2.585-3.156,3.938-4.648c1.495-1.348,2.924-2.746,4.556-3.864l1.183-0.883
				c0.392-0.296,0.83-0.52,1.241-0.782c0.84-0.497,1.653-1.031,2.501-1.489c1.741-0.833,3.436-1.718,5.237-2.292
				c1.746-0.725,3.581-1.083,5.353-1.56c0.898-0.184,1.807-0.287,2.7-0.433l1.338-0.203c0.445-0.058,0.895-0.054,1.34-0.084
				c0.891-0.044,1.776-0.087,2.654-0.131c0.878-0.011,1.749,0.074,2.614,0.107c1.736,0.015,3.412,0.36,5.069,0.6
				c0.836,0.088,1.624,0.372,2.425,0.556c0.793,0.218,1.594,0.384,2.36,0.64c0.758,0.279,1.51,0.555,2.254,0.829
				c0.372,0.137,0.742,0.273,1.111,0.409c0.354,0.169,0.706,0.338,1.057,0.505c0.7,0.339,1.392,0.674,2.077,1.005
				c0.693,0.317,1.305,0.767,1.951,1.137c0.633,0.393,1.272,0.761,1.879,1.162c0.583,0.437,1.159,0.87,1.728,1.297
				c4.53,3.458,7.843,7.523,10.128,11.407c2.266,3.901,3.688,7.575,4.363,10.678c0.173,0.775,0.425,1.488,0.5,2.19
				c0.102,0.696,0.197,1.347,0.286,1.953c0.082,0.605,0.183,1.161,0.229,1.675c0.021,0.514,0.041,0.981,0.058,1.4
				c0.03,0.822,0.054,1.453,0.07,1.899C461.382,63.681,461.375,63.9,461.375,63.9z"/>
		</g>
	</g>
	<g>
		<g>
			<path style="fill:#E0E0E0;" d="M387.736,103.783c-0.05,0.002-0.045-0.411-0.243-1.103c-0.195-0.679-0.668-1.668-1.694-2.423
				c-0.991-0.757-2.613-1.175-4.176-0.588c-1.55,0.539-2.885,2.189-2.868,4.113c-0.018,1.925,1.317,3.575,2.868,4.114
				c1.563,0.587,3.185,0.17,4.176-0.588c1.026-0.755,1.498-1.743,1.693-2.422C387.691,104.194,387.686,103.78,387.736,103.783
				c0.018,0,0.03,0.101,0.037,0.298c0.011,0.196-0.007,0.488-0.084,0.855c-0.143,0.724-0.587,1.808-1.667,2.666
				c-1.043,0.859-2.816,1.372-4.563,0.746c-1.731-0.57-3.246-2.408-3.225-4.565c-0.02-2.156,1.494-3.994,3.225-4.564
				c1.746-0.626,3.52-0.113,4.562,0.746c1.08,0.858,1.524,1.942,1.667,2.666c0.076,0.367,0.094,0.659,0.084,0.855
				C387.766,103.681,387.754,103.783,387.736,103.783z"/>
		</g>
	</g>
	<g>
		<g>
			<rect x="9.935" y="283.014" style="fill:#F5F5F5;" width="28.514" height="28.514"/>
		</g>
		<g>
			<rect x="9.935" y="314.548" style="fill:#F5F5F5;" width="28.514" height="28.514"/>
		</g>
		<g>
			<rect x="9.935" y="346.081" style="fill:#F5F5F5;" width="28.514" height="28.514"/>
		</g>
		<g>
			<rect x="42.193" y="283.014" style="fill:#F5F5F5;" width="28.514" height="28.514"/>
		</g>
		<g>
			<rect x="42.193" y="314.548" style="fill:#F5F5F5;" width="28.514" height="28.514"/>
		</g>
		<g>
			<rect x="42.193" y="346.081" style="fill:#F5F5F5;" width="28.514" height="28.514"/>
		</g>
		<g>
			<rect x="74.452" y="283.014" style="fill:#F5F5F5;" width="28.514" height="28.514"/>
		</g>
		<g>
			<rect x="74.452" y="314.548" style="fill:#F5F5F5;" width="28.514" height="28.514"/>
		</g>
		<g>
			<rect x="74.452" y="346.081" style="fill:#F5F5F5;" width="28.514" height="28.514"/>
		</g>
		<g>
			<rect x="106.71" y="283.014" style="fill:#F5F5F5;" width="28.514" height="28.514"/>
		</g>
		<g>
			<rect x="106.71" y="314.548" style="fill:#F5F5F5;" width="28.514" height="28.514"/>
		</g>
		<g>
			<rect x="106.71" y="346.081" style="fill:#F5F5F5;" width="28.514" height="28.514"/>
		</g>
		<g>
			<rect x="138.968" y="283.014" style="fill:#F5F5F5;" width="28.514" height="28.514"/>
		</g>
		<g>
			<rect x="138.968" y="314.548" style="fill:#F5F5F5;" width="28.514" height="28.514"/>
		</g>
		<g>
			<rect x="138.968" y="346.081" style="fill:#F5F5F5;" width="28.514" height="28.514"/>
		</g>
		<g>
			<rect x="171.226" y="283.014" style="fill:#F5F5F5;" width="28.514" height="28.514"/>
		</g>
		<g>
			<rect x="171.226" y="314.548" style="fill:#F5F5F5;" width="28.514" height="28.514"/>
		</g>
		<g>
			<rect x="171.226" y="346.081" style="fill:#F5F5F5;" width="28.514" height="28.514"/>
		</g>
		<g>
			<rect x="203.485" y="283.014" style="fill:#F5F5F5;" width="28.514" height="28.514"/>
		</g>
		<g>
			<rect x="203.485" y="314.548" style="fill:#F5F5F5;" width="28.514" height="28.514"/>
		</g>
		<g>
			<rect x="203.485" y="346.081" style="fill:#F5F5F5;" width="28.514" height="28.514"/>
		</g>
		<g>
			<rect x="235.743" y="283.014" style="fill:#F5F5F5;" width="28.514" height="28.514"/>
		</g>
		<g>
			<rect x="235.743" y="314.548" style="fill:#F5F5F5;" width="28.514" height="28.514"/>
		</g>
		<g>
			<rect x="235.743" y="346.081" style="fill:#F5F5F5;" width="28.514" height="28.514"/>
		</g>
		<g>
			<rect x="268.001" y="283.014" style="fill:#F5F5F5;" width="28.514" height="28.514"/>
		</g>
		<g>
			<rect x="268.001" y="314.548" style="fill:#F5F5F5;" width="28.514" height="28.514"/>
		</g>
		<g>
			<rect x="268.001" y="346.081" style="fill:#F5F5F5;" width="28.514" height="28.514"/>
		</g>
		<g>
			<rect x="300.259" y="283.014" style="fill:#F5F5F5;" width="28.514" height="28.514"/>
		</g>
		<g>
			<rect x="300.259" y="314.548" style="fill:#F5F5F5;" width="28.514" height="28.514"/>
		</g>
		<g>
			<rect x="300.259" y="346.081" style="fill:#F5F5F5;" width="28.514" height="28.514"/>
		</g>
		<g>
			<rect x="332.518" y="283.014" style="fill:#F5F5F5;" width="28.514" height="28.514"/>
		</g>
		<g>
			<rect x="332.518" y="314.548" style="fill:#F5F5F5;" width="28.514" height="28.514"/>
		</g>
		<g>
			<rect x="332.518" y="346.081" style="fill:#F5F5F5;" width="28.514" height="28.514"/>
		</g>
		<g>
			<rect x="364.776" y="283.014" style="fill:#F5F5F5;" width="28.514" height="28.514"/>
		</g>
		<g>
			<rect x="364.776" y="314.548" style="fill:#F5F5F5;" width="28.514" height="28.514"/>
		</g>
		<g>
			<rect x="364.776" y="346.081" style="fill:#F5F5F5;" width="28.514" height="28.514"/>
		</g>
		<g>
			<rect x="397.034" y="283.014" style="fill:#F5F5F5;" width="28.514" height="28.514"/>
		</g>
		<g>
			<rect x="397.034" y="314.548" style="fill:#F5F5F5;" width="28.514" height="28.514"/>
		</g>
		<g>
			<rect x="397.034" y="346.081" style="fill:#F5F5F5;" width="28.514" height="28.514"/>
		</g>
		<g>
			<rect x="429.292" y="283.014" style="fill:#F5F5F5;" width="28.514" height="28.514"/>
		</g>
		<g>
			<rect x="429.292" y="314.548" style="fill:#F5F5F5;" width="28.514" height="28.514"/>
		</g>
		<g>
			<rect x="429.292" y="346.081" style="fill:#F5F5F5;" width="28.514" height="28.514"/>
		</g>
		<g>
			<rect x="461.55" y="283.014" style="fill:#F5F5F5;" width="28.514" height="28.514"/>
		</g>
		<g>
			<rect x="461.55" y="314.548" style="fill:#F5F5F5;" width="28.514" height="28.514"/>
		</g>
		<g>
			<rect x="461.55" y="346.081" style="fill:#F5F5F5;" width="28.514" height="28.514"/>
		</g>
	</g>
	<g>
		<path style="fill:#E0E0E0;" d="M262.945,73.219c0,0-9.897,1.579-15.263,19.015c-5.366,17.436-10.84,44.962-10.653,46.372
			c0.446,3.365,3.621,3.702,6.221,6.077c1.535,1.402,1.842,0.962,0.79,6.662c-0.944,5.114-13.688,48.617-16.295,57.498
			c-0.249,0.847,0.29,1.72,1.158,1.883l10.821,2.028c0.831,0.156,1.625-0.409,1.75-1.246l10.292-68.803
			c0,0,13.385-64.893,13.438-66.031C265.255,75.536,265.828,73.293,262.945,73.219z"/>
	</g>
	<g>
		<path style="fill:#E0E0E0;" d="M64.748,220.576c-2.742-2.044-3.723-9.428-7.459-14.26c-3.736-4.831-27.83-18.52-29.639-19.527
			c-0.702-0.391-1.238-0.453-1.631-0.382c-0.441,0.08-0.571,0.651-0.212,0.919l21.047,15.683c0.359,0.267,0.509,0.76,0.303,1.157
			c-0.263,0.506-0.9,0.638-1.337,0.312l-21.251-15.063c-0.46-0.326-1.096-0.226-1.433,0.227c-0.34,0.455-0.25,1.099,0.2,1.445
			l20.612,15.824c0.359,0.267,0.509,0.76,0.303,1.157c-0.263,0.506-0.9,0.638-1.338,0.312l-21.142-15.143
			c-0.476-0.341-1.138-0.238-1.488,0.232c-0.35,0.47-0.259,1.134,0.206,1.493l20.551,15.85c0.359,0.267,0.509,0.76,0.303,1.158
			c-0.263,0.506-0.9,0.638-1.337,0.312L18.933,196.58c-0.388-0.289-0.935,0.018-0.89,0.5c0.038,0.401,0.247,0.907,0.835,1.481
			c1.482,1.446,21.489,20.619,27.187,22.818s13.055,1.027,15.797,3.07c2.504,1.866,54.323,43.113,63.333,50.286
			c0.733,0.583,1.793,0.437,2.353-0.314l4.216-5.657c0.562-0.755,0.394-1.819-0.382-2.352
			C121.849,259.879,67.251,222.441,64.748,220.576z"/>
	</g>
</g>
<g id="Background_Simple" style="display:none;">
	<g style="display:inline;">
		<path style="fill:#F5F5F5;" d="M446.35,148.127l-2.443-4.025c-20.59-33.931-57.819-54.386-97.069-51.903
			c-5.045,0.319-10.069,1.002-15.026,2.063c-35.687,7.639-66.739,34.626-79.61,69.188c-7.57,20.327-9.684,43.73-24.049,59.864
			c-18.695,20.998-50.434,21.657-78.339,20.787c-27.905-0.87-59.665-0.128-78.269,20.953
			c-11.651,13.202-15.354,31.977-14.415,49.658c2.487,46.811,35.106,88.667,76.589,109.471
			c41.483,20.804,90.324,22.668,135.724,13.516c63.6-12.821,124.084-48.029,160.439-102.41S475.438,206.821,446.35,148.127z"/>
	</g>
</g>
<g id="Table">
	<g>
		<g>
			<path style="fill:#263238;" d="M466.949,472.386c0,0.144-98.035,0.26-218.938,0.26c-120.946,0-218.959-0.116-218.959-0.26
				c0-0.144,98.014-0.26,218.959-0.26C368.914,472.126,466.949,472.242,466.949,472.386z"/>
		</g>
	</g>
</g>
<g id="Apple">
	<g>
		<g>
			<path style="fill:#455A64;" d="M123.476,423.611c0.588-3.812-0.405-7.844-2.695-10.948c-2.291-3.104-5.851-5.241-9.667-5.803
				c-0.357-0.053-0.753-0.084-1.05,0.122c-0.423,0.292-0.44,0.901-0.392,1.413c0.348,3.698,1.894,7.274,4.351,10.06
				c2.456,2.786,5.81,4.768,9.436,5.577"/>
		</g>
		<g>
			<g>
				<path style="fill:#FF725E;" d="M102.921,450.68c3.702,7.627,9.019,12.764,15.606,13.013c1.317,0.046,2.313-0.82,3.571-0.893
					c0.643,0.043,1.392,0.498,2.108,0.793c0.383,0.146,0.762,0.262,1.099,0.249c6.807-0.366,12.606-5.155,16.515-13.161
					c5.443-11.215,3.762-23.262-3.749-26.922c-1.07-0.527-2.079-0.921-3.073-1.201c-1.215-0.321-2.415-0.483-3.735-0.438
					c-2.313,0.045-4.962,0.674-8.535,1.931c-0.116,0.045-0.249,0.089-0.366,0.133c-6.103-2.694-10.979-2.71-15.706-0.425
					C99.144,427.418,97.474,439.465,102.921,450.68z"/>
			</g>
		</g>
		<g>
			<g>
				<path style="fill:#FAFAFA;" d="M103.052,439.32c-0.045,0.019-0.431-0.808-0.624-2.255c-0.199-1.439-0.097-3.507,0.674-5.609
					c0.781-2.099,2.049-3.737,3.135-4.7c1.088-0.974,1.918-1.351,1.94-1.307c0.052,0.078-0.698,0.562-1.685,1.571
					c-0.989,1.002-2.153,2.601-2.904,4.616c-0.74,2.019-0.896,3.99-0.796,5.394C102.888,438.439,103.142,439.294,103.052,439.32z"/>
			</g>
		</g>
		<g>
			<g>
				<path style="fill:#FAFAFA;" d="M104.432,444.651c-0.14,0.032-0.381-0.497-0.539-1.182c-0.158-0.685-0.173-1.267-0.033-1.299
					c0.14-0.032,0.381,0.497,0.539,1.182C104.557,444.037,104.572,444.619,104.432,444.651z"/>
			</g>
		</g>
		<g>
			<g>
				<path style="fill:#263238;" d="M138.996,405.265c0.038,0.094-1.407,0.633-3.524,1.9c-1.063,0.624-2.262,1.474-3.518,2.507
					c-1.236,1.056-2.518,2.309-3.715,3.755c-1.181,1.46-2.155,2.964-2.946,4.385c-0.764,1.436-1.36,2.779-1.762,3.945
					c-0.823,2.325-1.065,3.849-1.165,3.83c-0.035-0.006,0.007-0.388,0.116-1.077c0.049-0.346,0.123-0.767,0.252-1.246
					c0.124-0.48,0.238-1.036,0.449-1.624c0.363-1.197,0.933-2.579,1.688-4.053c0.781-1.459,1.763-3.001,2.966-4.489
					c1.22-1.474,2.537-2.74,3.812-3.795c1.295-1.031,2.537-1.864,3.638-2.456c0.535-0.324,1.058-0.546,1.503-0.762
					c0.444-0.221,0.842-0.378,1.171-0.494C138.617,405.349,138.983,405.232,138.996,405.265z"/>
			</g>
		</g>
	</g>
	<g>
		<g>
			<path style="fill:#E0E0E0;" d="M66.619,454.92v1.416l18.272,8.522c0,0,1.504,4.524,14.81,4.749
				c13.306,0.226,45.336,0.259,45.336,0.259s8.811,0.196,14.505-4.783l17.474-8.484l-0.221-1.78L66.619,454.92z"/>
		</g>
		<g>
			<rect x="100.984" y="469.723" style="fill:#E0E0E0;" width="42.763" height="1.894"/>
		</g>
		<g>
			<g>
				<path style="fill:#263238;" d="M159.842,465.041c0,0.005-0.065,0.011-0.193,0.018c-0.143,0.006-0.33,0.013-0.568,0.023
					c-0.517,0.014-1.249,0.034-2.184,0.059c-1.914,0.035-4.654,0.086-8.031,0.148c-6.782,0.103-16.151,0.207-26.5,0.222
					c-10.352,0.018-19.724-0.065-26.506-0.226c-3.391-0.088-6.134-0.163-8.029-0.261c-0.933-0.046-1.665-0.083-2.181-0.108
					c-0.237-0.015-0.424-0.027-0.567-0.035c-0.128-0.01-0.193-0.017-0.193-0.022s0.066-0.007,0.194-0.008
					c0.143,0.002,0.331,0.004,0.568,0.007c0.517,0.013,1.249,0.031,2.183,0.054c1.895,0.063,4.639,0.108,8.029,0.169
					c6.781,0.109,16.15,0.159,26.501,0.142c10.347-0.015,19.716-0.086,26.498-0.137c3.378-0.024,6.118-0.043,8.032-0.056
					c0.935-0.002,1.667-0.004,2.184-0.005c0.237,0.002,0.425,0.004,0.568,0.005C159.776,465.032,159.842,465.036,159.842,465.041z"
					/>
			</g>
		</g>
		<g>
			<g>
				<path style="fill:#263238;" d="M142.737,469.723c0,0.08-9.483,0.144-21.179,0.144c-11.7,0-21.181-0.065-21.181-0.144
					c0-0.08,9.481-0.144,21.181-0.144C133.254,469.579,142.737,469.643,142.737,469.723z"/>
			</g>
		</g>
		<g>
			<g>
				<path style="fill:#263238;" d="M176.627,456.599c0,0.08-24.658,0.144-55.067,0.144c-30.42,0-55.073-0.065-55.073-0.144
					c0-0.08,24.652-0.144,55.073-0.144C151.969,456.455,176.627,456.52,176.627,456.599z"/>
			</g>
		</g>
	</g>
</g>
<g id="Clock">
	<g>
		<g>
			<path style="fill:#FF725E;" d="M211.917,148.582c-0.633,37.545-31.583,67.467-69.128,66.834
				c-10.167-0.172-19.775-2.566-28.368-6.713c-23.141-11.166-38.927-35.037-38.466-62.415c0.633-37.545,31.583-67.467,69.128-66.834
				C182.628,80.087,212.551,111.037,211.917,148.582z"/>
		</g>
		<g style="opacity:0.3;">
			<path d="M211.917,148.582c-0.633,37.545-31.583,67.467-69.128,66.834c-10.167-0.172-19.775-2.566-28.368-6.713
				c-23.141-11.166-38.927-35.037-38.466-62.415c0.633-37.545,31.583-67.467,69.128-66.834
				C182.628,80.087,212.551,111.037,211.917,148.582z"/>
		</g>
		<g>
			
				<ellipse transform="matrix(0.7071 -0.7071 0.7071 0.7071 -62.0467 140.7235)" style="fill:#FF725E;" cx="138.845" cy="145.259" rx="68.468" ry="68.468"/>
		</g>
		<g>
			<g>
				
					<ellipse transform="matrix(0.441 -0.8975 0.8975 0.441 -52.7571 205.8121)" style="fill:#FFFFFF;" cx="138.845" cy="145.259" rx="61.158" ry="61.158"/>
			</g>
			<g>
				<g>
					<path style="fill:#263238;" d="M199.994,146.29c0,0-0.021-0.336-0.035-0.992c-0.031-0.655,0.007-1.632-0.089-2.908
						c-0.116-2.552-0.482-6.323-1.571-11.055c-1.128-4.71-3.056-10.396-6.498-16.374c-3.437-5.955-8.403-12.209-15.219-17.584
						c-3.393-2.694-7.261-5.126-11.534-7.152c-4.27-2.024-8.945-3.67-13.945-4.656c-4.989-1.006-10.281-1.458-15.698-1.126
						c-2.711,0.116-5.441,0.511-8.184,1.006c-2.737,0.538-5.471,1.275-8.183,2.187c-10.812,3.712-21.145,10.809-28.672,20.765
						c-7.563,9.887-12.214,22.588-12.411,35.82c-0.253,13.236,3.966,26.092,11.192,36.231c7.187,10.208,17.276,17.651,27.959,21.726
						c2.681,1.004,5.388,1.832,8.106,2.462c2.725,0.588,5.44,1.075,8.146,1.282c5.403,0.515,10.707,0.241,15.728-0.596
						c5.03-0.817,9.758-2.305,14.094-4.184c4.339-1.881,8.286-4.181,11.768-6.76c6.993-5.143,12.166-11.226,15.802-17.062
						c3.641-5.859,5.759-11.476,7.045-16.145c1.248-4.692,1.74-8.448,1.942-10.994c0.138-1.271,0.133-2.249,0.186-2.903
						C199.962,146.626,199.994,146.29,199.994,146.29s0.017,1.346-0.15,3.901c-0.169,2.553-0.629,6.323-1.851,11.038
						c-1.26,4.692-3.358,10.344-6.993,16.245c-3.629,5.878-8.81,12.012-15.831,17.205c-3.496,2.603-7.462,4.928-11.826,6.831
						c-4.361,1.901-9.119,3.409-14.183,4.241c-5.055,0.853-10.397,1.137-15.841,0.627c-2.727-0.205-5.464-0.691-8.21-1.28
						c-2.74-0.631-5.469-1.463-8.173-2.472c-10.772-4.095-20.951-11.591-28.204-21.879c-7.292-10.219-11.552-23.188-11.297-36.535
						c0.199-13.344,4.894-26.156,12.526-36.121c7.595-10.035,18.019-17.18,28.921-20.91c2.735-0.917,5.491-1.656,8.25-2.194
						c2.764-0.496,5.516-0.89,8.247-1.003c5.458-0.326,10.786,0.137,15.809,1.16c5.033,1.002,9.737,2.669,14.031,4.716
						c4.296,2.049,8.183,4.506,11.589,7.226c6.842,5.426,11.814,11.731,15.243,17.729c3.434,6.021,5.341,11.741,6.443,16.473
						c1.062,4.755,1.396,8.538,1.478,11.096C200.056,144.945,199.994,146.29,199.994,146.29z"/>
				</g>
			</g>
		</g>
		<g>
			<path style="fill:#FF725E;" d="M110.56,227.111l3.28-19.094l10.727,3.898l-8.153,17.058c-0.627,1.312-2.082,2.012-3.499,1.684
				l0,0C111.315,230.286,110.282,228.731,110.56,227.111z"/>
		</g>
		<g>
			<path style="fill:#FF725E;" d="M204.75,201.129l-10.887-16.025l-8.153,7.987l14.481,12.156c1.114,0.935,2.728,0.97,3.882,0.085
				l0,0C205.377,204.332,205.674,202.488,204.75,201.129z"/>
		</g>
		<g>
			
				<rect x="118.56" y="68.012" transform="matrix(0.9527 -0.3038 0.3038 0.9527 -17.1615 40.0595)" style="fill:#FF725E;" width="3.212" height="14.345"/>
		</g>
		<g>
			<path style="fill:#FF725E;" d="M120.932,67.782l-5.677,1.81c-1.121,0.357-2.319-0.261-2.676-1.382l-0.477-1.496
				c-0.357-1.121,0.261-2.319,1.382-2.676l5.677-1.81c1.121-0.357,2.319,0.261,2.676,1.382l0.477,1.496
				C122.672,66.227,122.053,67.425,120.932,67.782z"/>
		</g>
		<g>
			<path style="fill:#E0E0E0;" d="M137.587,131.088c-0.725-2.231,1.654-6.754,1.479-10.94c-0.176-4.186-8.236-21.402-8.849-22.683
				c-0.238-0.497-0.514-0.744-0.762-0.861c-0.279-0.13-0.578,0.138-0.483,0.43l5.563,17.125c0.095,0.292-0.017,0.627-0.29,0.768
				c-0.348,0.179-0.757,0-0.872-0.356l-5.924-16.859c-0.128-0.365-0.524-0.561-0.892-0.441c-0.371,0.12-0.576,0.516-0.461,0.888
				l5.264,17.031c0.095,0.292-0.017,0.627-0.289,0.768c-0.348,0.179-0.757,0-0.873-0.356l-5.831-16.86
				c-0.131-0.38-0.543-0.584-0.925-0.46c-0.382,0.125-0.595,0.533-0.477,0.917l5.22,17.022c0.095,0.292-0.017,0.627-0.29,0.768
				c-0.348,0.179-0.757,0-0.872-0.356l-5.57-17.145c-0.103-0.316-0.531-0.361-0.697-0.073c-0.138,0.24-0.221,0.606-0.12,1.16
				c0.256,1.397,3.854,20.063,6.171,23.553c2.318,3.49,6.901,5.751,7.626,7.982c0.662,2.037,13.315,45.674,15.515,53.262
				c0.179,0.617,0.831,0.956,1.441,0.757l4.603-1.495c0.614-0.2,0.942-0.862,0.718-1.468
				C153.969,175.731,138.249,133.124,137.587,131.088z"/>
		</g>
		<g>
			<path style="fill:#E0E0E0;" d="M175.727,102.832c0,0-6.237-1.775-14.143,6.988c-7.906,8.763-18.631,23.415-18.906,24.293
				c-0.657,2.096,1.113,3.16,1.99,5.263c0.518,1.241,0.818,1.067-1.355,4.124c-1.95,2.742-21.299,24.782-25.253,29.279
				c-0.377,0.429-0.3,1.088,0.165,1.421l5.794,4.143c0.445,0.318,1.065,0.203,1.367-0.253l24.817-37.549
				c0,0,25.564-34.411,25.906-35.065C176.45,104.821,177.399,103.661,175.727,102.832z"/>
		</g>
		<g>
			<g>
				<path style="fill:#FF725E;" d="M161.146,45.268c0,0,2.983-5.958,9.763-4.057c6.78,1.902,6.396,8.36,6.396,8.36L161.146,45.268z"
					/>
			</g>
			<g>
				<path style="fill:#FF725E;" d="M129.559,63.037c0,0,12.401-24.767,40.582-16.862c28.181,7.904,26.586,34.752,26.586,34.752
					L129.559,63.037z"/>
			</g>
			<g>
				<path style="fill:#263238;" d="M197.218,81.293c-0.96,3.571-16.884,2.395-35.569-2.628s-33.052-11.988-32.092-15.56
					c0.96-3.571,16.885-2.395,35.569,2.628S198.178,77.722,197.218,81.293z"/>
			</g>
			<g>
				<polygon style="fill:#FF725E;" points="159.863,64.403 156.236,80.006 165.207,81.864 169.23,66.889 				"/>
			</g>
			<g style="opacity:0.3;">
				<path d="M129.572,63.867c0,0,17.11,1.265,22.668,2.309c5.558,1.045,24.696,5.997,30.89,8.496
					c6.194,2.499,12.489,7.985,12.489,7.985l1.598-1.365c0,0,0.627-1.853-3.126-4.089c-3.753-2.237-20.735-11.199-42.132-14.476
					c-21.397-3.277-22.37-0.592-22.608,0.759"/>
			</g>
			<g>
				<g>
					<path style="fill:#263238;" d="M181.691,51.224c-0.053,0.072-1.146-0.731-3.049-1.793c-1.897-1.067-4.632-2.351-7.806-3.329
						c-3.175-0.975-6.164-1.431-8.336-1.502c-2.173-0.09-3.517,0.116-3.53,0.021c-0.005-0.035,0.326-0.108,0.934-0.21
						c0.304-0.061,0.679-0.095,1.116-0.124c0.437-0.041,0.935-0.066,1.487-0.055c2.208-0.023,5.261,0.383,8.481,1.372
						c3.219,0.992,5.969,2.349,7.839,3.509c0.939,0.574,1.669,1.088,2.148,1.474C181.458,50.971,181.713,51.196,181.691,51.224z"/>
				</g>
			</g>
		</g>
		<g style="opacity:0.3;">
			<g>
				<path style="fill:#FFFFFF;" d="M163.199,45.811c-10.719-1.03-21.818,4.066-28.022,12.868c2.62,0.285,5.24,0.571,7.861,0.856
					C146.842,51.856,154.638,46.184,163.199,45.811z"/>
			</g>
		</g>
		<g style="opacity:0.3;">
			<g>
				<path style="fill:#FFFFFF;" d="M171.668,42.917c-0.06,0.144-1.64-0.777-3.741-0.561c-2.104,0.199-3.474,1.41-3.561,1.28
					c-0.044-0.047,0.229-0.414,0.832-0.833c0.596-0.418,1.549-0.855,2.678-0.966c1.128-0.111,2.149,0.132,2.814,0.425
					C171.363,42.556,171.703,42.863,171.668,42.917z"/>
			</g>
		</g>
		<g style="opacity:0.3;">
			<g>
				<path style="fill:#FFFFFF;" d="M77.574,168.88c-0.017,0.006-0.104-0.189-0.254-0.569c-0.164-0.433-0.374-0.986-0.633-1.668
					c-0.277-0.725-0.603-1.616-0.9-2.677c-0.301-1.059-0.716-2.247-1.001-3.607c-0.322-1.35-0.682-2.828-0.926-4.443
					c-0.318-1.603-0.496-3.339-0.7-5.164c-0.314-3.657-0.394-7.706-0.044-11.933c0.39-4.225,1.173-8.199,2.118-11.747
					c0.518-1.762,0.996-3.44,1.588-4.964c0.521-1.548,1.132-2.941,1.685-4.214c0.517-1.289,1.132-2.387,1.613-3.378
					c0.476-0.994,0.953-1.815,1.352-2.48c0.374-0.627,0.676-1.134,0.914-1.533c0.214-0.347,0.333-0.525,0.349-0.516
					c0.015,0.009-0.074,0.205-0.258,0.569c-0.215,0.41-0.489,0.933-0.827,1.578c-0.37,0.678-0.819,1.51-1.268,2.512
					c-0.454,0.999-1.043,2.102-1.535,3.394c-0.527,1.276-1.115,2.668-1.616,4.213c-0.571,1.52-1.029,3.192-1.531,4.945
					c-0.913,3.529-1.675,7.475-2.063,11.667c-0.347,4.195-0.283,8.212,0.003,11.845c0.19,1.813,0.35,3.539,0.648,5.135
					c0.224,1.608,0.561,3.081,0.858,4.429c0.26,1.357,0.648,2.546,0.922,3.609c0.268,1.065,0.566,1.962,0.812,2.694
					c0.221,0.694,0.4,1.257,0.54,1.698C77.537,168.665,77.591,168.874,77.574,168.88z"/>
			</g>
		</g>
		<g>
			<g>
				<path style="fill:#263238;" d="M171.309,84.964c-0.009,0.016-0.221-0.073-0.617-0.258c-0.441-0.212-1.011-0.487-1.718-0.827
					c-0.373-0.179-0.78-0.392-1.238-0.601c-0.467-0.197-0.97-0.41-1.508-0.637c-0.543-0.231-1.12-0.476-1.73-0.736
					c-0.628-0.228-1.288-0.468-1.981-0.72c-5.531-2.048-13.567-3.95-22.579-4.294c-2.071-0.078-4.111-0.075-6.043,0.059
					l-0.013,0.001l-0.009,0c-3.764,0.051-7.28,0.751-10.388,1.483c-3.114,0.745-5.836,1.61-8.069,2.426
					c-2.234,0.815-3.981,1.579-5.157,2.157c-1.181,0.567-1.805,0.923-1.826,0.885c-0.008-0.014,0.141-0.114,0.434-0.295
					c0.295-0.177,0.724-0.453,1.311-0.752c1.156-0.631,2.892-1.447,5.121-2.308c2.228-0.863,4.953-1.769,8.079-2.549
					c1.561-0.398,3.226-0.751,4.978-1.037c1.752-0.283,3.594-0.511,5.515-0.522l-0.022,0.001c1.978-0.144,4.018-0.148,6.109-0.07
					c9.075,0.346,17.157,2.32,22.687,4.469c0.691,0.265,1.352,0.518,1.978,0.759c0.608,0.274,1.183,0.533,1.723,0.776
					c0.534,0.242,1.033,0.469,1.497,0.679c0.453,0.223,0.855,0.451,1.222,0.644c0.69,0.377,1.246,0.681,1.677,0.916
					C171.123,84.828,171.318,84.948,171.309,84.964z"/>
			</g>
		</g>
		<g>
			<g>
				<path style="fill:#263238;" d="M120.524,68.316c0.043,0.137-0.96,0.572-2.241,0.971c-1.28,0.399-2.353,0.612-2.396,0.474
					c-0.043-0.137,0.96-0.572,2.241-0.971C119.409,68.391,120.481,68.179,120.524,68.316z"/>
			</g>
		</g>
		<g>
			<g>
				<g>
					<path style="fill:#FF725E;" d="M55.178,84.026c0,0-3.889-5.411,0.946-10.53c4.835-5.119,10.375-1.777,10.375-1.777
						L55.178,84.026z"/>
				</g>
				<g>
					<path style="fill:#FF725E;" d="M56.229,120.252c0,0-16.164-22.492,3.933-43.769c20.098-21.277,43.127-7.385,43.127-7.385
						L56.229,120.252z"/>
				</g>
				<g>
					<path style="fill:#263238;" d="M103.582,69.113c2.716,2.51-5.67,16-18.73,30.131c-13.06,14.131-25.848,23.552-28.564,21.042
						c-2.716-2.51,5.67-16,18.729-30.131C88.078,76.024,100.866,66.604,103.582,69.113z"/>
				</g>
				<g>
					<polygon style="fill:#FF725E;" points="71.524,94.055 83.653,104.52 89.469,97.44 78.079,86.917 					"/>
				</g>
				<g style="opacity:0.3;">
					<path d="M56.97,120.626c0,0,9.073-14.562,12.582-18.997C73.06,97.194,86.34,82.55,91.432,78.228
						c5.092-4.323,12.681-7.554,12.681-7.554l-0.196-1.105l-0.275-0.421c0,0-1.332-1.488-5.61,1.088
						c-3.743,2.254-18.817,12.616-31.664,30.039c-12.847,17.422-10.922,19.532-9.837,20.37"/>
				</g>
				<g>
					<g>
						<path style="fill:#263238;" d="M70.002,68.604c0.039,0.081-1.181,0.675-3.005,1.866c-1.827,1.184-4.235,3.008-6.576,5.364
							c-2.339,2.358-4.132,4.792-5.204,6.682c-1.09,1.882-1.532,3.168-1.622,3.135c-0.034-0.012,0.056-0.339,0.249-0.925
							c0.087-0.297,0.231-0.645,0.409-1.046c0.167-0.406,0.376-0.859,0.642-1.343c1.005-1.966,2.785-4.48,5.157-6.871
							c2.374-2.389,4.854-4.194,6.751-5.31c0.945-0.564,1.739-0.972,2.304-1.217C69.669,68.692,69.987,68.571,70.002,68.604z"/>
					</g>
				</g>
				<g>
					<g>
						<path style="fill:#263238;" d="M94.867,92.283c0.052,0.065-1.11,1.033-2.893,2.694c-1.783,1.66-4.165,4.044-6.519,6.917
							c-2.352,2.876-4.193,5.698-5.378,7.823c-1.193,2.121-1.795,3.509-1.877,3.475c-0.033-0.014,0.089-0.373,0.338-1.012
							c0.243-0.642,0.654-1.547,1.215-2.638c1.111-2.188,2.925-5.076,5.299-7.978c2.375-2.899,4.82-5.263,6.676-6.861
							c0.928-0.801,1.7-1.423,2.253-1.828C94.53,92.467,94.844,92.255,94.867,92.283z"/>
					</g>
				</g>
			</g>
			<g style="opacity:0.3;">
				<g>
					<path style="fill:#FFFFFF;" d="M57.512,81.274c-5.895,9.012-6.541,21.208-1.632,30.792c1.471-2.187,2.941-4.375,4.412-6.562
						C55.261,98.568,53.863,89.028,57.512,81.274z"/>
				</g>
			</g>
			<g style="opacity:0.3;">
				<g>
					<path style="fill:#FFFFFF;" d="M57.616,73.323c0.1,0.12-1.45,1.091-2.236,3.052c-0.802,1.955-0.366,3.731-0.521,3.748
						c-0.062,0.018-0.26-0.395-0.351-1.123c-0.093-0.721-0.037-1.769,0.389-2.82c0.426-1.051,1.115-1.841,1.685-2.294
						C57.154,73.425,57.584,73.267,57.616,73.323z"/>
				</g>
			</g>
		</g>
		<g>
			<g>
				<g>
					<path style="fill:#263238;" d="M191.871,151.872c-1.427-0.18-2.559-0.541-2.529-0.805c0.03-0.265,1.215-0.36,2.646-0.211
						c1.43,0.148,2.562,0.509,2.528,0.805C194.482,151.957,193.298,152.051,191.871,151.872z"/>
				</g>
			</g>
			<g>
				<g>
					<path style="fill:#263238;" d="M171.666,187.428c-0.882-1.136-1.427-2.192-1.219-2.358c0.209-0.166,1.113,0.605,2.02,1.722
						c0.906,1.116,1.452,2.171,1.218,2.357S172.547,188.564,171.666,187.428z"/>
				</g>
			</g>
			<g>
				<g>
					<path style="fill:#263238;" d="M132.232,198.285c0.18-1.427,0.54-2.559,0.805-2.529c0.265,0.03,0.36,1.215,0.211,2.646
						c-0.148,1.43-0.509,2.562-0.805,2.528C132.147,200.896,132.052,199.711,132.232,198.285z"/>
				</g>
			</g>
			<g>
				<g>
					<path style="fill:#263238;" d="M96.675,178.08c1.137-0.882,2.192-1.427,2.358-1.219c0.166,0.209-0.605,1.113-1.722,2.02
						c-1.116,0.906-2.171,1.452-2.357,1.218C94.768,179.865,95.539,178.961,96.675,178.08z"/>
				</g>
			</g>
			<g>
				<g>
					<path style="fill:#263238;" d="M85.819,138.646c1.427,0.18,2.559,0.54,2.529,0.805c-0.03,0.265-1.215,0.36-2.646,0.211
						c-1.43-0.148-2.562-0.509-2.528-0.805C83.208,138.561,84.392,138.466,85.819,138.646z"/>
				</g>
			</g>
			<g>
				<g>
					<path style="fill:#263238;" d="M106.024,103.089c0.882,1.137,1.427,2.192,1.219,2.358c-0.209,0.166-1.113-0.605-2.02-1.722
						c-0.906-1.116-1.452-2.171-1.218-2.357C104.238,101.182,105.143,101.953,106.024,103.089z"/>
				</g>
			</g>
			<g>
				<g>
					<path style="fill:#263238;" d="M145.458,92.232c-0.18,1.427-0.541,2.559-0.805,2.529c-0.265-0.03-0.36-1.215-0.211-2.646
						c0.148-1.43,0.509-2.562,0.805-2.528C145.543,89.622,145.637,90.806,145.458,92.232z"/>
				</g>
			</g>
			<g>
				<g>
					<path style="fill:#263238;" d="M181.015,112.438c-1.137,0.882-2.192,1.427-2.358,1.219c-0.166-0.209,0.605-1.113,1.722-2.02
						c1.116-0.906,2.171-1.452,2.357-1.218C182.921,110.652,182.151,111.557,181.015,112.438z"/>
				</g>
			</g>
		</g>
		<g>
			<g>
				<path style="fill:#263238;" d="M54.118,63.481c0.013,0.013-0.091,0.15-0.301,0.4c-0.253,0.291-0.561,0.646-0.933,1.075
					c-0.417,0.455-0.914,1.022-1.437,1.726c-0.531,0.697-1.183,1.453-1.778,2.382c-0.312,0.456-0.637,0.932-0.975,1.427
					c-0.336,0.498-0.632,1.051-0.968,1.603c-0.693,1.095-1.29,2.344-1.953,3.639c-1.229,2.636-2.375,5.631-3.225,8.881
					c-0.811,3.261-1.24,6.44-1.424,9.343c-0.039,1.454-0.113,2.837-0.029,4.13c0.031,0.646,0.026,1.273,0.082,1.871
					c0.06,0.596,0.117,1.17,0.173,1.72c0.077,1.101,0.287,2.077,0.419,2.943c0.122,0.868,0.288,1.604,0.435,2.204
					c0.121,0.555,0.222,1.014,0.304,1.39c0.064,0.32,0.089,0.49,0.072,0.495c-0.017,0.005-0.076-0.156-0.173-0.467
					c-0.108-0.371-0.24-0.823-0.4-1.37c-0.178-0.595-0.374-1.328-0.524-2.197c-0.16-0.866-0.397-1.846-0.499-2.953
					c-0.066-0.553-0.136-1.131-0.208-1.731c-0.067-0.603-0.073-1.234-0.113-1.886c-0.103-1.305-0.045-2.701-0.019-4.171
					c0.159-2.934,0.578-6.152,1.398-9.448c0.859-3.285,2.031-6.31,3.297-8.961c0.681-1.303,1.299-2.556,2.014-3.652
					c0.348-0.553,0.655-1.105,1.002-1.602c0.351-0.492,0.688-0.966,1.011-1.42c0.62-0.923,1.297-1.669,1.852-2.353
					c0.549-0.691,1.071-1.241,1.513-1.678c0.402-0.404,0.734-0.737,1.007-1.011C53.976,63.581,54.105,63.468,54.118,63.481z"/>
			</g>
		</g>
		<g>
			<g>
				<path style="fill:#263238;" d="M38.663,78.633c0.138,0.071-0.828,2.093-1.587,4.73c-0.775,2.633-1.043,4.858-1.198,4.843
					c-0.132-0.003-0.093-2.295,0.698-4.989C37.353,80.52,38.55,78.564,38.663,78.633z"/>
			</g>
		</g>
		<g>
			<g>
				<path style="fill:#263238;" d="M207.635,72.771c-0.036,0.005-0.167-0.548-0.375-1.549c-0.096-0.502-0.224-1.114-0.418-1.814
					c-0.187-0.701-0.359-1.509-0.653-2.374c-0.265-0.873-0.561-1.827-0.956-2.824c-0.348-1.015-0.826-2.057-1.303-3.163
					c-1.022-2.181-2.288-4.513-3.837-6.823c-1.573-2.295-3.27-4.335-4.919-6.092c-0.851-0.853-1.642-1.682-2.456-2.381
					c-0.781-0.736-1.557-1.364-2.27-1.934c-0.695-0.593-1.382-1.052-1.964-1.486c-0.578-0.44-1.099-0.784-1.53-1.06
					c-0.853-0.563-1.318-0.89-1.3-0.921c0.018-0.031,0.517,0.237,1.408,0.75c0.449,0.25,0.99,0.572,1.587,0.992
					c0.601,0.413,1.309,0.855,2.024,1.434c0.733,0.556,1.53,1.173,2.331,1.902c0.834,0.692,1.645,1.518,2.514,2.371
					c1.685,1.757,3.414,3.812,5.004,6.132c1.566,2.336,2.835,4.702,3.843,6.918c0.47,1.123,0.937,2.182,1.271,3.213
					c0.381,1.014,0.659,1.983,0.904,2.87c0.273,0.879,0.422,1.7,0.583,2.411c0.168,0.711,0.267,1.332,0.334,1.842
					C207.607,72.203,207.671,72.766,207.635,72.771z"/>
			</g>
		</g>
		<g>
			<g>
				<path style="fill:#263238;" d="M208.269,62.255c-0.161,0.009-0.204-2.03-1.179-4.28c-0.947-2.264-2.387-3.707-2.269-3.817
					c0.069-0.109,1.748,1.232,2.748,3.613C208.591,60.14,208.395,62.281,208.269,62.255z"/>
			</g>
		</g>
		<g>
			<g>
				<path style="fill:#263238;" d="M102.181,212.145c-0.006,0.017-0.2-0.042-0.564-0.171c-0.416-0.154-0.94-0.348-1.585-0.587
					c-0.691-0.25-1.527-0.58-2.466-1.035c-0.943-0.445-2.043-0.903-3.184-1.557c-0.579-0.314-1.185-0.642-1.814-0.982
					c-0.628-0.346-1.248-0.764-1.908-1.165c-1.334-0.784-2.664-1.767-4.083-2.771c-2.772-2.097-5.67-4.608-8.425-7.53
					c-2.726-2.952-5.03-6.017-6.931-8.928c-0.904-1.485-1.792-2.88-2.482-4.265c-0.355-0.686-0.729-1.334-1.031-1.985
					c-0.297-0.651-0.582-1.278-0.855-1.878c-0.573-1.183-0.954-2.313-1.333-3.284c-0.389-0.968-0.66-1.825-0.862-2.532
					c-0.193-0.659-0.351-1.196-0.476-1.621c-0.103-0.372-0.149-0.57-0.132-0.575c0.017-0.005,0.097,0.183,0.232,0.544
					c0.149,0.416,0.337,0.942,0.567,1.588c0.231,0.694,0.528,1.537,0.941,2.491c0.403,0.957,0.805,2.07,1.396,3.236
					c0.281,0.591,0.574,1.209,0.879,1.852c0.309,0.642,0.69,1.28,1.05,1.957c0.701,1.367,1.597,2.743,2.506,4.21
					c1.909,2.875,4.205,5.905,6.909,8.833c2.733,2.898,5.597,5.399,8.332,7.501c1.401,1.007,2.711,1.996,4.026,2.79
					c0.651,0.407,1.261,0.83,1.88,1.183c0.62,0.349,1.216,0.684,1.786,1.005c1.123,0.671,2.205,1.149,3.132,1.617
					c0.923,0.478,1.744,0.833,2.42,1.111c0.628,0.275,1.14,0.499,1.545,0.676C102.006,212.036,102.188,212.128,102.181,212.145z"/>
			</g>
		</g>
		<g>
			<g>
				<path style="fill:#263238;" d="M79.399,208.13c-0.101,0.103-2.832-2.418-6.099-5.628c-3.269-3.212-5.836-5.898-5.735-6
					c0.101-0.103,2.831,2.417,6.1,5.629C76.932,205.34,79.5,208.027,79.399,208.13z"/>
			</g>
		</g>
		<g>
			<g>
				<path style="fill:#263238;" d="M213.04,115.754c0.016-0.007,0.118,0.189,0.298,0.57c0.197,0.434,0.45,0.99,0.764,1.678
					c0.336,0.728,0.725,1.627,1.109,2.699c0.393,1.068,0.889,2.267,1.292,3.643c0.216,0.685,0.441,1.401,0.676,2.146
					c0.231,0.748,0.41,1.542,0.629,2.356c0.458,1.624,0.79,3.395,1.171,5.252c0.66,3.733,1.152,7.881,1.285,12.258
					c0.094,4.379-0.182,8.549-0.648,12.311c-0.284,1.875-0.523,3.661-0.897,5.307c-0.176,0.824-0.314,1.627-0.506,2.386
					c-0.196,0.756-0.384,1.482-0.564,2.178c-0.331,1.395-0.765,2.619-1.101,3.705c-0.328,1.09-0.67,2.008-0.968,2.752
					c-0.277,0.703-0.501,1.272-0.675,1.715c-0.16,0.39-0.252,0.591-0.268,0.584c-0.017-0.007,0.042-0.221,0.17-0.622
					c0.15-0.451,0.344-1.03,0.583-1.745c0.267-0.753,0.581-1.677,0.881-2.771c0.309-1.091,0.716-2.316,1.023-3.711
					c0.169-0.695,0.345-1.42,0.529-2.175c0.18-0.757,0.308-1.558,0.474-2.379c0.354-1.64,0.575-3.419,0.845-5.284
					c0.437-3.743,0.697-7.886,0.603-12.237c-0.133-4.348-0.607-8.471-1.237-12.186c-0.366-1.848-0.679-3.613-1.117-5.232
					c-0.208-0.812-0.377-1.605-0.596-2.351c-0.222-0.744-0.436-1.46-0.641-2.145c-0.378-1.377-0.849-2.58-1.214-3.653
					c-0.356-1.077-0.717-1.984-1.023-2.722c-0.276-0.703-0.499-1.271-0.672-1.713C213.094,115.972,213.024,115.761,213.04,115.754z"
					/>
			</g>
		</g>
		<g>
			<g>
				<path style="fill:#263238;" d="M224.961,132.859c0.035-0.008,0.146,0.368,0.315,1.056c0.175,0.686,0.381,1.691,0.593,2.939
					c0.428,2.496,0.807,5.989,0.802,9.86c-0.012,3.873-0.408,7.364-0.848,9.858c-0.218,1.247-0.429,2.251-0.607,2.936
					c-0.173,0.687-0.285,1.062-0.32,1.054c-0.082-0.018,0.221-1.551,0.563-4.046c0.345-2.495,0.678-5.962,0.691-9.803
					c0.005-3.84-0.312-7.309-0.645-9.804C225.175,134.412,224.879,132.877,224.961,132.859z"/>
			</g>
		</g>
		<g>
			<g>
				<path style="fill:#263238;" d="M109.912,71.676c-0.041,0.044-0.499-0.284-0.979-1.042c-0.479-0.745-0.931-1.968-0.838-3.357
					c0.094-1.39,0.706-2.541,1.281-3.215c0.578-0.687,1.075-0.95,1.11-0.901c0.053,0.063-0.348,0.423-0.815,1.122
					c-0.467,0.69-0.97,1.767-1.056,3.03c-0.084,1.262,0.27,2.397,0.64,3.143C109.624,71.211,109.974,71.62,109.912,71.676z"/>
			</g>
		</g>
		<g>
			<g>
				<path style="fill:#263238;" d="M124.741,69.714c-0.14-0.072,0.648-1.461,0.622-3.348c0.011-1.888-0.789-3.27-0.65-3.343
					c0.054-0.034,0.334,0.264,0.62,0.854c0.287,0.586,0.545,1.479,0.55,2.486c0.003,1.008-0.247,1.902-0.529,2.491
					C125.072,69.447,124.795,69.748,124.741,69.714z"/>
			</g>
		</g>
		<g>
			<g>
				<path style="fill:#263238;" d="M91.939,74.448c0.021,0.029-0.363,0.352-1.074,0.91c-0.717,0.549-1.732,1.373-2.977,2.399
					c-2.477,2.067-5.801,5.044-9.223,8.585c-3.438,3.527-6.368,6.896-8.46,9.357c-0.994,1.175-1.824,2.155-2.473,2.921
					c-0.585,0.69-0.922,1.061-0.95,1.038s0.255-0.436,0.791-1.164c0.539-0.727,1.334-1.768,2.347-3.03
					c2.023-2.525,4.918-5.944,8.371-9.486c3.436-3.555,6.818-6.506,9.365-8.508c1.28-0.994,2.333-1.775,3.089-2.276
					C91.495,74.686,91.918,74.419,91.939,74.448z"/>
			</g>
		</g>
		<g>
			<g>
				<path style="fill:#263238;" d="M181.357,71.049c-0.013,0.034-0.377-0.07-1.023-0.287c-0.753-0.258-1.663-0.57-2.728-0.936
					c-2.301-0.795-5.486-1.868-9.04-2.933c-3.556-1.063-6.81-1.898-9.181-2.441c-2.369-0.547-3.848-0.833-3.836-0.912
					c0.006-0.035,0.382-0.005,1.06,0.081c0.678,0.083,1.653,0.241,2.852,0.471c2.399,0.452,5.684,1.236,9.254,2.302
					c3.568,1.069,6.745,2.202,9.017,3.087c1.137,0.441,2.05,0.816,2.674,1.092C181.031,70.848,181.37,71.015,181.357,71.049z"/>
			</g>
		</g>
		<g>
			<path style="fill:#263238;" d="M108.525,129.283c0.749-1.709,2.082-2.868,3.998-3.479c1.916-0.61,3.085-0.255,3.507,1.068
				c0.283,0.89,0.332,1.773,0.146,2.648c-0.186,0.876-0.552,1.678-1.099,2.403c-1.094,1.381-2.51,2.572-4.249,3.58
				c0.795,4.067,1.017,7.089,0.665,9.06c2.324,0.038,3.881,0.037,4.673-0.001c0.792-0.038,1.592-0.188,2.402-0.445
				c0.809-0.258,1.257-0.765,1.343-1.522c0.086-0.755,0.197-1.155,0.333-1.198c0.274-0.088,0.465,0.04,0.574,0.382
				c0.342,1.072,0.233,2.111-0.325,3.118c-0.559,1.008-1.305,1.66-2.24,1.959c-0.959,0.305-1.877,0.422-2.753,0.35
				c-0.878-0.072-1.434-0.121-1.668-0.146c-0.234-0.026-0.713-0.087-1.434-0.184c-0.722-0.096-1.227-0.161-1.514-0.195
				c-0.576,1.188-1.594,2.016-3.053,2.48c-0.594,0.189-1.187,0.14-1.781-0.148c-0.595-0.287-0.986-0.728-1.175-1.32
				c-0.415-1.301,0.12-2.187,1.602-2.659c0.639-0.204,1.575-0.339,2.811-0.406c-0.003-1.507-0.34-4.138-1.01-7.896
				c-0.244,0.104-0.577,0.222-0.998,0.357c-0.423,0.135-0.655,0.133-0.699-0.004c-0.138-0.433,0.368-0.896,1.517-1.388
				C107.634,133.128,107.776,130.992,108.525,129.283z M109.016,146.484c-1.505-0.148-2.411-0.174-2.719-0.075
				c-0.308,0.099-0.411,0.307-0.31,0.626c0.103,0.32,0.332,0.548,0.69,0.685c0.358,0.138,0.765,0.134,1.221-0.012
				C108.355,147.562,108.727,147.154,109.016,146.484z M113.707,131.702c0.702-1.066,0.857-2.216,0.465-3.447
				c-0.393-1.232-1.012-1.713-1.855-1.443c-1.847,0.589-2.414,3.145-1.701,7.666C111.973,133.693,113.004,132.768,113.707,131.702z"
				/>
			<path style="fill:#263238;" d="M120.638,141.798l-1.017-3.898c-0.778-2.44-1.09-3.811-0.934-4.112
				c0.155-0.301,0.453-0.767,0.893-1.398c0.44-0.63,0.791-0.986,1.053-1.07c0.262-0.083,0.442-0.091,0.54-0.021
				c0.098,0.07,0.19,0.241,0.277,0.517c0.313,0.98,0.412,2.041,0.299,3.183c0.327,2.208,0.705,3.983,1.134,5.329
				c0.43,1.347,0.86,1.95,1.294,1.812c0.525-0.167,0.995-0.818,1.411-1.957c0.416-1.138,0.691-2.721,0.823-4.748
				c-0.522-2.346-0.749-3.631-0.682-3.854c0.067-0.222,0.275-0.652,0.625-1.292c0.349-0.64,0.688-1.012,1.019-1.117
				c0.331-0.105,0.635,0.275,0.911,1.142c0.073,0.229,0.152,0.694,0.238,1.396c0.085,0.701,0.095,1.226,0.03,1.572
				c-0.047,0.72,0.456,2.731,1.511,6.039c0.197,0.616,0.363,0.901,0.5,0.857c0.38-0.145,0.762-0.801,1.145-1.966
				c0.383-1.164,0.674-2.596,0.874-4.293c0.199-1.697,0.374-2.569,0.523-2.617c0.148-0.047,0.251,0.021,0.309,0.203
				c0.204,0.64,0.196,1.76-0.021,3.361c-0.58,4.407-1.486,6.806-2.717,7.199c-0.89,0.283-1.621,0.316-2.193,0.097
				c-0.211-0.109-0.447-0.574-0.709-1.395c-0.262-0.82-0.519-1.743-0.771-2.771c-0.235,1.785-0.589,3.198-1.061,4.239
				c-0.472,1.044-1.158,1.708-2.059,1.995c-0.901,0.287-1.577,0.239-2.025-0.146C121.408,143.701,121.002,142.939,120.638,141.798z"
				/>
			<path style="fill:#263238;" d="M136.154,138.094l0.373,1.05c0.204,0.64,0.123,1.016-0.242,1.133
				c-0.548,0.174-1.097,0.268-1.645,0.279c-0.55,0.012-0.866-0.113-0.949-0.376c-0.084-0.263-0.308-1.183-0.674-2.763
				c-0.366-1.58-0.672-2.758-0.919-3.532l-0.644-2.02c-0.35-1.095-0.446-1.793-0.291-2.093c0.155-0.301,0.455-0.761,0.898-1.38
				c0.443-0.619,0.796-0.971,1.059-1.054c0.262-0.084,0.442-0.091,0.539-0.021c0.098,0.069,0.187,0.229,0.267,0.48
				c0.385,1.209,0.52,2.423,0.407,3.641c0.3,1.336,0.53,2.255,0.691,2.756c0.047-0.165,0.279-1.093,0.695-2.785
				c0.416-1.689,0.821-2.961,1.214-3.815c0.393-0.854,0.83-1.358,1.309-1.511c0.48-0.152,0.958-0.129,1.436,0.07
				c0.478,0.198,0.793,0.538,0.946,1.018c0.32,1.004,0.682,2.515,1.088,4.534c0.405,2.02,0.69,3.285,0.854,3.798
				c0.164,0.514,0.313,0.748,0.451,0.704c0.38-0.146,0.762-0.802,1.145-1.966c0.382-1.164,0.673-2.596,0.874-4.294
				c0.2-1.696,0.374-2.568,0.522-2.616c0.148-0.047,0.252,0.02,0.31,0.203c0.204,0.639,0.196,1.76-0.021,3.36
				c-0.581,4.408-1.486,6.807-2.718,7.199c-0.89,0.284-1.621,0.316-2.193,0.097c-0.211-0.109-0.423-0.5-0.638-1.172
				c-0.214-0.672-0.501-1.788-0.859-3.346c-0.358-1.557-0.657-2.711-0.897-3.464c-0.24-0.752-0.492-1.086-0.753-1.003
				c-0.263,0.084-0.703,1.085-1.323,3.004c-0.62,1.918-0.894,3.105-0.825,3.561C135.758,136.614,135.929,137.388,136.154,138.094z"
				/>
			<path style="fill:#263238;" d="M150.241,126.478l-0.282-1.831c-0.08-0.251-0.233-0.454-0.458-0.608
				c-0.225-0.154-0.463-0.191-0.713-0.111c-0.844,0.27-1.373,1.135-1.584,2.597c-0.212,1.463-0.133,2.775,0.238,3.939
				c0.371,1.163,0.91,2.027,1.618,2.592c0.709,0.567,1.41,0.739,2.106,0.518c0.696-0.222,1.266-0.58,1.712-1.074
				c0.446-0.494,0.802-1.11,1.069-1.849c0.559-1.56,0.925-3.246,1.1-5.063c0.052-0.468,0.1-0.809,0.145-1.025
				c0.044-0.216,0.129-0.343,0.255-0.383c0.125-0.04,0.217,0.03,0.275,0.213c0.24,0.753,0.265,1.738,0.075,2.954
				c-0.19,1.217-0.373,2.161-0.548,2.832c-0.176,0.673-0.439,1.403-0.789,2.194c-0.733,1.641-1.955,2.732-3.666,3.278
				c-1.3,0.415-2.435,0.268-3.401-0.441c-0.968-0.709-1.618-1.588-1.953-2.638c-0.829-2.601-0.895-4.758-0.199-6.476
				c0.696-1.718,1.911-2.853,3.645-3.405c0.73-0.232,1.365-0.229,1.908,0.014c0.542,0.241,0.889,0.602,1.042,1.08
				c0.284,0.891,0.335,1.603,0.154,2.137c-0.182,0.536-0.501,0.877-0.956,1.021C150.642,127.067,150.379,126.911,150.241,126.478z"
				/>
			<path style="fill:#263238;" d="M158.803,130.872l0.373,1.05c0.204,0.64,0.123,1.016-0.242,1.132
				c-0.547,0.175-1.096,0.268-1.645,0.28c-0.549,0.012-0.866-0.113-0.949-0.376c-0.084-0.263-0.308-1.183-0.674-2.763
				c-0.366-1.58-0.672-2.758-0.919-3.532l-0.633-1.985c-1.862-5.839-2.01-9.888-0.443-12.146c0.363-0.518,0.795-0.856,1.297-1.017
				c0.227-0.072,0.536,0.105,0.925,0.535c0.387,0.428,0.709,1.042,0.964,1.84c0.625,1.962,0.88,3.903,0.764,5.825
				c-0.116,1.922-0.37,3.448-0.764,4.578c0.159,0.578,0.431,1.471,0.816,2.679c0.047-0.165,0.279-1.093,0.695-2.785
				c0.415-1.689,0.82-2.961,1.214-3.815c0.393-0.855,0.83-1.358,1.309-1.511c0.479-0.153,0.958-0.129,1.436,0.07
				c0.478,0.198,0.794,0.538,0.947,1.018c0.32,1.004,0.682,2.515,1.087,4.534c0.405,2.019,0.69,3.285,0.853,3.798
				c0.164,0.514,0.314,0.748,0.451,0.704c0.38-0.146,0.762-0.802,1.145-1.966c0.382-1.165,0.673-2.596,0.874-4.294
				c0.2-1.696,0.374-2.568,0.522-2.616c0.148-0.047,0.252,0.02,0.31,0.202c0.204,0.64,0.196,1.76-0.021,3.361
				c-0.581,4.408-1.486,6.807-2.718,7.199c-0.89,0.283-1.621,0.316-2.193,0.097c-0.21-0.109-0.423-0.5-0.638-1.173
				c-0.214-0.672-0.501-1.787-0.859-3.345c-0.358-1.557-0.657-2.712-0.897-3.464c-0.24-0.752-0.492-1.086-0.753-1.003
				c-0.263,0.084-0.703,1.085-1.322,3.004c-0.62,1.918-0.895,3.106-0.825,3.561C158.406,129.391,158.578,130.166,158.803,130.872z
				 M156.173,114.939c-0.306-0.958-0.585-1.397-0.835-1.317c-0.411,0.131-0.406,1.524,0.013,4.179
				c0.224,1.412,0.574,3.022,1.05,4.83C156.852,119.395,156.776,116.832,156.173,114.939z"/>
		</g>
		<g>
			<path style="fill:#263238;" d="M109.761,160.457l-6.411,2.044l-1.492-4.682l18.694-5.961l1.493,4.682l-6.381,2.034l5.162,16.19
				l-5.903,1.883L109.761,160.457z"/>
			<path style="fill:#263238;" d="M122.76,151.155l5.904-1.883l6.655,20.871l-5.904,1.883L122.76,151.155z"/>
			<path style="fill:#263238;" d="M158.367,162.794l-3.587-11.043l-2.495,10.717l-2.624,0.836l-8.114-7.005l3.432,10.764
				l-5.456,1.74l-6.655-20.871l4.86-1.55l11.176,9.707l3.315-14.328l4.86-1.55l6.715,20.852L158.367,162.794z"/>
			<path style="fill:#263238;" d="M183.272,149.827l1.455,4.562l-16.757,5.343l-6.655-20.871l16.369-5.219l1.454,4.561
				l-10.525,3.355l1.122,3.519l9.273-2.956l1.407,4.413l-9.273,2.956l1.217,3.817L183.272,149.827z"/>
		</g>
	</g>
</g>
<g id="Character">
	<g>
		<g>
			<g>
				<g>
					<path style="fill:#263238;" d="M339.944,260.814c7.129-35.505,16.857-70.489,29.079-104.579l21.205-27.177
						c9.127-2.422,19.17,1.607,25.549,8.57c6.38,6.962,9.491,16.405,10.525,25.792c1.034,9.387,0.164,18.863-0.46,28.286
						c-1.42,21.461-1.61,43.31-7.949,63.862c-2.486,8.061-6.303,16.318-13.469,20.769c-7.629,4.74-17.331,4.146-26.216,2.833
						c-10.651-1.574-21.182-3.953-31.476-7.11c-2.521-0.773-5.261-1.778-6.531-4.089
						C339.027,265.833,339.464,263.206,339.944,260.814z"/>
				</g>
			</g>
			<g>
				<g>
					<g>
						<g>
							<g>
								<path style="fill:#263238;" d="M338.671,99.374c13.584-1.422,25.063,4.509,35.909,12.809
									c10.846,8.301,18.647,20.28,22.759,33.303c4.331,13.717,4.628,28.86-0.244,42.394
									c-4.873,13.535-15.108,25.274-28.325,30.954c-18.048,7.757-40.203,3.228-55.082-9.599
									c-14.879-12.826-22.565-32.949-22.059-52.585c0.349-13.529,4.46-27.13,12.719-37.85
									C312.609,108.079,325.182,100.478,338.671,99.374"/>
							</g>
						</g>
					</g>
					<g>
						<g>
							<g>
								<path style="fill:#263238;" d="M373.954,147.517c-1.635-5.267-0.505-10.957-0.933-16.455
									c-0.943-12.107-9.993-22.346-20.872-27.741c-10.122-5.018-22.885-4.884-35.673-1.637
									c-8.767,2.225-17.159,6.548-23.333,13.158c-8.192,8.773-11.708,21.681-9.096,33.396l61.956-5.003
									c5.442,5.123,11.016,10.336,17.816,13.434c1.996,0.91,4.159,1.636,6.342,1.432c2.183-0.204,4.378-1.539,5.027-3.633
									C375.895,152.178,374.664,149.804,373.954,147.517z"/>
							</g>
						</g>
					</g>
					<g>
						<g>
							<g>
								<path style="fill:#FFBF9D;" d="M304.561,284.617c0,0,3.641-41.419,3.632-41.322c0,0-21.754-4.178-25.561-32.795
									c-1.893-14.231-0.594-37.454,1.082-56.421c1.51-17.072,13.368-37.766,30.361-35.533l52.862,14.79
									c5.162,0.678,8.947,5.194,8.713,10.395l-9.113,102.884l-3.191,42.111L304.561,284.617z"/>
							</g>
						</g>
					</g>
					<g>
						<g>
							<g>
								<path style="fill:#263238;" d="M294.367,178.513c-0.118,1.929,1.419,3.619,3.431,3.778c2.008,0.158,3.735-1.272,3.852-3.201
									c0.116-1.928-1.421-3.619-3.428-3.778C296.211,175.152,294.483,176.585,294.367,178.513z"/>
							</g>
						</g>
					</g>
					<g>
						<g>
							<g>
								<path style="fill:#263238;" d="M288.452,166.296c0.44,0.488,3.262-1.491,7.195-1.382c3.93,0.053,6.766,2.15,7.205,1.679
									c0.216-0.208-0.225-1.08-1.458-2.027c-1.215-0.942-3.303-1.881-5.753-1.934c-2.451-0.048-4.534,0.802-5.742,1.695
									C288.666,165.225,288.234,166.077,288.452,166.296z"/>
							</g>
						</g>
					</g>
					<g>
						<g>
							<g>
								<path style="fill:#263238;" d="M329.852,178.514c-0.118,1.928,1.419,3.618,3.431,3.776c2.007,0.158,3.733-1.271,3.851-3.2
									c0.117-1.928-1.42-3.62-3.428-3.779C331.694,175.151,329.968,176.586,329.852,178.514z"/>
							</g>
						</g>
					</g>
					<g>
						<g>
							<g>
								<path style="fill:#263238;" d="M326.293,165.909c0.442,0.488,3.266-1.491,7.197-1.381c3.93,0.053,6.766,2.15,7.205,1.679
									c0.213-0.209-0.221-1.08-1.46-2.027c-1.214-0.943-3.302-1.883-5.752-1.935c-2.451-0.048-4.534,0.802-5.743,1.696
									C326.51,164.838,326.076,165.69,326.293,165.909z"/>
							</g>
						</g>
					</g>
					<g>
						<g>
							<g>
								<path style="fill:#263238;" d="M312.086,196.817c0.024-0.223-2.41-0.706-6.36-1.314c-1.001-0.13-1.948-0.352-2.099-1.042
									c-0.218-0.733,0.229-1.804,0.746-2.96c1.006-2.407,2.058-4.93,3.164-7.573c4.399-10.785,7.611-19.665,7.176-19.837
									c-0.436-0.174-4.357,8.427-8.756,19.213c-1.06,2.661-2.074,5.196-3.04,7.622c-0.409,1.132-1.095,2.41-0.62,3.93
									c0.251,0.757,0.975,1.32,1.615,1.509c0.639,0.213,1.203,0.238,1.699,0.28C309.592,196.96,312.065,197.04,312.086,196.817z"
									/>
							</g>
						</g>
					</g>
					<g>
						<g>
							<g>
								<path style="fill:#FF9A6C;" d="M308.194,243.295c0,0,19.143,1.72,38.428-9.218c0,0-10.847,20.916-39.307,17.529
									L308.194,243.295z"/>
							</g>
						</g>
					</g>
					<g>
						<g>
							<g>
								<path style="fill:#263238;" d="M325.485,150.039c0.361,1.079,4.301,0.672,8.901,1.344c4.616,0.58,8.303,2.025,8.94,1.081
									c0.284-0.452-0.339-1.474-1.817-2.547c-1.466-1.072-3.82-2.114-6.583-2.492c-2.763-0.373-5.311,0.003-7.009,0.644
									C326.205,148.709,325.332,149.528,325.485,150.039z"/>
							</g>
						</g>
					</g>
					<g>
						<g>
							<g>
								<path style="fill:#263238;" d="M290.027,149.124c0.669,0.91,3.402,0.052,6.662,0.089c3.26-0.075,6.002,0.752,6.66-0.166
									c0.29-0.447-0.122-1.352-1.306-2.229c-1.167-0.872-3.137-1.611-5.378-1.6c-2.24,0.015-4.201,0.775-5.357,1.661
									C290.134,147.769,289.733,148.68,290.027,149.124z"/>
							</g>
						</g>
					</g>
					<g>
						<g>
							<g>
								<path style="fill:#263238;" d="M384.308,139.87c-4.509-16.675-27.341-40.466-44.609-40.024l-28.219,15.275
									c1.25,9.441,8.123,17.917,17.103,21.091c4.796,1.695,10.631,2.36,13.337,6.667c2.763,4.398,0.763,10.538,3.316,15.061
									c3.538,6.269,13.957,6.439,16.522,13.165c1.121,2.939,0.316,6.355,1.49,9.273c1.563,3.888,10.998,9.146,15.044,8.057
									c4.046-1.089,4.358-7.883,5.82-11.385c2.498-5.986,1.719-9.179,1.135-12.61C383.864,156.314,386.459,147.826,384.308,139.87
									z"/>
							</g>
						</g>
					</g>
					<g>
						<g>
							<g>
								<path style="fill:#FFBF9D;" d="M366.369,191.279c0.059-2.122,2.638-7.064,4.743-7.339
									c5.62-0.731,15.698-0.027,15.433,14.191c-0.363,19.436-19.802,15.063-19.826,14.505
									C366.701,212.201,366.167,198.607,366.369,191.279z"/>
							</g>
						</g>
					</g>
					<g>
						<g>
							<g>
								<path style="fill:#FF9A6C;" d="M372.794,205.383c0.086-0.061,0.334,0.243,0.901,0.516c0.554,0.266,1.51,0.461,2.53,0.099
									c2.068-0.715,3.857-3.943,4.017-7.444c0.082-1.768-0.257-3.459-0.858-4.866c-0.567-1.433-1.467-2.443-2.499-2.646
									c-1.023-0.258-1.767,0.348-2.015,0.89c-0.271,0.54-0.154,0.93-0.259,0.96c-0.055,0.049-0.41-0.333-0.239-1.132
									c0.088-0.385,0.323-0.84,0.788-1.205c0.473-0.37,1.162-0.551,1.882-0.46c1.497,0.132,2.82,1.536,3.48,3.08
									c0.742,1.552,1.165,3.454,1.072,5.439c-0.198,3.915-2.271,7.541-5.096,8.301c-1.373,0.331-2.507-0.102-3.087-0.572
									C372.82,205.855,372.726,205.418,372.794,205.383z"/>
							</g>
						</g>
					</g>
					<g>
						<g>
							<g>
								<path style="fill:#263238;" d="M317.486,109.621c-2.29,7.776-14.931,17.125-20.589,22.931
									c-10.796,11.077-13.026,14.842-14.608,41.051c-4.162-9.353-7.225-18.454-6.206-28.641
									c1.019-10.187,5.436-20.175,13.006-27.067C296.658,111.002,307.469,107.508,317.486,109.621"/>
							</g>
						</g>
					</g>
				</g>
				<g>
					<g>
						<g>
							<path style="fill:#455A64;" d="M387.129,195.688c0.084,0.065,0.77-0.755,1.946-2.306c0.556-0.795,1.371-1.69,2.044-2.9
								c0.715-1.263,1.487-2.628,2.319-4.099c3.217-6.202,5.75-15.801,5.593-26.489c-0.139-5.34-0.94-10.38-2.027-14.867
								c-1.181-4.469-2.681-8.367-4.253-11.489c-0.788-1.558-1.632-2.904-2.347-4.088c-0.826-1.121-1.513-2.1-2.134-2.851
								c-1.354-1.422-2.129-2.158-2.204-2.083c-0.242,0.208,2.935,3.191,5.701,9.496c1.413,3.114,2.773,6.965,3.855,11.355
								c0.988,4.41,1.728,9.341,1.865,14.558c0.148,10.438-2.138,19.795-5.036,25.991c-0.745,1.481-1.437,2.856-2.076,4.128
								c-0.59,1.231-1.322,2.159-1.795,2.997C387.568,194.68,387.045,195.623,387.129,195.688z"/>
						</g>
					</g>
				</g>
			</g>
			<g>
				<path style="fill:#FF9A6C;" d="M324.361,205.8c-0.228-0.877-0.465-1.773-0.973-2.523c-0.508-0.75-1.347-1.341-2.252-1.301
					c-0.658,0.029-1.254,0.376-1.82,0.713c-2.433,1.451-4.865,2.902-7.298,4.353l-0.637,1.782c1.448,2.263,3.36,4.228,5.584,5.736
					c0.671,0.455,1.415,0.883,2.226,0.885c1.033,0.003,1.927-0.677,2.733-1.323c1.019-0.818,2.074-1.681,2.607-2.874
					C325.285,209.554,324.829,207.594,324.361,205.8z"/>
			</g>
			<g>
				<g>
					<path style="fill:#263238;" d="M318.877,215.994c-0.073-0.181,1.699-0.479,3.553-2.359c0.898-0.928,1.781-2.265,2.106-3.926
						c0.344-1.647,0.116-3.604-0.797-5.321c-0.223-0.431-0.494-0.829-0.789-1.195c-0.293-0.375-0.61-0.695-0.939-0.885
						c-0.337-0.191-0.618-0.218-0.967-0.096c-0.346,0.119-0.727,0.378-1.116,0.61c-1.535,0.934-2.925,1.762-4.1,2.446
						c-2.351,1.366-3.843,2.15-3.919,2.028c-0.076-0.122,1.277-1.126,3.527-2.652c1.125-0.763,2.475-1.656,3.982-2.635
						c0.376-0.234,0.749-0.523,1.289-0.733c0.53-0.231,1.297-0.175,1.803,0.142c0.524,0.296,0.911,0.707,1.244,1.12
						c0.341,0.417,0.651,0.87,0.905,1.359c1.036,1.951,1.259,4.161,0.816,6.014c-0.427,1.876-1.489,3.314-2.534,4.254
						c-1.059,0.951-2.122,1.431-2.864,1.661C319.326,216.051,318.89,216.054,318.877,215.994z"/>
				</g>
			</g>
		</g>
		<g>
			<g>
				<path style="fill:#FF725E;" d="M422.362,472.154l-14.211-36.598c0,0,0.953-37.762,4.468-55.028
					c3.516-17.266-4.284-113.064-4.284-113.064l-42.514-11.406c0,0-10.33,17.458-29.076,15.731
					c-21.959-2.022-29.674-15.731-29.674-15.731l-26.217,4.226c0,0-16.309,58.275-23.305,71.897
					c-6.996,13.622-7.563,55.623-7.563,55.623s7.587,23.467,9.457,31.314c0.271,1.139,0.176,2.332-0.27,3.414l-17.619,49.621
					H422.362z"/>
			</g>
			<g style="opacity:0.3;">
				<g>
					<path d="M391.236,376.438c0.398,5.23-0.701,13.324,0.287,18.476l8.437,1.801c3.204-6.196,5.332-12.946,6.261-19.859
						C406.221,376.856,391.124,374.967,391.236,376.438z"/>
				</g>
			</g>
			<g style="opacity:0.3;">
				<g>
					<path d="M379.267,409.643c-1.211-1.127-2.51-2.284-4.121-2.66c-1.648-0.385-3.359,0.108-4.979,0.596
						c-8.283,2.497-16.566,4.994-24.849,7.491l-17.717-4.59c3.474,6.883,9.38,12.508,16.424,15.644
						c7.044,3.136,15.176,3.76,22.616,1.736c3.059-0.832,6.198-2.108,9.295-1.43c2.912,0.638,5.155,2.872,7.435,4.792
						c6.976,5.875,17.609,6.219,26.697,6.984C401.31,426.805,389.792,419.437,379.267,409.643z"/>
				</g>
			</g>
			<g>
				<path style="fill:#FF725E;" d="M393.37,389.528l17.336,3.216l-2.958-64.305l0.588-60.974c0,0,21.927,6.956,32.833,27.6
					c10.906,20.644,12.955,48.939,14.123,64.231c1.348,17.644,2.501,61.052,0.819,71.553c-1.682,10.501-13.6,21.395-33.747,14.923
					c-10.181-3.27-46.156-33.939-46.156-33.939L393.37,389.528z"/>
			</g>
			<g>
				<path style="fill:#FF725E;" d="M280.855,260.285c0,0-36.413,6.848-43.812,21.179c-7.399,14.331-42.548,93.568-37.96,116.385
					c4.588,22.816,31.561,33.047,40.68,23.91c9.119-9.138,17.835-34.433,17.835-34.433L280.855,260.285z"/>
			</g>
			<g>
				<g>
					<path style="fill:#263238;" d="M414.451,441.509c-0.005,0.006-0.073-0.036-0.201-0.123c-0.148-0.104-0.335-0.236-0.567-0.399
						c-0.52-0.379-1.243-0.906-2.167-1.579c-1.905-1.413-4.632-3.436-8.036-5.961c-6.85-5.133-16.422-12.303-27.426-20.548
						l-0.208-0.155l0.162-0.204c3.011-3.788,6.215-7.819,9.514-11.969c3.074-3.859,6.065-7.615,8.92-11.2l0.099-0.124l0.154,0.034
						c5.249,1.147,10.212,2.231,14.78,3.229l-0.082-0.003c5.033-0.678,9.767-0.112,13.698,1.126
						c3.966,1.178,7.142,2.997,9.558,4.708c2.414,1.736,4.067,3.409,5.123,4.599c0.533,0.591,0.888,1.092,1.148,1.411
						c0.114,0.149,0.206,0.27,0.283,0.371c0.062,0.084,0.091,0.129,0.086,0.133c-0.005,0.004-0.044-0.033-0.115-0.11
						c-0.085-0.095-0.186-0.208-0.311-0.348c-0.278-0.302-0.65-0.787-1.198-1.36c-1.084-1.154-2.757-2.785-5.173-4.474
						c-2.418-1.665-5.58-3.433-9.51-4.567c-3.896-1.194-8.571-1.722-13.522-1.034l-0.042,0.006l-0.04-0.009
						c-4.571-0.984-9.537-2.052-14.79-3.183l0.252-0.09c-2.852,3.588-5.84,7.347-8.91,11.209c-3.303,4.147-6.511,8.174-9.526,11.96
						l-0.046-0.359c10.961,8.303,20.493,15.524,27.316,20.693c3.366,2.575,6.062,4.638,7.946,6.08
						c0.902,0.702,1.608,1.252,2.116,1.647c0.221,0.178,0.399,0.321,0.54,0.434C414.397,441.449,414.456,441.503,414.451,441.509z"
						/>
				</g>
			</g>
			<g>
				<g>
					<path style="fill:#263238;" d="M410.756,333.202c0.018-0.001,0.047,0.205,0.087,0.599c0.038,0.45,0.087,1.021,0.147,1.723
						c0.11,1.566,0.261,3.716,0.445,6.342c0.345,5.357,0.778,12.764,0.934,20.959c0.164,8.197-0.078,15.626-0.533,20.981
						c-0.093,1.34-0.234,2.548-0.349,3.609c-0.106,1.062-0.224,1.974-0.341,2.716c-0.107,0.697-0.194,1.263-0.263,1.71
						c-0.066,0.39-0.109,0.593-0.127,0.591c-0.018-0.003-0.009-0.211,0.023-0.605c0.043-0.449,0.098-1.019,0.166-1.72
						c0.086-0.745,0.174-1.658,0.253-2.72c0.087-1.061,0.202-2.268,0.271-3.607c0.36-5.349,0.543-12.76,0.38-20.945
						c-0.156-8.182-0.53-15.587-0.781-20.948c-0.116-2.63-0.211-4.783-0.28-6.351c-0.02-0.705-0.037-1.277-0.05-1.728
						C410.732,333.411,410.738,333.203,410.756,333.202z"/>
				</g>
			</g>
			<g>
				<g>
					<path style="fill:#263238;" d="M256.653,313.155c0.009,0.003-0.009,0.096-0.053,0.276c-0.053,0.208-0.121,0.47-0.204,0.795
						c-0.201,0.733-0.48,1.75-0.834,3.042c-0.374,1.318-0.823,2.932-1.304,4.816c-0.492,1.882-1.076,4.018-1.617,6.405
						c-1.186,4.748-2.324,10.47-3.208,16.872c-0.181,1.606-0.429,3.245-0.569,4.93c-0.125,1.687-0.253,3.409-0.383,5.162
						c-0.043,1.758-0.087,3.546-0.131,5.361c-0.016,1.815,0.081,3.656,0.116,5.52c0.325,7.456,1.338,14.507,2.507,20.867
						c0.336,1.581,0.665,3.124,0.984,4.623c0.319,1.499,0.616,2.957,0.989,4.347c0.728,2.783,1.301,5.405,2.005,7.749
						c0.668,2.349,1.273,4.478,1.806,6.355c0.574,1.847,1.071,3.444,1.481,4.764c0.39,1.281,0.698,2.29,0.919,3.017
						c0.093,0.323,0.167,0.583,0.227,0.789c0.048,0.179,0.069,0.272,0.06,0.275c-0.009,0.003-0.046-0.084-0.111-0.258
						c-0.072-0.202-0.163-0.457-0.276-0.773c-0.244-0.72-0.582-1.719-1.012-2.988c-0.434-1.314-0.96-2.903-1.567-4.741
						c-0.556-1.872-1.186-3.996-1.882-6.341c-0.728-2.341-1.323-4.962-2.07-7.746c-0.383-1.39-0.689-2.85-1.017-4.351
						c-0.327-1.501-0.663-3.046-1.007-4.63c-1.198-6.373-2.23-13.448-2.556-20.936c-0.035-1.872-0.131-3.721-0.114-5.544
						c0.047-1.823,0.094-3.619,0.139-5.384c0.135-1.76,0.268-3.489,0.398-5.183c0.146-1.692,0.4-3.336,0.588-4.947
						c0.913-6.422,2.093-12.151,3.326-16.895c0.565-2.386,1.175-4.518,1.694-6.394c0.509-1.879,0.986-3.486,1.39-4.796
						c0.394-1.281,0.705-2.289,0.928-3.016c0.104-0.319,0.188-0.576,0.254-0.78C256.609,313.241,256.644,313.152,256.653,313.155z"
						/>
				</g>
			</g>
			<g>
				<g>
					<path style="fill:#263238;" d="M252.553,321.365c-0.134,0.053-1.382-2.802-2.788-6.375c-1.406-3.574-2.438-6.514-2.304-6.567
						c0.134-0.053,1.382,2.801,2.788,6.376C251.656,318.373,252.687,321.313,252.553,321.365z"/>
				</g>
			</g>
			<g>
				<g>
					<path style="fill:#263238;" d="M417.669,317.589c0.129,0.063-1.493,3.649-3.623,8.009c-2.13,4.361-3.962,7.844-4.091,7.781
						c-0.129-0.063,1.493-3.648,3.623-8.01C415.709,321.009,417.54,317.525,417.669,317.589z"/>
				</g>
			</g>
			<g>
				<polygon style="fill:#FFBF9D;" points="282.668,260.285 326.969,321.365 390.57,262.136 365.822,256.059 307.072,256.059 				
					"/>
			</g>
			<g style="opacity:0.3;">
				<g>
					<path d="M248.715,311.61c-0.012,13.583-1.103,28.445-4.176,41.675l0.927,14.967c0.554,12.785-2.698,21.849-8.408,33.302
						c5.315-2.486,8.799-7.906,10.298-13.579c1.499-5.672,1.276-11.642,0.926-17.499c-0.523-8.747-0.616-17.258,0.986-25.874
						c0.932-5.015,2.533-14.597,3.801-19.246C253.069,325.357,253.759,323.306,248.715,311.61z"/>
				</g>
			</g>
			<g style="opacity:0.3;">
				<g>
					<path d="M443.945,404.349c-1.207-6.515-7.36-11.216-13.812-12.723c-6.453-1.507-12.854-0.359-19.377,0.805
						c14.535-0.637,23.546,5.922,29.817,14.001c0.431,0.555,0.922,1.17,1.619,1.257c0.73,0.092,1.421-0.477,1.688-1.163
						C444.148,405.841,444.08,405.073,443.945,404.349z"/>
				</g>
			</g>
		</g>
		<g>
			<g>
				<path style="fill:#FF725E;" d="M332.443,366.779c-0.413-1.851,0.439-3.847,1.886-5.072c1.447-1.225,3.401-1.74,5.297-1.714
					c1.665,0.023,3.348,0.451,4.73,1.381c1.382,0.929,2.44,2.384,2.73,4.024c0.365,2.059-0.531,4.238-2.093,5.629
					c-1.562,1.391-3.71,2.029-5.8,1.968c-1.756-0.051-3.562-0.615-4.784-1.877C333.187,369.856,332.268,368.156,332.443,366.779"/>
			</g>
			<g>
				<path style="fill:#455A64;" d="M314.142,371.548c-7.157,1.117-14.052-6.96-15.649-12.147c-0.168-0.547-0.283-1.202,0.081-1.644
					c0.389-0.472,1.109-0.449,1.712-0.352c3.488,0.562,6.783,2.268,9.255,4.791C312.014,364.72,313.652,368.049,314.142,371.548"/>
			</g>
			<g>
				<path style="fill:#FF725E;" d="M306.21,367.457c-0.413-1.851,0.439-3.847,1.886-5.072c1.447-1.225,3.401-1.741,5.297-1.715
					c1.665,0.023,3.348,0.451,4.73,1.381c1.382,0.929,2.44,2.384,2.73,4.024c0.365,2.059-0.531,4.238-2.093,5.628
					c-1.562,1.391-3.709,2.029-5.8,1.968c-1.756-0.052-3.562-0.615-4.784-1.877C306.955,370.534,306.036,368.834,306.21,367.457"/>
			</g>
			<g>
				<path style="fill:#FF725E;" d="M378.645,367.457c-0.413-1.851,0.439-3.847,1.886-5.072c1.447-1.225,3.401-1.741,5.297-1.715
					c1.665,0.023,3.348,0.451,4.73,1.381c1.382,0.929,2.44,2.384,2.73,4.024c0.365,2.059-0.531,4.238-2.093,5.628
					c-1.562,1.391-3.709,2.029-5.8,1.968c-1.756-0.052-3.561-0.615-4.784-1.877C379.39,370.534,378.471,368.834,378.645,367.457"/>
			</g>
			<g style="opacity:0.3;">
				<path d="M332.443,366.779c-0.413-1.851,0.439-3.847,1.886-5.072c1.447-1.225,3.401-1.74,5.297-1.714
					c1.665,0.023,3.348,0.451,4.73,1.381c1.382,0.929,2.44,2.384,2.73,4.024c0.365,2.059-0.531,4.238-2.093,5.629
					c-1.562,1.391-3.71,2.029-5.8,1.968c-1.756-0.051-3.562-0.615-4.784-1.877C333.187,369.856,332.268,368.156,332.443,366.779"/>
			</g>
			<g style="opacity:0.3;">
				<path d="M306.21,367.457c-0.413-1.851,0.439-3.847,1.886-5.072c1.447-1.225,3.401-1.741,5.297-1.715
					c1.665,0.023,3.348,0.451,4.73,1.381c1.382,0.929,2.44,2.384,2.73,4.024c0.365,2.059-0.531,4.238-2.093,5.628
					c-1.562,1.391-3.709,2.029-5.8,1.968c-1.756-0.052-3.562-0.615-4.784-1.877C306.955,370.534,306.036,368.834,306.21,367.457"/>
			</g>
			<g style="opacity:0.3;">
				<path d="M378.645,367.457c-0.413-1.851,0.439-3.847,1.886-5.072c1.447-1.225,3.401-1.741,5.297-1.715
					c1.665,0.023,3.348,0.451,4.73,1.381c1.382,0.929,2.44,2.384,2.73,4.024c0.365,2.059-0.531,4.238-2.093,5.628
					c-1.562,1.391-3.709,2.029-5.8,1.968c-1.756-0.052-3.561-0.615-4.784-1.877C379.39,370.534,378.471,368.834,378.645,367.457"/>
			</g>
			<g>
				<path style="fill:#455A64;" d="M343.004,369.844c0.146-3.712,2.812-8.19,5.063-11.146s5.427-5.195,8.966-6.322
					c0.248-0.079,0.525-0.151,0.759-0.038c0.246,0.119,0.361,0.401,0.445,0.661c1.417,4.357,0.333,9.434-2.74,12.832
					C352.424,369.229,347.481,370.817,343.004,369.844"/>
			</g>
			<g>
				<path style="fill:#455A64;" d="M369.138,364.068c1.402-1.636,2.813-3.284,3.888-5.151c1.076-1.867,1.809-3.986,1.735-6.139
					c-0.011-0.321-0.061-0.681-0.317-0.873c-0.25-0.188-0.599-0.143-0.906-0.082c-4.021,0.801-7.775,2.894-10.57,5.893
					c-2.795,3-4.619,6.891-5.135,10.959l-0.231,1.053c3.41,2.168,7.259,2.675,11.233,1.943c3.09-0.569,6.163-1.501,8.787-3.229
					c2.623-1.729,4.771-4.329,5.476-7.39C378.309,359.919,373.033,361.059,369.138,364.068z"/>
			</g>
			<g>
				<path style="fill:#455A64;" d="M324.861,356.757c-3.262-3.501-7.854-5.48-12.485-6.685c-0.686,4.697,0.584,9.648,3.445,13.435
					c2.861,3.787,7.277,6.362,11.982,6.986l0.291-0.503C329.799,365.518,328.124,360.258,324.861,356.757z"/>
			</g>
			<g>
				<path style="fill:#455A64;" d="M388.869,371.457c0.146-3.712,2.812-8.19,5.063-11.145c2.251-2.955,5.427-5.195,8.966-6.322
					c0.248-0.079,0.525-0.15,0.759-0.038c0.246,0.119,0.361,0.401,0.445,0.661c1.417,4.357,0.333,9.434-2.74,12.832
					C398.289,370.843,393.345,372.43,388.869,371.457"/>
			</g>
			<g>
				<path style="fill:#E0E0E0;" d="M299.109,367.937c0,0,9.718,28.953,18.124,33.452c8.406,4.499,27.141,8.76,36.661,8.654
					c9.52-0.107,15.231-0.342,22.887-4.592c0.077-0.043,0.153-0.085,0.23-0.128c9.33-5.225,16.538-13.553,20.521-23.477
					l6.025-15.013L299.109,367.937z"/>
			</g>
			<g>
				<g>
					<path style="fill:#263238;" d="M396.792,384.273c0,0-0.948,0.981-3.151,1.995c-1.102,0.486-2.517,0.98-4.229,1.185
						c-1.702,0.231-3.705,0.161-5.801-0.42c-2.088-0.565-4.204-1.735-6.671-1.973c-1.224-0.108-2.498,0.117-3.741,0.569
						c-1.251,0.436-2.48,1.065-3.787,1.637c-1.3,0.569-2.709,1.116-4.239,1.224c-1.52,0.14-3.075-0.097-4.577-0.506
						c-3.014-0.807-5.898-2.299-9.081-2.843c-1.586-0.258-3.189-0.184-4.675,0.292c-1.496,0.451-2.865,1.219-4.212,1.96
						c-1.343,0.751-2.674,1.515-4.084,2.062c-1.399,0.568-2.919,0.831-4.378,0.665c-2.931-0.398-5.207-2.073-7.618-2.645
						c-2.412-0.605-4.783-0.246-6.871,0.131c-2.1,0.39-4.011,0.825-5.733,0.906c-1.715,0.107-3.209-0.073-4.371-0.42
						c-1.164-0.354-1.98-0.859-2.473-1.258c-0.499-0.396-0.698-0.67-0.698-0.67c0.044-0.085,0.912,1.08,3.226,1.732
						c1.145,0.309,2.61,0.456,4.297,0.324c1.69-0.107,3.573-0.561,5.684-0.977c2.094-0.4,4.515-0.8,7.044-0.188
						c2.512,0.59,4.809,2.239,7.568,2.587c1.369,0.146,2.793-0.1,4.143-0.652c1.36-0.533,2.669-1.286,4.015-2.044
						c1.351-0.746,2.743-1.534,4.307-2.009c1.556-0.501,3.269-0.581,4.911-0.311c3.3,0.569,6.185,2.074,9.132,2.864
						c1.468,0.403,2.958,0.631,4.4,0.503c1.446-0.096,2.802-0.611,4.091-1.168c1.293-0.559,2.536-1.188,3.828-1.63
						c1.281-0.457,2.637-0.691,3.93-0.566c2.596,0.278,4.698,1.481,6.736,2.049c2.036,0.588,3.991,0.684,5.664,0.484
						c1.682-0.173,3.084-0.63,4.182-1.081c1.099-0.462,1.896-0.944,2.426-1.282C396.508,384.449,396.779,384.256,396.792,384.273z"
						/>
				</g>
			</g>
			<g>
				<g>
					<path style="fill:#263238;" d="M396.792,380.915c0,0-0.964,0.984-3.195,1.998c-1.115,0.487-2.547,0.978-4.276,1.182
						c-1.72,0.23-3.742,0.16-5.861-0.421c-2.111-0.565-4.254-1.735-6.748-1.973c-1.238-0.107-2.525,0.117-3.784,0.569
						c-1.266,0.436-2.511,1.066-3.833,1.639c-1.316,0.57-2.742,1.115-4.286,1.223c-1.535,0.139-3.105-0.098-4.624-0.506
						c-3.047-0.806-5.967-2.299-9.186-2.843c-1.604-0.258-3.224-0.184-4.728,0.29c-1.513,0.45-2.901,1.22-4.265,1.961
						c-1.361,0.752-2.709,1.517-4.136,2.064c-1.415,0.567-2.951,0.827-4.424,0.662c-2.96-0.398-5.267-2.076-7.706-2.646
						c-2.44-0.604-4.835-0.244-6.946,0.133c-2.123,0.39-4.055,0.824-5.794,0.906c-1.733,0.107-3.241-0.072-4.417-0.417
						c-1.177-0.353-2.004-0.858-2.505-1.258c-0.507-0.397-0.709-0.672-0.709-0.672c0.044-0.085,0.928,1.085,3.269,1.734
						c1.159,0.307,2.639,0.455,4.344,0.322c1.708-0.107,3.612-0.561,5.745-0.977c2.117-0.4,4.562-0.8,7.117-0.19
						c2.539,0.588,4.867,2.24,7.657,2.588c1.384,0.146,2.824-0.097,4.191-0.65c1.377-0.533,2.703-1.287,4.068-2.046
						c1.368-0.747,2.779-1.536,4.361-2.01c1.573-0.501,3.302-0.579,4.961-0.309c3.334,0.568,6.256,2.074,9.236,2.865
						c1.484,0.403,2.991,0.631,4.449,0.503c1.462-0.095,2.834-0.61,4.139-1.168c1.309-0.559,2.568-1.189,3.874-1.631
						c1.295-0.457,2.665-0.69,3.971-0.566c2.621,0.276,4.751,1.48,6.812,2.049c2.059,0.588,4.035,0.684,5.726,0.486
						c1.7-0.173,3.118-0.628,4.23-1.079c1.113-0.462,1.921-0.945,2.458-1.283C396.504,381.092,396.78,380.899,396.792,380.915z"/>
				</g>
			</g>
			<g>
				<path style="fill:#FFBF9D;" d="M359.587,409.967c0,0-14.405-8.991-17.782-7.906s-3.37,4.581-3.37,4.581
					s-4.606-4.358-8.323-6.761c-1.68-1.086-3.736-1.876-5.608-0.968l-0.571,0.701l0.252,1.249c0,0-8.563-2.523-4.677,2.512
					c3.886,5.035,20.844,15.399,23.626,16.697c2.782,1.297,15.644,5.126,21.6,1.553c0,0,5.623-1.308,9.659-5.761
					c4.114-4.54,10.184-11.938,10.184-11.938l-0.397-7.392l-16.518,12.277L359.587,409.967z"/>
			</g>
			<g>
				<path style="fill:#FFBF9D;" d="M395.069,392.176c-0.213-1-0.505-2.039-1.224-2.766c-0.719-0.727-2.447-1.356-3.221-0.688
					c-1.951,1.381-4.238,5.427-4.238,5.427c-1.303,0.907-2.967,1.03-4.182,2.052c-1.215,1.022-2.208,2.475-2.158,4.062
					c0.06,1.892,1.626,3.478,3.408,4.117c1.781,0.64,3.738,0.517,5.618,0.296c2.005-0.236,4.186-0.678,5.451-2.251
					c1.073-1.334,1.225-3.175,1.181-4.886C395.657,395.737,395.444,393.939,395.069,392.176z"/>
			</g>
			<g>
				<g>
					<path style="fill:#FF9A6C;" d="M334.349,413.549c-0.038,0.05-0.943-0.542-2.26-1.691c-1.313-1.148-3.012-2.884-4.578-5.048
						c-1.57-2.164-2.708-4.3-3.386-5.923c-0.163-0.416-0.253-0.849-0.188-1.226c0.063-0.39,0.284-0.661,0.493-0.819
						c0.457-0.326,0.796-0.132,0.765-0.116c0.001,0.046-0.303-0.043-0.635,0.272c-0.156,0.151-0.312,0.397-0.334,0.698
						c-0.028,0.311,0.067,0.67,0.239,1.05c0.744,1.541,1.923,3.633,3.467,5.758c1.542,2.131,3.172,3.879,4.407,5.084
						C333.578,412.793,334.399,413.485,334.349,413.549z"/>
				</g>
			</g>
			<g>
				<g>
					<path style="fill:#FF9A6C;" d="M364.193,420.826c0,0.036-0.431,0.052-1.212,0.049c-0.391,0.005-0.869-0.005-1.422-0.062
						c-0.552-0.051-1.187-0.081-1.876-0.206c-1.388-0.185-3.019-0.555-4.788-1.104c-1.759-0.58-3.65-1.356-5.532-2.376
						c-1.871-1.041-3.541-2.221-4.974-3.395c-1.413-1.199-2.6-2.377-3.501-3.449c-0.475-0.514-0.84-1.034-1.18-1.473
						c-0.345-0.435-0.609-0.834-0.815-1.166c-0.421-0.658-0.638-1.03-0.608-1.049c0.085-0.058,1.014,1.4,2.878,3.444
						c0.924,1.028,2.122,2.162,3.53,3.323c1.428,1.136,3.079,2.285,4.92,3.31c1.852,1.004,3.706,1.781,5.431,2.377
						c1.735,0.565,3.334,0.968,4.698,1.197C362.467,420.721,364.196,420.722,364.193,420.826z"/>
				</g>
			</g>
			<g>
				<g>
					<path style="fill:#FF9A6C;" d="M387.252,404.995c0.006,0.029-0.223,0.119-0.659,0.178c-0.434,0.06-1.08,0.082-1.861-0.069
						c-0.774-0.155-1.693-0.488-2.533-1.149c-0.844-0.651-1.556-1.667-1.852-2.872c-0.301-1.201-0.141-2.452,0.375-3.4
						c0.507-0.956,1.27-1.597,1.961-1.986c0.703-0.386,1.343-0.531,1.782-0.568c0.441-0.039,0.683,0.013,0.683,0.04
						c0.018,0.102-0.999,0.042-2.276,0.844c-0.62,0.401-1.292,1.021-1.723,1.889c-0.438,0.857-0.567,1.971-0.297,3.056
						c0.269,1.089,0.895,2.011,1.648,2.624c0.752,0.625,1.592,0.972,2.313,1.164C386.279,405.118,387.245,404.897,387.252,404.995z"
						/>
				</g>
			</g>
			<g style="opacity:0.6;">
				<g>
					<path style="fill:#FFFFFF;" d="M323.376,394.79c-0.598-2.333-1.927-4.361-3.241-6.357c-2.809-4.268-5.617-8.535-8.425-12.803
						c-0.578-0.878-1.192-1.79-2.115-2.292c-0.824-0.448-3.211-1.561-3.713,0.445c-0.117,0.466-0.063,0.961,0.094,1.415
						c2.74,7.906,7.523,15.095,13.761,20.672c0.943,0.843,2.4,1.681,3.323,0.584C323.443,396,323.523,395.366,323.376,394.79z"/>
				</g>
			</g>
		</g>
		<g>
			<g>
				<g>
					<path style="fill:#FF9A6C;" d="M209.538,236.342c-1.859-2.913-3.768-5.882-6.474-8.031c-0.971-0.771-2.148-1.454-3.378-1.296
						c-1.061,0.136-1.972,0.903-2.476,1.847c-0.504,0.944-0.645,2.043-0.618,3.113c0.093,3.747,2.106,7.176,4.408,10.135
						c2.302,2.958,4.971,5.672,6.755,8.968l11.216,0.044C215.826,246.196,212.682,241.269,209.538,236.342z"/>
				</g>
				<g>
					<g>
						<path style="fill:#455A64;" d="M281.249,241.784c-3.425-2.717-7.843-3.879-12.191-4.335c0.022,4.336,1.844,8.636,4.945,11.666
							c3.101,3.031,7.442,4.754,11.777,4.676l0.194-0.494C286.905,249.025,284.674,244.501,281.249,241.784z"/>
					</g>
					<g>
						<g>
							<path style="fill:#263238;" d="M273.813,241.615c0.042-0.054,0.839,0.483,2.056,1.445c1.217,0.961,2.844,2.36,4.541,4.011
								c1.696,1.654,3.137,3.244,4.13,4.435c0.994,1.191,1.551,1.973,1.499,2.017c-0.058,0.048-0.715-0.649-1.774-1.772
								c-1.059-1.124-2.533-2.663-4.218-4.306c-1.686-1.641-3.264-3.074-4.415-4.103
								C274.481,242.313,273.766,241.674,273.813,241.615z"/>
						</g>
					</g>
				</g>
				<g>
					<g>
						<path style="fill:#455A64;" d="M296.455,240.492c-0.303-4.344-2.418-8.374-5.004-11.878c-3.174,2.93-5.111,7.159-5.255,11.476
							c-0.145,4.317,1.505,8.667,4.476,11.802l0.494-0.189C294.931,249.516,296.758,244.836,296.455,240.492z"/>
					</g>
					<g>
						<g>
							<path style="fill:#263238;" d="M291.974,233.276c0.073,0.01,0.006,0.972-0.131,2.521c-0.153,1.735-0.335,3.785-0.535,6.049
								c-0.177,2.267-0.338,4.318-0.474,6.055c-0.121,1.55-0.215,2.51-0.288,2.508c-0.07-0.002-0.107-0.967-0.08-2.525
								c0.027-1.558,0.126-3.71,0.323-6.081c0.198-2.37,0.457-4.508,0.688-6.049C291.708,234.212,291.904,233.267,291.974,233.276z"
								/>
						</g>
					</g>
				</g>
				<g>
					<circle style="fill:#FF725E;" cx="287.945" cy="248.464" r="6.171"/>
				</g>
				<g style="opacity:0.3;">
					<circle cx="287.945" cy="248.464" r="6.171"/>
				</g>
				<g>
					<g>
						<g>
							<path style="fill:#E0E0E0;" d="M263.464,256.605c-5.818,0-11.766-4.74-15.784-8.79l-0.141-0.142
								c-0.149-0.149-0.32-0.285-0.507-0.404c-0.46-0.292-1.04-0.462-1.676-0.492c-26.198-1.225-60.995-10.495-61.344-10.588
								c-0.7-0.188-1.115-0.908-0.928-1.608c0.187-0.699,0.906-1.119,1.608-0.928c0.346,0.093,34.874,9.29,60.785,10.501
								c1.092,0.051,2.116,0.361,2.962,0.898c0.349,0.222,0.671,0.479,0.955,0.763l0.149,0.149c5.33,5.371,10.435,8.21,14.342,8.003
								c6.684-0.359,23.516-5.347,23.685-5.398c0.697-0.208,1.426,0.19,1.633,0.884c0.206,0.695-0.189,1.426-0.884,1.633
								c-0.703,0.209-17.301,5.127-24.293,5.503C263.839,256.6,263.652,256.605,263.464,256.605z"/>
						</g>
						<g>
							<g>
								<path style="fill:#263238;" d="M263.464,256.605c0,0,0.197-0.022,0.578-0.043c0.381-0.048,0.95-0.085,1.69-0.185
									c1.483-0.186,3.655-0.582,6.429-1.195c2.774-0.612,6.147-1.459,10.041-2.522c1.937-0.535,4.045-1.119,6.195-1.778
									c0.466-0.192,0.768-0.728,0.674-1.237c-0.074-0.512-0.545-0.939-1.075-0.952c-0.251-0.02-0.525,0.099-0.831,0.181
									c-0.294,0.086-0.59,0.172-0.888,0.259c-0.597,0.171-1.201,0.344-1.812,0.519c-4.9,1.362-10.277,2.839-16.168,3.949
									c-1.476,0.262-2.983,0.503-4.549,0.59c-1.596,0.053-3.175-0.369-4.663-0.982c-2.978-1.266-5.649-3.287-8.137-5.56
									c-1.282-1.108-2.3-2.561-3.935-2.983c-0.79-0.264-1.626-0.266-2.506-0.327c-0.87-0.055-1.744-0.11-2.624-0.166
									c-3.516-0.241-7.094-0.619-10.727-1.068c-7.265-0.913-14.742-2.176-22.353-3.691c-7.615-1.514-15.009-3.183-22.107-4.98
									l-1.327-0.341l-0.662-0.173c-0.209-0.06-0.371-0.076-0.558-0.039c-0.361,0.065-0.674,0.335-0.795,0.679
									c-0.126,0.344-0.061,0.747,0.173,1.028c0.221,0.307,0.591,0.372,1.049,0.49l1.293,0.334
									c0.861,0.216,1.719,0.431,2.571,0.645c3.414,0.843,6.766,1.631,10.046,2.358c13.116,2.916,25.049,5.013,35.14,6.185
									c2.52,0.317,4.931,0.512,7.209,0.722c1.141,0.076,2.25,0.151,3.325,0.222c0.544,0.042,1.053,0.059,1.601,0.119
									c0.532,0.082,1.064,0.253,1.48,0.587c0.438,0.321,0.752,0.688,1.105,1.026c0.35,0.337,0.694,0.667,1.031,0.992
									c0.689,0.633,1.36,1.233,2.028,1.779c1.329,1.098,2.613,2.017,3.82,2.758c2.409,1.5,4.526,2.209,5.98,2.516
									C262.671,256.606,263.467,256.559,263.464,256.605c0,0-0.196,0.008-0.581-0.002c-0.386,0.007-0.955-0.061-1.697-0.177
									c-1.471-0.276-3.622-0.961-6.065-2.446c-1.224-0.733-2.525-1.646-3.872-2.739c-0.676-0.544-1.356-1.141-2.053-1.773
									c-0.342-0.324-0.69-0.653-1.044-0.989c-0.352-0.334-0.695-0.718-1.078-0.99c-0.375-0.3-0.86-0.452-1.354-0.525
									c-0.491-0.052-1.043-0.07-1.575-0.107c-1.078-0.066-2.189-0.133-3.333-0.203c-2.283-0.198-4.7-0.381-7.225-0.687
									c-10.114-1.128-22.067-3.189-35.202-6.083c-3.285-0.721-6.641-1.504-10.061-2.343c-0.854-0.213-1.713-0.427-2.576-0.643
									l-1.296-0.333c-0.227-0.065-0.41-0.096-0.675-0.189c-0.247-0.1-0.473-0.259-0.639-0.47
									c-0.344-0.412-0.442-1.012-0.257-1.517c0.179-0.509,0.639-0.908,1.174-1.006c0.259-0.058,0.56-0.022,0.786,0.047
									l0.658,0.172l1.325,0.339c7.088,1.788,14.477,3.452,22.082,4.963c7.602,1.513,15.067,2.777,22.316,3.696
									c3.625,0.452,7.194,0.833,10.698,1.078c0.876,0.057,1.748,0.113,2.615,0.169c0.85,0.06,1.77,0.065,2.625,0.352
									c0.428,0.133,0.84,0.312,1.227,0.537c0.381,0.234,0.707,0.543,1.059,0.812c0.635,0.583,1.203,1.19,1.83,1.75
									c2.455,2.254,5.092,4.251,7.988,5.49c1.445,0.601,2.966,1.007,4.471,0.959c1.519-0.081,3.022-0.314,4.488-0.57
									c5.864-1.087,11.247-2.541,16.145-3.879c0.611-0.172,1.215-0.342,1.812-0.509c0.298-0.085,0.594-0.17,0.888-0.255
									c0.283-0.071,0.584-0.209,0.946-0.19c0.694,0.02,1.304,0.582,1.396,1.246c0.118,0.664-0.277,1.352-0.88,1.597
									c-2.23,0.675-4.291,1.227-6.249,1.755c-3.905,1.037-7.289,1.856-10.074,2.439c-2.785,0.583-4.967,0.948-6.459,1.101
									c-0.745,0.083-1.318,0.103-1.7,0.134C263.66,256.618,263.464,256.605,263.464,256.605z"/>
							</g>
						</g>
					</g>
				</g>
				<g>
					<path style="fill:#FFBF9D;" d="M187.594,259.458c0,0,1.271-20.998,3.775-23.095c2.504-2.097,12.616-4.601,13.956-4.019
						c1.339,0.582,8.981,3.575,9.265,4.85c0.753,3.387-2.607,3.671-2.607,3.671l-6.044-1.098l-6,3.239l-0.707,5.798
						c0,0,6.106-4.889,8.163-6.324c2.058-1.436,7.12-1.383,7.322,2.377c0,0,7.9,0.948,8.145,5.514c0,0,7.031,5.073,7.388,7.67
						c0.357,2.597-3.07,7.795-3.07,7.795s10.673,10.328,10.38,13.832c-0.293,3.504,0.782,14.565,0.782,14.565l-24.269,3.046
						l-0.537-10C213.536,287.28,189.167,264.388,187.594,259.458z"/>
				</g>
				<g>
					<g>
						<path style="fill:#FF9A6C;" d="M226.863,258.623c0.131,0.022-0.183,1.573-1.392,3.042c-1.197,1.48-2.654,2.099-2.701,1.975
							c-0.079-0.134,1.179-0.915,2.298-2.304C226.203,259.962,226.716,258.573,226.863,258.623z"/>
					</g>
				</g>
				<g>
					<g>
						<path style="fill:#FF9A6C;" d="M228.565,260.712c0.115,0.09-0.471,0.73-1.448,0.684c-0.977-0.036-1.508-0.722-1.386-0.802
							c0.102-0.107,0.645,0.263,1.408,0.282C227.9,260.921,228.472,260.597,228.565,260.712z"/>
					</g>
				</g>
				<g>
					<g>
						<path style="fill:#FF9A6C;" d="M222.683,250.664c0.029,0.083-0.837,0.391-2.096,1.131c-1.248,0.747-2.879,1.98-4.229,3.745
							c-0.984,1.255-1.654,2.596-2.096,3.752l-0.037,0.097l-0.087,0.034c-2.124,0.82-3.546,1.315-3.581,1.23
							c-0.035-0.085,1.325-0.73,3.414-1.636l-0.124,0.131c0.407-1.214,1.078-2.624,2.099-3.926c1.402-1.833,3.136-3.066,4.463-3.749
							C221.751,250.796,222.668,250.611,222.683,250.664z"/>
					</g>
				</g>
				<g>
					<g>
						<path style="fill:#FF9A6C;" d="M202.681,256.772c-0.022-0.016,0.099-0.244,0.452-0.536c0.35-0.295,0.953-0.591,1.706-0.839
							c0.746-0.263,1.654-0.496,2.424-1.123c0.775-0.622,1.477-1.544,2.284-2.435c1.589-1.806,3.05-3.421,4.126-4.573
							c1.077-1.152,1.77-1.841,1.824-1.793c0.054,0.047-0.541,0.822-1.547,2.036c-1.006,1.214-2.423,2.868-4.012,4.674
							c-0.806,0.887-1.51,1.801-2.381,2.47c-0.884,0.679-1.869,0.881-2.609,1.096c-0.758,0.201-1.334,0.425-1.698,0.653
							C202.885,256.624,202.714,256.801,202.681,256.772z"/>
					</g>
				</g>
				<g>
					<g>
						<path style="fill:#FF9A6C;" d="M199.165,248.75c0.128,0.021-0.492,2.104-2.363,3.916c-1.854,1.831-3.949,2.405-3.967,2.277
							c-0.066-0.147,1.847-0.908,3.603-2.65C198.216,250.577,199.019,248.681,199.165,248.75z"/>
					</g>
				</g>
				<g>
					<g>
						<path style="fill:#FF9A6C;" d="M227.481,265.962c-0.026,0.073-0.364-0.012-0.901-0.013c-0.532-0.005-1.282,0.11-1.97,0.527
							l-0.367,0.222l-0.028-0.429c-0.003-0.04-0.005-0.083-0.008-0.126c-0.044-0.89-0.157-1.651-0.374-2.166
							c-0.205-0.517-0.447-0.788-0.394-0.846c0.038-0.052,0.398,0.14,0.723,0.681c0.336,0.533,0.522,1.398,0.564,2.297
							c0.003,0.044,0.005,0.087,0.008,0.128l-0.394-0.207c0.812-0.485,1.692-0.546,2.27-0.442
							C227.2,265.69,227.506,265.906,227.481,265.962z"/>
					</g>
				</g>
			</g>
			<g>
				<g>
					<path style="fill:#FF725E;" d="M210.696,294c0,0-14.953,84.414-13.784,93.31c1.169,8.896,3.766,44.423,30.175,40.518
						c26.409-3.906,21.835-40.82,20.937-47.905s-7.137-54.362-7.137-54.362l-2.002-33.073L210.696,294z"/>
				</g>
				<g>
					<g>
						<path style="fill:#263238;" d="M245.466,365.676c-0.018,0.002-0.063-0.252-0.131-0.737c-0.07-0.536-0.161-1.242-0.276-2.124
							c-0.232-1.846-0.528-4.521-0.866-7.829c-0.682-6.616-1.472-15.77-2.276-25.883c-0.804-10.117-1.537-19.272-2.124-25.894
							c-0.292-3.268-0.531-5.933-0.701-7.842c-0.074-0.886-0.134-1.596-0.179-2.134c-0.035-0.488-0.045-0.746-0.027-0.748
							c0.018-0.002,0.063,0.252,0.131,0.736c0.07,0.536,0.161,1.242,0.276,2.124c0.232,1.845,0.528,4.52,0.866,7.828
							c0.682,6.616,1.473,15.771,2.277,25.887c0.804,10.113,1.536,19.267,2.124,25.889c0.292,3.269,0.531,5.933,0.701,7.842
							c0.074,0.886,0.134,1.596,0.179,2.134C245.474,365.417,245.484,365.674,245.466,365.676z"/>
					</g>
				</g>
			</g>
		</g>
	</g>
</g>
<g id="Glass_of_Water">
	<g>
		<g style="opacity:0.6;">
			<rect x="257.216" y="392.368" style="fill:#FFFFFF;" width="40.875" height="79.786"/>
		</g>
		<g>
			<path style="fill:#EBEBEB;" d="M289.79,466.992h-24.155c-2.951,0-5.344-2.392-5.344-5.344v-48.06l11.305,1.867
				c3,0.495,6.058,0.537,9.071,0.122l14.466-1.99v48.06C295.134,464.6,292.741,466.992,289.79,466.992z"/>
		</g>
		<g>
			<g>
				<path style="fill:#263238;" d="M297.979,392.816c0.01,0.034-0.536,0.223-1.537,0.536c-0.996,0.324-2.466,0.708-4.299,1.102
					c-1.832,0.403-4.041,0.752-6.508,1.015c-2.469,0.235-5.197,0.367-8.06,0.315c-5.732-0.131-10.871-0.963-14.523-1.79
					c-1.827-0.413-3.294-0.797-4.295-1.107c-1.003-0.302-1.552-0.485-1.542-0.519c0.01-0.035,0.577,0.083,1.594,0.324
					c1.014,0.249,2.49,0.577,4.319,0.942c3.656,0.732,8.768,1.5,14.458,1.63c2.842,0.052,5.55-0.065,8.004-0.272
					c2.452-0.234,4.651-0.544,6.481-0.898c1.831-0.346,3.307-0.673,4.317-0.936C297.402,392.905,297.969,392.782,297.979,392.816z"
					/>
			</g>
		</g>
		<g>
			<g>
				<path style="fill:#263238;" d="M260.358,399.783c0.144,0,0.26,13.731,0.26,30.666c0,16.94-0.117,30.669-0.26,30.669
					c-0.144,0-0.26-13.729-0.26-30.669C260.098,413.514,260.214,399.783,260.358,399.783z"/>
			</g>
		</g>
		<g>
			<g>
				<path style="fill:#263238;" d="M287.616,467.32c0,0.144-4.898,0.26-10.94,0.26c-6.043,0-10.941-0.117-10.941-0.26
					c0-0.144,4.897-0.26,10.941-0.26C282.718,467.06,287.616,467.177,287.616,467.32z"/>
			</g>
		</g>
		<g>
			<path style="fill:#FFFFFF;" d="M260.368,413.793c3.223,3.541,7.754,5.863,12.51,6.412c7.954,0.919,15.598-2.926,22.682-6.658
				c-11.686,1.651-23.838,3.269-35.093-0.282"/>
		</g>
		<g style="opacity:0.6;">
			<g>
				<path style="fill:#FFFFFF;" d="M279.698,433.25c-3.612,2.404-6.497,5.811-10.149,8.152c-3.652,2.341-8.667,3.424-12.174,0.867
					v5.514c3.508,2.557,8.523,1.474,12.174-0.867c3.652-2.341,6.538-5.747,10.149-8.151c5.347-3.559,12.209-4.687,18.392-3.022
					v-5.513C291.908,428.563,285.045,429.69,279.698,433.25z"/>
			</g>
		</g>
	</g>
</g>
</svg>
